<?xml version="1.0" encoding="UTF-8"?>
<svg id="Camada_2" data-name="Camada 2" xmlns="http://www.w3.org/2000/svg" viewBox="0 0 149.25 66.6">
  <defs>
    <style>
      .cls-1 {
        fill: #f0ede8;
      }
    </style>
  </defs>
  <g id="Camada_1-2" data-name="Camada 1">
    <g>
      <g>
        <path class="cls-1" d="M12.32,64.05l.12.3.09.11.14.26.06.09.23.21.06.06.2.12s.1.07.14.12l.04.04.28.11h.15s.27.07.27.07l.16-.04h.19s.28-.01.28-.01h.3s.12-.04.12-.04l.27-.09.12-.05.15-.05.12-.05.09-.05c.06-.04.11-.05.17-.06h.05c.09.05.14.14.14.22v.16l.02.28c0,.1-.04.22-.09.31l-.04.06-.07.05s-.11.06-.17.07l-.21.05-.26.09s-.06.02-.1.02h-.11s-.22.09-.22.09l-.09.02s-.11.04-.16.04h-.1c-.07.02-.14.01-.2,0l-.06-.02h-.15s-.11.01-.11.01h-.07l-.27-.04s-.06-.01-.09-.02l-.11-.02h-.21s-.12-.02-.17-.05h-.01l-.23-.12s-.05-.01-.07-.04l-.09-.07-.17-.07s-.07-.04-.1-.06l-.09-.07-.22-.15-.06-.05s-.06-.04-.09-.07l-.14-.16h-.01c-.07-.06-.14-.1-.19-.17l-.09-.11-.09-.14-.12-.19s-.05-.07-.06-.12l-.04-.09-.06-.22-.04-.09c-.02-.06-.05-.1-.06-.17l-.02-.2c-.02-.06-.05-.12-.05-.21v-.12s.01-.07.01-.1v-.11s.01-.01.01-.01c-.01-.06,0-.15.01-.21v-.05s0-.17,0-.17v-.26s.05-.15.05-.15v-.2c.02-.06.04-.12.06-.19v-.02s.11-.32.11-.32l.02-.05s.02-.06.04-.09l.15-.25.09-.1.14-.23.06-.07s.02-.04.05-.06l.19-.17.11-.09.21-.16.06-.05s.06-.04.1-.06l.23-.11.14-.05.31-.11.27-.09s.1-.04.15-.04h.4s.02-.02.02-.02c.05-.01.11-.01.16,0h.1c.09-.01.19-.01.27,0h.27c.07-.01.16,0,.27.04l.12.05.28.1.12.05s.04.02.07.05l.07.05.15.07s.07.04.11.07c.1.1.11.22.11.33l-.02.3c.01.06,0,.15-.04.25-.09.05-.17.05-.23.01l-.1-.02-.27-.15-.09-.06-.32-.02h-.06s-.1-.01-.16-.04l-.05-.02h-.33s-.15,0-.15,0h-.1s-.09.02-.14.01h-.09s-.26,0-.26,0l-.12.06-.28.09-.11.07-.23.12-.14.14-.14.21-.09.11-.16.25-.04.09-.11.26-.04.17-.05.31v.21s0,.1-.01.14l-.02.1v.41s.04.12.04.12Z"/>
        <path class="cls-1" d="M23.01,60.16c.07-.01.15-.01.23.01h.04c.06.02.12.05.17.09l.05.02.28.11.12.05.25.12.05.02s.1.05.14.09l.17.14c.06.05.12.11.16.19l.09.14.1.11.15.17s.05.06.06.1l.04.07.17.25.05.1s.02.05.04.06l.09.22.02.1s.02.05.02.07l.04.27v.02s.01.1.01.14v.51s.01.16.01.16v.36s0,.07-.01.11l-.02.09-.06.3-.02.11-.09.23s-.02.05-.04.09l-.04.07-.16.22-.06.15-.22.27-.21.23-.05.05s-.1.1-.16.14l-.17.1-.02.02s-.1.09-.16.11l-.16.09-.37.16-.1.04-.17.06s-.1.02-.15.02h-.2l-.32.04h-.26s-.01.01-.01.01c-.07.01-.15,0-.22-.01l-.22-.04-.15-.04-.3-.07c-.06.01-.17-.02-.28-.09l-.1-.05-.15-.07-.22-.15-.1-.09-.21-.17-.14-.1-.22-.22-.12-.14c-.05-.06-.11-.11-.14-.19v-.04s-.07-.09-.07-.09c-.05-.09-.09-.17-.1-.28v-.04l-.1-.26-.05-.14-.07-.23s-.02-.1-.02-.15v-.26s-.02-.14-.02-.14v-.16s-.04-.16-.04-.16v-.1s-.01-.07-.01-.1l.02-.22v-.07s.02-.04.04-.07l.1-.27.05-.16.1-.25.04-.09s.04-.09.06-.14l.09-.14.1-.14.09-.16s.06-.09.1-.12l.04-.05.21-.19.05-.06s.07-.07.11-.11l.2-.14.17-.12s.1-.05.17-.07l.09-.02.23-.12h.04c.06-.05.14-.06.21-.07l.33-.04h.33s.15,0,.15,0l.14-.02h.46s.05,0,.05,0ZM23.12,65.44l.25-.1.17-.05.15-.15s.09-.07.12-.1l.09-.04.17-.25.11-.26s.04-.07.06-.11l.07-.09.09-.3v-.14l.07-.26v-.11s-.01-.05-.01-.05c-.01-.07,0-.14.01-.21v-.04s.01-.12.01-.12v-.28s-.04-.14-.04-.14l-.14-.23-.06-.09s-.02-.06-.04-.09l-.1-.25-.11-.14-.16-.2-.16-.07-.17-.14-.07-.07-.05-.05-.28-.09-.15-.05h-.27s-.16,0-.16,0h-.14s-.06-.01-.09-.01l-.12-.02-.28.05-.16.06-.25.11-.09.06-.35.26-.2.19-.1.15-.12.28-.11.31-.04.15-.06.32v.11s-.05.16-.05.16v.15s.01.11.01.11l.02.31.04.12.15.3.04.09.12.22.11.17.19.19.11.1.28.19.21.07s.07.02.11.04l.11.06.27.04h.14l.14.02h.06s.11,0,.16.01h.06s.3-.05.3-.05l.11-.07Z"/>
        <path class="cls-1" d="M29.52,60.25l.32.02h.11c.09,0,.19.04.27.1l.04.02v.16s.02.33.02.33v.26s.04.22.04.22l.11-.09.04-.14.15-.16s.06-.06.11-.1l.1-.06.19-.15.11-.1.17-.12c.06-.05.11-.06.17-.09l.33-.1.11-.02.2-.05s.11-.01.16-.01h.09s.14.02.14.02l.19-.02h.06s.12-.01.17,0l.19.04h.02s.11.02.16.05h.04s.27.15.27.15c.06.02.14.06.2.12l.15.14.02.02c.07.06.12.11.16.19l.07.15.07.15.04.1h.14s.09-.06.09-.06l.07-.11.19-.22.1-.1s.04-.02.05-.04l.19-.14.16-.1.1-.09.1-.05s.06-.04.09-.05l.36-.12s.07-.02.12-.04l.23-.02.16-.02h.26s.1-.02.15-.01l.23.02.17.04.19.04s.1.02.14.05l.06.04.19.15s.05.04.06.06l.05.05.19.2.09.11.16.19.02.04s.07.1.1.17l.06.16.04.19.05.3v.07s.01.07.01.1l-.02.26.02.11v.05c.01.06.02.14.01.2v.48s.01.33.01.33v.2s.01.25.01.25v.11s.01.27.01.27v.16s-.01.26-.01.26v.17s-.01.32-.01.32l.04.14v.21s-.01.11-.02.16v.06s0,.3,0,.3c-.01.1-.05.19-.12.28l-.02.02h-.3s-.33.02-.33.02c-.05.01-.11,0-.16-.01h-.06c-.07-.11-.12-.21-.14-.33h0s-.01-.32-.01-.32v-.19s-.02-.22-.02-.22v-.22s.04-.3.04-.3l.02-.15-.02-.21s-.01-.09-.01-.12v-.07s-.02-.25-.02-.25c0-.05-.01-.1,0-.16v-.07s.05-.33.05-.33v-.12s.04-.25.04-.25v-.05c-.04-.09-.05-.19-.02-.27h.01s-.05-.17-.05-.17l.04-.14-.04-.32-.06-.1-.11-.28-.07-.11-.21-.23-.12-.09-.25-.11h-.15l-.16-.04h-.12s-.2.01-.2.01l-.25.02-.19.06-.2.14-.14.12-.17.2-.07.12-.17.23-.09.11-.12.26-.04.15-.05.25-.02.14v.2s.01.07.01.11v.1s-.04.15-.04.15v.26l-.02.3v.19s-.02.33-.02.33v.46s.05.17.05.17v.31s-.01.14-.01.14l.02.27v.09s0,.07-.01.12l-.02.06c-.1.1-.2.15-.27.15h-.11s-.1.02-.15.02h-.22s-.15.01-.15.01c0,0-.14-.12-.21-.23-.04-.06-.04-.14-.02-.21v-.19s-.02-.15-.02-.15v-.31s-.01-.15-.01-.15v-.31s.01-.15.01-.15l.02-.32.02-.12v-.33s-.01-.01-.01-.01c-.02-.07-.04-.16-.04-.23v-.19s0-.19,0-.19l-.02-.27v-.17l.04-.17.02-.14v-.19s-.04-.2-.04-.2c-.01-.05-.01-.1-.01-.15v-.11l-.17-.25-.05-.12-.23-.19-.09-.07-.23-.1h-.16s-.15.01-.15.01h-.12s-.12-.01-.12-.01l-.31.04-.15.09-.28.11-.12.05-.21.17-.05.11-.14.22-.07.1-.05.11-.11.31-.09.28v.2s-.07.3-.07.3v.16s-.02.12-.02.12v.15s0,.16,0,.16l-.02.3v.06c0,.07.01.15-.01.21v.02s.02.16.02.16v.48s.04.15.04.15v.26s-.01.07-.02.12l-.02.06v.35s-.02.04-.05.09c-.09.2-.25.27-.35.26h-.3s-.05-.01-.05-.01c-.04,0-.07,0-.11-.01l-.12-.02c-.07-.09-.1-.19-.1-.3l-.02-.28-.02-.15v-.31s-.02-.02-.02-.02c-.01-.06,0-.11,0-.16l.02-.21.02-.15v-.32s0-.14,0-.14l-.02-.3s.01-.1.01-.14l.04-.27v-.15s-.05-.28-.05-.28l-.02-.16s-.01-.04-.01-.07v-.17s.01-.1.02-.16v-.05s.02-.28.02-.28v-.17s-.02-.27-.02-.27v-.14s-.01-.26-.01-.26v-.12s.01-.31.01-.31v-.14s.01-.35.01-.35c0-.07.02-.16.09-.21.05-.05.14-.09.23-.1Z"/>
        <path class="cls-1" d="M42.71,57.96h.01s.19-.09.19-.09c.05-.02.11-.04.16-.04h.05l.14.05h.01c.09-.01.17,0,.26.04.07.02.16.14.25.28h.01s.02.17.02.17v.12s.01.02.01.02c0,.09-.02.15-.05.22-.04.09-.07.16-.14.21l-.19.06s-.1.02-.14.02h-.07l-.11.04s-.1.01-.15.01h-.06l-.07-.04c-.07-.04-.15-.09-.2-.15l-.04-.04-.04-.23v-.11c-.01-.06-.01-.12,0-.2v-.02s.07-.2.07-.2c.01-.06.04-.1.06-.15ZM42.88,60.25h.14s.31.04.31.04h.14s.14.1.22.2c.06.07.06.15.07.25v.16s.02.12.02.12v.32s-.04.15-.04.15v.3s0,.11,0,.11l.04.19c.01.07.01.11,0,.19v.07s0,.21,0,.21c0,.06,0,.14-.01.2l-.02.06-.02.25v.12l.02.26v.41c.01.06.02.12.01.17v.04s.02.27.02.27c0,.04.01.07.01.11v.06s.01.21.01.21c0,.05,0,.1-.01.15v.07s.01.16.01.16v.06c0,.06.01.09,0,.15v.09s-.02.31-.02.31v.16s0,.3,0,.3c0,.1-.04.19-.1.27l-.02.05-.19-.04h-.48s-.2-.1-.28-.19c-.05-.05-.06-.11-.09-.16v-.05s0-.3,0-.3v-.12s.02-.36.02-.36v-.25s0-.06.01-.11v-.11s-.04-.3-.04-.3v-.42s-.01-.14-.01-.14v-.31s-.01-.17-.01-.17v-.17c-.01-.07,0-.16.02-.23v-.02s.01-.2.01-.2c0-.06,0-.12.02-.19l-.04-.32v-.19l.02-.22v-.19s-.04-.3-.04-.3v-.14s-.02-.26-.02-.26v-.07s0-.07,0-.12l.02-.19v-.06c.01-.15.02-.22.06-.27.04-.05.11-.06.21-.07Z"/>
        <path class="cls-1" d="M53.48,57.89l.02.3v.58s-.01.2-.01.2c0,.05-.01.1-.02.16l-.02.11v.31s.06.15.06.15v.2s0,.11-.01.15l-.02.09v.3s0,.16,0,.16v.26s.01.14.01.14v.19c0,.07,0,.15-.02.21v.02s0,.23,0,.23c0,.06,0,.1-.01.16v.06s.04.26.04.26l.04.2v.23s.01.09.01.12v.09s-.05.26-.05.26v.1s-.01.3-.01.3v.15l.04.27v.17s.02.23.02.23c.01.04.01.1.01.14v.09s-.05.28-.05.28l.04.16-.06.42v.32s.02.14.02.14v.27s-.02.07-.04.12l-.02.1c-.12.11-.21.16-.28.16h-.28s-.14.01-.14.01c0,0-.27-.16-.32-.25-.01-.02-.01-.05-.01-.06v-.36l.02-.26h-.15s-.09.12-.09.12l-.25.22-.1.1-.19.14s-.09.06-.14.09l-.26.11h-.01c-.06.06-.14.09-.21.11l-.16.05s-.07.02-.11.02l-.26.02h-.15c-.09.04-.17.05-.27.04l-.12.02h-.27s-.07-.02-.1-.02h-.1s-.28-.15-.28-.15l-.38-.21c-.11-.02-.22-.1-.31-.2l-.06-.06-.11-.1-.21-.25-.19-.19s-.05-.06-.07-.1l-.06-.09-.12-.23s-.04-.06-.05-.11l-.02-.07-.11-.3v-.02s-.04-.07-.05-.12l-.04-.15c-.01-.06-.02-.15-.01-.21v-.06l-.02-.19c-.01-.1-.01-.17.01-.27h0s-.01-.2-.01-.2c0-.05-.01-.1,0-.15l.02-.1v-.36s.02-.12.04-.17l.06-.2v-.05c.01-.07.02-.12.05-.19l.07-.16.05-.17.16-.28.14-.21s.06-.09.1-.12l.09-.07.17-.16s.05-.02.09-.05l.09-.06.23-.19.07-.05s.05-.02.07-.04l.17-.09.02-.02c.06-.05.12-.07.19-.09l.22-.06.16-.02.25-.05s.06-.01.1-.01h.28l.16-.02.26.02s.09.01.12.02h.04s.14.05.14.05l.27.09.05.02s.07.02.1.05l.2.14h.04c.09.04.16.1.22.16l.11.11.06.04s.1.07.14.11l.04.05.07-.04.02-.23v-.19s-.01-.04-.01-.04c0-.05-.01-.1,0-.16l.04-.22v-.42s0-.17,0-.17v-.22s-.01-.07-.01-.11v-.09s.01-.26.01-.26l.02-.14v-.12l-.02-.19v-.53c.02-.11.09-.2.17-.3v-.02s.12.01.12.01h.41s.14-.01.14-.01c.1,0,.17.02.22.07s.07.15.07.27ZM49.75,61.22l-.25.09-.14.1-.2.14-.07.11-.21.25-.06.11-.1.23-.05.12-.12.27-.06.19v.31s0,.06,0,.06c.01.07,0,.11-.01.19v.22s.05.19.05.19c.01.04.01.1.01.14v.05s.09.26.09.26l.05.15v.02c.06.06.11.15.14.22l.09.12.15.21.09.12.16.09s.1.05.14.09l.05.04.19.09s.05.01.09.04l.07.05.27.05h.16s.12.04.12.04h.02c.07-.01.15-.01.22.01h.09s.25-.06.25-.06l.11-.06.21-.16s.05-.04.07-.05l.23-.14.12-.09.17-.21.1-.15.11-.28.07-.12.05-.25.04-.11.05-.31-.02-.15v-.21l.02-.11-.05-.28-.02-.16-.1-.22-.04-.15-.17-.27-.06-.11-.16-.31-.25-.22-.15-.06-.25-.1s-.06-.02-.09-.04l-.04-.02-.28-.05h-.17s-.17.04-.17.04h-.15l-.31.02-.1.05Z"/>
        <path class="cls-1" d="M57.44,61.35v-.15s-.02-.22-.02-.22v-.1l.02-.12.04-.06c.06-.09.12-.16.22-.22.01,0,.02-.01.04-.02l.15-.06s.12-.04.19-.05h.04s.17-.06.17-.06h.05c.06-.04.14-.05.2-.05h.06l.22-.07s.09-.02.12-.02h.37s.31.02.31.02h.01c.06-.02.15-.02.21-.01h.06s.3.01.3.01h.12s.07.02.1.04l.27.07h.06s.11.05.16.07l.19.11.1.07.21.12s.1.05.14.1l.1.11s.11.12.14.2v.02s.17.27.17.27l.04.05s.06.1.07.15c.04.12.05.2.04.26l.02.16.04.17c.01.06.02.15.01.21h0v.2l.02.11v.43l.04.17v.3l-.02.32v.42s0,.07-.01.12l-.02.07v.28c.02.07.05.15.04.25v.15s-.01.17-.01.17v.28s-.01.16-.01.16v.33s.01.01.01.01c-.01.1-.17.25-.26.28-.02,0-.05.01-.06.01h-.1s-.23.01-.23.01c-.02,0-.07-.01-.1-.01h-.11c-.11-.1-.17-.19-.19-.26l-.02-.3v-.12l-.04-.26h-.1s-.15.11-.15.11l-.17.21-.09.14-.16.16s-.06.04-.09.06l-.23.16s-.06.04-.11.06l-.05.02-.16.06c-.06.02-.12.04-.19.04h-.07l-.32.04h-.17s-.14.04-.14.04h-.05c-.07.01-.16,0-.23-.02l-.16-.05-.15-.06-.22-.07s-.06-.02-.09-.04l-.14-.07-.17-.12s-.09-.05-.12-.1l-.16-.19-.06-.09s-.06-.09-.07-.14l-.07-.19-.02-.07s-.04-.09-.04-.15v-.19s-.02-.12-.02-.12v-.3s-.02-.05-.02-.05c-.01-.1-.01-.17.01-.27l.04-.12c.01-.09.05-.15.1-.21l.09-.14c.02-.07.09-.17.19-.25l.04-.02.09-.12.21-.15.02-.02s.07-.05.11-.06l.23-.1.11-.05.16-.06.06-.04c.06-.04.12-.05.19-.06l.23-.04h.16s.25-.09.25-.09c.04-.01.07-.01.11-.01h.09s.41.02.41.02h.22s.1,0,.14.01l.06.02h.35s.17-.02.17-.02l.14-.04v-.25s-.01-.12-.01-.12l.02-.12-.04-.28-.06-.11-.14-.25-.12-.07-.19-.14s-.06-.05-.09-.09l-.04-.05-.22-.14h-.14l-.3-.06-.17.04h-.16s-.19.01-.19.01l-.26-.02-.16.02-.26.05-.17.05-.25.09-.14.06-.26.11c-.07.02-.15.04-.2.01-.05-.01-.09-.07-.07-.16ZM59.86,65.47l.27-.11.1-.09.19-.17.1-.11.15-.25.05-.07.07-.16c.02-.06.07-.11.12-.17l.02-.02.04-.25v-.15s.05-.16.05-.16l-.14-.14-.2.02h-.22c-.06,0-.12,0-.19-.02h-.05s-.41-.06-.41-.06l-.28.05-.15.04-.28.04-.16.02-.23.11-.12.07-.23.22-.04.14-.1.28.04.15-.02.12.04.17.07.31.2.19.11.06.32.04h.02c.09-.02.17-.01.25.01h.19l.3-.06.14-.05Z"/>
        <path class="cls-1" d="M71.02,61.35v-.15s-.02-.22-.02-.22v-.1l.02-.12.04-.06c.06-.09.12-.16.22-.22.01,0,.02-.01.04-.02l.15-.06s.12-.04.19-.05h.04s.17-.06.17-.06h.05c.06-.04.14-.05.2-.05h.06l.22-.07s.09-.02.12-.02h.37s.31.02.31.02h.01c.06-.02.15-.02.21-.01h.06s.3.01.3.01h.12s.07.02.1.04l.27.07h.06s.11.05.16.07l.19.11.1.07.21.12s.1.05.14.1l.1.11s.11.12.14.2v.02s.17.27.17.27l.04.05s.06.1.07.15c.04.12.05.2.04.26l.02.16.04.17c.01.06.02.15.01.21h0v.2l.02.11v.43l.04.17v.3l-.02.32v.42s0,.07-.01.12l-.02.07v.28c.02.07.05.15.04.25v.15s-.01.17-.01.17v.28s-.01.16-.01.16v.33s.01.01.01.01c-.01.1-.17.25-.26.28-.02,0-.05.01-.06.01h-.1s-.23.01-.23.01c-.02,0-.07-.01-.1-.01h-.11c-.11-.1-.17-.19-.19-.26l-.02-.3v-.12l-.04-.26h-.1s-.15.11-.15.11l-.17.21-.09.14-.16.16s-.06.04-.09.06l-.23.16s-.06.04-.11.06l-.05.02-.16.06c-.06.02-.12.04-.19.04h-.07l-.32.04h-.17s-.14.04-.14.04h-.05c-.07.01-.16,0-.23-.02l-.16-.05-.15-.06-.22-.07s-.06-.02-.09-.04l-.14-.07-.17-.12s-.09-.05-.12-.1l-.16-.19-.06-.09s-.06-.09-.07-.14l-.07-.19-.02-.07s-.04-.09-.04-.15v-.19s-.02-.12-.02-.12v-.3s-.02-.05-.02-.05c-.01-.1-.01-.17.01-.27l.04-.12c.01-.09.05-.15.1-.21l.09-.14c.02-.07.09-.17.19-.25l.04-.02.09-.12.21-.15.02-.02s.07-.05.11-.06l.23-.1.11-.05.16-.06.06-.04c.06-.04.12-.05.19-.06l.23-.04h.16s.25-.09.25-.09c.04-.01.07-.01.11-.01h.09s.41.02.41.02h.22s.1,0,.14.01l.06.02h.35s.17-.02.17-.02l.14-.04v-.25s-.01-.12-.01-.12l.02-.12-.04-.28-.06-.11-.14-.25-.12-.07-.19-.14s-.06-.05-.09-.09l-.04-.05-.22-.14h-.14l-.3-.06-.17.04h-.16s-.19.01-.19.01l-.26-.02-.16.02-.26.05-.17.05-.25.09-.14.06-.26.11c-.07.02-.15.04-.2.01-.05-.01-.09-.07-.07-.16ZM73.44,65.47l.27-.11.1-.09.19-.17.1-.11.15-.25.05-.07.07-.16c.02-.06.07-.11.12-.17l.02-.02.04-.25v-.15s.05-.16.05-.16l-.14-.14-.2.02h-.22c-.06,0-.12,0-.19-.02h-.05s-.41-.06-.41-.06l-.28.05-.15.04-.28.04-.16.02-.23.11-.12.07-.23.22-.04.14-.1.28.04.15-.02.12.04.17.07.31.2.19.11.06.32.04h.02c.09-.02.17-.01.25.01h.19l.3-.06.14-.05Z"/>
        <path class="cls-1" d="M79.61,66.09l-.02-.3-.02-.14v-.16s-.01-.11,0-.16v-.05s.02-.28.02-.28v-.04c0-.09,0-.15.02-.22v-.02s-.04-.25-.04-.25v-.43s.02-.09.02-.09l-.04-.32v-.12s.02-.3.02-.3l-.02-.16v-.43s-.02-.16-.02-.16c-.01-.09-.01-.15,0-.23v-.04s0-.27,0-.27c0-.06,0-.1.01-.15l.06-.27v-.17l-.04-.3-.02-.11v-.25s-.01-.06-.01-.06c0-.06.01-.12.04-.2h0s.04-.04.04-.04c.09-.07.19-.11.3-.12h.32c.06-.02.14-.02.23,0,.09.09.14.19.14.3l.02.17c.01.07.01.16-.01.23v.04s0,.14,0,.14l.02.26.1-.06c.02-.09.07-.17.15-.26l.02-.04s.07-.05.1-.07l.07-.05.14-.19s.07-.09.11-.12l.1-.09s.11-.07.17-.1h.01l.28-.14h.01c.06-.05.14-.07.21-.09l.23-.04h.15c.11-.01.2.02.27.09.07.07.1.16.12.25v.36s.01.14.01.14c-.01.07-.04.15-.06.21l-.04.09-.21-.04-.15.02-.4.05-.15.07-.22.16-.1.1-.19.17-.1.07-.09.11-.12.21-.02.15-.11.26-.1.15-.12.27v1s0,.28,0,.28v.56s0,.07,0,.1l-.04.27v.11s.01.3.01.3v.33c.01.06.01.15-.01.21l-.02.05-.1.09c-.07.06-.15.1-.22.12h-.31s-.12-.01-.12-.01c-.02,0-.05,0-.09-.01h-.06s-.09-.09-.09-.09c-.05-.05-.09-.15-.07-.26Z"/>
        <path class="cls-1" d="M85.91,60.26l.22-.02c.06-.01.14-.01.21,0l.15-.02.12-.16v-.42s.01-.15.01-.15v-.28s.02-.19.02-.19l-.02-.3s.26-.26.46-.27h.16c.07-.02.15-.01.21,0h.17c.07.11.11.2.11.27l-.02.33v.15s.04.32.04.32v.07s.04.12.04.17v.16s-.02.17-.02.17l.15.11.19.06h.3s.15-.05.15-.05h.26l.15.02h.17s.14.04.14.04c0,0,.25.16.3.26.01.02.01.04.01.07v.26s-.17.25-.3.28h-.06l-.17.02s-.11.01-.16,0h-.04s-.3,0-.3,0h-.15s-.31.02-.31.02l-.14.02-.15.14-.06.11v.16s-.05.23-.05.23l.04.16v.31s.02.14.02.14l.04.28v.14s-.02.23-.02.23v.1l-.02.11-.04.3.02.17v.42s0,.19,0,.19c.02.09.01.16,0,.26v.04l.06.26.1.12.15.21.12.12.23.1h.12s.11,0,.11,0h.15s.14.01.14.01l.28-.06.28-.09s.15.07.23.15c.06.06.06.15.06.23v.14l.05.11v.11c-.02.11-.1.2-.17.25-.05.02-.1.04-.14.05h-.05s-.23.06-.23.06c-.02.01-.07.01-.1.01l-.53.04-.17.02h-.25l-.2-.02c-.06,0-.14-.01-.2-.04h0s-.26-.14-.26-.14h-.04c-.07-.04-.14-.06-.21-.12l-.06-.04s-.07-.09-.11-.12l-.06-.07-.14-.2s-.06-.07-.07-.12l-.09-.21-.02-.06s-.04-.1-.05-.16l-.04-.23v-.07s-.01-.09-.01-.14v-.11s-.01-.11-.01-.11v-.21l.02-.27v-.11s0-.3,0-.3v-.15s.01-.28.01-.28v-.12s-.04-.14-.04-.14c-.01-.06-.01-.14,0-.2v-.06s.01-.31.01-.31v-.16s-.04-.3-.04-.3v-.17s.01-.27.01-.27l-.04-.16-.11-.16-.14.02-.31-.05c-.07,0-.16-.01-.25-.05-.1-.07-.16-.17-.15-.28h0v-.27c-.01-.11.01-.17.06-.22.05-.05.12-.09.23-.11Z"/>
        <path class="cls-1" d="M96.49,60.25l.09.04s.07.04.1.05l.2.12.05.02c.06.02.14.06.19.1l.2.15.11.07.16.16s.05.05.07.09l.06.09.17.32.02.05s.04.07.05.11l.07.21.06.15.09.22s.02.06.02.1l.02.09-.02.31c.02.07.02.16,0,.27v.02l.02.1-.02.28s-.04.06-.09.11c-.07.09-.19.1-.3.11h-.31c-.07.02-.16.04-.23.04l-.2-.02h-.15s-.31-.05-.31-.05l-.15.04-.25-.04-.12.02h-.22s-.09-.01-.12-.02h-.07s-.32.04-.32.04l-.11.02s-.1.01-.15.01h-.2s-.14-.01-.14-.01l-.27.04h-.2l-.27-.05h-.19l-.14.12v.15s-.01.14-.01.14l.04.28.07.11.11.31.07.14.22.2.15.06.26.2.12.05.28.1.16.04.3.02h.14s.01.01.01.01c.09-.02.16-.02.23-.01h.01l.15.04.33-.02.16-.05.3-.02.2-.02.31-.07.28-.14.1-.05s.14.05.21.11c.05.04.07.09.07.16v.26c.01.1-.01.21-.06.3-.05.09-.12.16-.23.21-.02.01-.02,0-.05.01l-.25.07-.14.04-.21.07s-.07.01-.12.02h-.07s-.31.07-.31.07h-.06s-.06.02-.09.02h-.37s-.02.01-.02.01c-.09.01-.17.02-.26,0h-.21s-.11,0-.11,0l-.31-.04-.12-.02-.17-.04s-.09-.01-.12-.04l-.06-.04-.28-.06-.14-.04-.27-.11-.11-.06s-.04-.01-.06-.04l-.2-.14s-.05-.04-.07-.06l-.07-.07-.2-.21-.05-.05s-.05-.06-.07-.09l-.09-.12s-.04-.07-.05-.12l-.02-.05-.15-.25-.06-.12-.11-.25s-.02-.09-.04-.15v-.06s-.11-.3-.11-.3v-.11s-.02-.06-.02-.09v-.36s0-.15,0-.15l-.02-.16h0c-.01-.09-.01-.16,0-.23l.05-.2.06-.15.07-.27v-.04c.01-.09.02-.16.06-.23l.07-.16c.01-.09.05-.16.09-.22l.09-.14.04-.07c.02-.06.07-.11.11-.16l.14-.14.4-.36.1-.07.15-.15s.09-.07.14-.1l.05-.02.26-.1.12-.02.31-.09.14-.04.21-.05c.09-.02.16-.02.23-.01h.04s.14,0,.14,0h.31l.44.06.26.05ZM97.06,62.43l-.07-.26-.04-.14-.12-.26-.06-.12-.17-.19-.15-.12-.27-.14-.14-.05-.26-.02h-.04c-.09,0-.17-.01-.23-.04h-.19s-.12.01-.12.01l-.28.02-.15.06-.26.12-.16.09-.22.23-.06.09-.16.23-.02.17-.05.11-.04.12-.05.17-.04.11.14.15h.46s.12,0,.12,0h.27c.09-.05.17-.06.27-.06h.15l.52.05.23-.04s.11,0,.16.01h.38c.06-.02.14-.01.2,0h.06s.11-.02.11-.02h.19s.12-.11.12-.11l-.02-.2Z"/>
        <path class="cls-1" d="M104.14,64.23l-.2-.09s-.07-.02-.12-.06l-.04-.04-.27-.11-.15-.04-.14-.05-.14-.06-.15-.09-.22-.07s-.09-.04-.14-.07l-.05-.04-.27-.11-.16-.1-.25-.14c-.06-.04-.12-.11-.19-.2l-.05-.06-.06-.12-.09-.2s-.02-.05-.04-.1l-.02-.11-.02-.28-.02-.15v-.35s0-.09.01-.12l.04-.16s.02-.07.04-.11l.04-.09.15-.23.05-.09s.04-.04.06-.06l.1-.09c.07-.07.14-.11.22-.15l.14-.09.14-.06.11-.04.25-.12s.07-.02.1-.04h.07s.3-.02.3-.02h.15s.14.01.14.01l.19-.04h.09s.05,0,.09.01l.26.05.45.11h.11l.21.05s.1.02.15.06l.09.04.07.17s.05.11.06.17v.1s.05.3.05.3c0,0-.15.15-.25.2-.06.02-.11,0-.16-.02l-.19-.06-.12-.02-.26-.09-.16-.02-.31-.07-.12.02-.15-.02h-.15s-.28.05-.28.05l-.16.05-.23.14-.15.11-.11.23v.16s0,.12,0,.12v.16l.16.27.07.07.25.14.17.06.26.16.1.06.17.05.1.06.12.04.3.11.17.06.28.14.1.04.12.09c.09.05.15.12.2.2l.11.09c.06.05.12.1.16.17l.14.23c.05.07.09.14.1.23l.02.16v.16s.02.19.02.19v.2c0,.07,0,.15-.02.23l-.04.09s-.04.1-.07.15l-.02.05-.2.22c-.04.07-.11.14-.19.2l-.26.2-.19.12s-.1.05-.14.06h-.05s-.32.11-.32.11l-.05.02s-.11.04-.17.04l-.23.02c-.07.02-.19.02-.28,0h-.01s-.14,0-.14,0h-.16l-.28-.04-.38-.05h-.1l-.27-.04-.11-.04s-.06-.01-.09-.02l-.22-.09c-.1-.06-.17-.14-.23-.26-.02-.05-.04-.12-.04-.2v-.04l.02-.32.04-.04c.16-.16.38-.15.58-.05l.28.11.16.02.33.06.33.02.14-.05h.2s.12-.02.12-.02l.33-.05.16-.02.26-.12.14-.26-.04-.15v-.02c-.01-.06-.01-.12-.01-.19v-.05s-.02-.15-.02-.15l-.09-.22-.11-.1Z"/>
        <path class="cls-1" d="M108.94,61.35v-.15s-.02-.22-.02-.22v-.1l.02-.12.04-.06c.06-.09.12-.16.22-.22.01,0,.02-.01.04-.02l.15-.06s.12-.04.19-.05h.04s.17-.06.17-.06h.05c.06-.04.14-.05.2-.05h.06l.22-.07s.09-.02.12-.02h.37s.31.02.31.02h.01c.06-.02.15-.02.21-.01h.06s.3.01.3.01h.12s.07.02.1.04l.27.07h.06s.11.05.16.07l.19.11.1.07.21.12s.1.05.14.1l.1.11s.11.12.14.2v.02s.17.27.17.27l.04.05s.06.1.07.15c.04.12.05.2.04.26l.02.16.04.17c.01.06.02.15.01.21h0v.2l.02.11v.43l.04.17v.3l-.02.32v.42s0,.07-.01.12l-.02.07v.28c.02.07.05.15.04.25v.15s-.01.17-.01.17v.28s-.01.16-.01.16v.33s.01.01.01.01c-.01.1-.17.25-.26.28-.02,0-.05.01-.06.01h-.1s-.23.01-.23.01c-.02,0-.07-.01-.1-.01h-.11c-.11-.1-.17-.19-.19-.26l-.02-.3v-.12l-.04-.26h-.1s-.15.11-.15.11l-.17.21-.09.14-.16.16s-.06.04-.09.06l-.23.16s-.06.04-.11.06l-.05.02-.16.06c-.06.02-.12.04-.19.04h-.07l-.32.04h-.17s-.14.04-.14.04h-.05c-.07.01-.16,0-.23-.02l-.16-.05-.15-.06-.22-.07s-.06-.02-.09-.04l-.14-.07-.17-.12s-.09-.05-.12-.1l-.16-.19-.06-.09s-.06-.09-.07-.14l-.07-.19-.02-.07s-.04-.09-.04-.15v-.19s-.02-.12-.02-.12v-.3s-.02-.05-.02-.05c-.01-.1-.01-.17.01-.27l.04-.12c.01-.09.05-.15.1-.21l.09-.14c.02-.07.09-.17.19-.25l.04-.02.09-.12.21-.15.02-.02s.07-.05.11-.06l.23-.1.11-.05.16-.06.06-.04c.06-.04.12-.05.19-.06l.23-.04h.16s.25-.09.25-.09c.04-.01.07-.01.11-.01h.09s.41.02.41.02h.22s.1,0,.14.01l.06.02h.35s.17-.02.17-.02l.14-.04v-.25s-.01-.12-.01-.12l.02-.12-.04-.28-.06-.11-.14-.25-.12-.07-.19-.14s-.06-.05-.09-.09l-.04-.05-.22-.14h-.14l-.3-.06-.17.04h-.16s-.19.01-.19.01l-.26-.02-.16.02-.26.05-.17.05-.25.09-.14.06-.26.11c-.07.02-.15.04-.2.01-.05-.01-.09-.07-.07-.16ZM111.36,65.47l.27-.11.1-.09.19-.17.1-.11.15-.25.05-.07.07-.16c.02-.06.07-.11.12-.17l.02-.02.04-.25v-.15s.05-.16.05-.16l-.14-.14-.2.02h-.22c-.06,0-.12,0-.19-.02h-.05s-.41-.06-.41-.06l-.28.05-.15.04-.28.04-.16.02-.23.11-.12.07-.23.22-.04.14-.1.28.04.15-.02.12.04.17.07.31.2.19.11.06.32.04h.02c.09-.02.17-.01.25.01h.19l.3-.06.14-.05Z"/>
        <path class="cls-1" d="M117.85,60.28h.05c.07-.04.15-.04.22-.04h.27s.22.16.3.3c.01.04.01.09.01.12v.26s-.04.16-.04.16v.26s.05.02.05.02l.11-.12.05-.06c.02-.06.07-.11.12-.16l.14-.14.06-.06s.05-.04.07-.06l.16-.1s.06-.05.09-.06l.1-.04.2-.12s.09-.05.14-.06h.05s.3-.12.3-.12l.06-.02s.06-.02.09-.02l.27-.04h.12s.06-.01.09-.01h.11s.16,0,.16,0h.25s.12.02.17.04h.02s.23.05.23.05c.05.01.1.02.15.05l.31.14.05.02s.11.09.15.14l.04.05s.09.1.11.17v.05s.16.25.16.25l.06.14.09.23h.01c.04.07.05.14.06.22v.17s.02.14.02.14v.59s.01.09.01.14v.38s-.01.14-.01.14v.28s-.01.15-.01.15l.04.26v.14l.02.22v.21s-.01.19-.01.19c0,.07-.01.12-.02.19v.17c.02.1,0,.17-.02.26v.02s-.01.32-.01.32l.02.16-.02.31s-.09.19-.17.25c-.04.02-.07.02-.11.02h-.09l-.17.02c-.07.01-.16,0-.22-.01h-.16l-.04-.05c-.07-.1-.14-.2-.15-.31h0v-.26c0-.06,0-.09.01-.15v-.06s0-.21,0-.21c0-.06-.01-.1,0-.16l.02-.09v-.2s-.01-.07-.01-.1v-.11s0-.3,0-.3l-.05-.2v-.72s.01-.15.01-.15v-.28s-.01-.07-.01-.07v-.12l.02-.12-.04-.15v-.38l-.02-.12-.04-.15-.07-.28-.07-.12-.17-.2-.14-.05-.31-.06-.14-.04h-.12s-.15-.01-.15-.01h-.16l-.25.04-.12.06-.27.1-.11.09-.2.14s-.07.04-.12.06l-.07.04-.21.19-.09.16-.15.25-.02.16-.1.25v.15s-.01.22-.01.22c0,.04,0,.1-.01.14l-.02.09-.04.19v.15s0,.28,0,.28v.14l.02.32v.04c.01.09.01.16,0,.25l-.02.11v.16l-.04.31v.16s0,.28,0,.28l.02.14v.2s-.01.07-.01.11v.11c-.1.1-.22.16-.35.2h-.35c-.06,0-.12-.02-.19-.05l-.06-.02c-.12-.1-.17-.19-.19-.28v-.28s-.02-.1-.02-.1v-.19c-.01-.07,0-.15.02-.23l.02-.05v-.31s-.02-.12-.02-.12v-.26s-.02-.12-.02-.12c0-.04.01-.04.01-.07l.02-.27.02-.16v-.26s-.05-.17-.05-.17v-.26l.02-.2v-.3l-.02-.11v-.22s-.02-.09-.01-.14l.02-.1.04-.27v-.14s-.04-.3-.04-.3v-.15s-.01-.16-.01-.16c-.01-.09,0-.15.01-.21l.04-.32c-.02-.1,0-.17.04-.25.04-.06.11-.09.21-.09Z"/>
        <path class="cls-1" d="M126.87,61.35v-.15s-.02-.22-.02-.22v-.1l.02-.12.04-.06c.06-.09.12-.16.22-.22.01,0,.02-.01.04-.02l.15-.06s.12-.04.19-.05h.04s.17-.06.17-.06h.05c.06-.04.14-.05.2-.05h.06l.22-.07s.09-.02.12-.02h.37s.31.02.31.02h.01c.06-.02.15-.02.21-.01h.06s.3.01.3.01h.12s.07.02.1.04l.27.07h.06s.11.05.16.07l.19.11.1.07.21.12s.1.05.14.1l.1.11s.11.12.14.2v.02s.17.27.17.27l.04.05s.06.1.07.15c.04.12.05.2.04.26l.02.16.04.17c.01.06.02.15.01.21h0v.2l.02.11v.43l.04.17v.3l-.02.32v.42s0,.07-.01.12l-.02.07v.28c.02.07.05.15.04.25v.15s-.01.17-.01.17v.28s-.01.16-.01.16v.33s.01.01.01.01c-.01.1-.17.25-.26.28-.02,0-.05.01-.06.01h-.1s-.23.01-.23.01c-.02,0-.07-.01-.1-.01h-.11c-.11-.1-.17-.19-.19-.26l-.02-.3v-.12l-.04-.26h-.1s-.15.11-.15.11l-.17.21-.09.14-.16.16s-.06.04-.09.06l-.23.16s-.06.04-.11.06l-.05.02-.16.06c-.06.02-.12.04-.19.04h-.07l-.32.04h-.17s-.14.04-.14.04h-.05c-.07.01-.16,0-.23-.02l-.16-.05-.15-.06-.22-.07s-.06-.02-.09-.04l-.14-.07-.17-.12s-.09-.05-.12-.1l-.16-.19-.06-.09s-.06-.09-.07-.14l-.07-.19-.02-.07s-.04-.09-.04-.15v-.19s-.02-.12-.02-.12v-.3s-.02-.05-.02-.05c-.01-.1-.01-.17.01-.27l.04-.12c.01-.09.05-.15.1-.21l.09-.14c.02-.07.09-.17.19-.25l.04-.02.09-.12.21-.15.02-.02s.07-.05.11-.06l.23-.1.11-.05.16-.06.06-.04c.06-.04.12-.05.19-.06l.23-.04h.16s.25-.09.25-.09c.04-.01.07-.01.11-.01h.09s.41.02.41.02h.22s.1,0,.14.01l.06.02h.35s.17-.02.17-.02l.14-.04v-.25s-.01-.12-.01-.12l.02-.12-.04-.28-.06-.11-.14-.25-.12-.07-.19-.14s-.06-.05-.09-.09l-.04-.05-.22-.14h-.14l-.3-.06-.17.04h-.16s-.19.01-.19.01l-.26-.02-.16.02-.26.05-.17.05-.25.09-.14.06-.26.11c-.07.02-.15.04-.2.01-.05-.01-.09-.07-.07-.16ZM129.29,65.47l.27-.11.1-.09.19-.17.1-.11.15-.25.05-.07.07-.16c.02-.06.07-.11.12-.17l.02-.02.04-.25v-.15s.05-.16.05-.16l-.14-.14-.2.02h-.22c-.06,0-.12,0-.19-.02h-.05s-.41-.06-.41-.06l-.28.05-.15.04-.28.04-.16.02-.23.11-.12.07-.23.22-.04.14-.1.28.04.15-.02.12.04.17.07.31.2.19.11.06.32.04h.02c.09-.02.17-.01.25.01h.19l.3-.06.14-.05Z"/>
        <path class="cls-1" d="M135.46,64.14v-.26s-.04-.15-.04-.15v-.16c-.02-.07-.02-.17,0-.25v-.02s.01-.31.01-.31v-.12l.02-.32v-.1s0-.31,0-.31v-.46s-.04-.32-.04-.32v-.43s-.02-.15-.02-.15v-.22s-.01-.1,0-.14l.02-.07v-.2c-.01-.07,0-.16.02-.23h0s-.02-.25-.02-.25v-.21s.02-.26.02-.26v-.17s.01-.3.01-.3v-.15s-.01-.25-.01-.25l-.02-.11v-.3s-.01-.04-.01-.04c0-.05-.01-.1,0-.15v-.1s.05-.02.05-.02c.1-.05.19-.07.26-.07h.15s.25.01.25.01h.09l.1.02s.21.16.27.27c.04.06.02.12.02.17v.25s0,.33,0,.33l.02.14-.02.27v.17s.01.22.01.22v.15l-.02.14v.3s.01.14.01.14v.46l.04.28-.02.36-.02.21v.3s.01.06.01.06c0,.06,0,.12-.01.2v.05s-.01.12-.01.12l.02.15v.36s.01.11,0,.17l-.04.2v.14s.02.3.02.3v.15s0,.27,0,.27v.11s.01.31.01.31v.16s-.01.12-.01.12v.16s.02.14.02.14l.1.26s.02.07.02.1l.02.11.27.16h.15s.19-.01.19-.01c.04,0,.07.01.1.01.22.04.31.21.32.33l.04.21c.01.07.02.11.01.19v.02c-.07.11-.17.2-.28.2h-.02l-.19.04s-.07.01-.11.01h-.11s-.1,0-.1,0h-.04c-.09.01-.17.01-.26-.01l-.26-.04c-.1,0-.22-.04-.32-.1l-.09-.06-.1-.07s-.07-.06-.1-.1l-.15-.19v-.02c-.06-.06-.1-.11-.12-.19l-.04-.09s-.02-.09-.02-.15v-.09s-.01-.31-.01-.31v-.17s-.02-.09-.02-.09c0-.05-.01-.09,0-.15v-.06s.01-.32.01-.32l-.04-.19Z"/>
      </g>
      <g>
        <path class="cls-1" d="M34.21,41.63c-.19,2.48-2.99,5.8-7.01,5.8-2.93,0-5.29-1.21-5.1-6.62-2.61,3.95-6.88,6.75-11.59,6.75-5.8,0-10.51-4.14-10.51-11.4C0,25.19,7.64,15.77,16.94,15.77c3.19,0,5.67,1.27,7.26,1.27,1.85,0,3.63-1.34,5.1-1.34,1.34,0,1.72.96,1.59,2.55l-1.4,21.47c-.13,1.66.06,2.61,1.15,2.61,1.15,0,1.91-1.78,2.8-1.78.38,0,.83.32.76,1.08ZM23.19,28.31l.13-1.91c.32-4.84-2.8-7.39-6.37-7.39-6.05,0-9.3,8.66-9.36,14.91,0,6.5,2.99,8.66,5.99,8.66,4.9,0,9.11-6.75,9.62-14.27Z"/>
        <path class="cls-1" d="M50.13,39.02c0,2.2.51,3.09,2.23,4.2,1.02.64,2.77.96,2.77,2.26,0,.92-.51,1.59-2.23,1.59s-3.73-.16-6.43-.16c-1.82,0-3.44.16-5.45.16-1.53,0-1.98-.7-1.98-1.5,0-1.21,1.12-1.75,1.72-2.26,1.56-1.4,1.82-2.77,1.82-4.4v-17.23c0-1.05-.45-1.53-1.37-1.69-2.17-.25-3.28-.32-3.28-1.43,0-.96.96-2.26,1.53-2.64.83-.38,2.17-.19,2.9-1.05.48-.7.67-3.98,1.43-6.43,1.46-4.55,4.97-8.44,10.32-8.44,4.14,0,6.66,2.36,6.66,4.78s-1.05,4.94-3.41,4.94c-1.21,0-1.47-1.02-2.04-1.94-.96-1.47-1.94-2.84-3.82-2.84-2.17,0-3.38,2.17-3.38,5.1,0,3.82.92,5.64,3.89,5.64,1.15,0,5.29-.26,6.12-.26,1.02,0,1.69.41,1.69,1.62,0,.96-.41,2.45-1.15,3.22-.25.26-.64.38-1.11.38-.76,0-5.86-.29-6.94-.29-.19,0-.48.1-.48.8v17.87Z"/>
        <path class="cls-1" d="M70.1,32.84c-.61.03-.83.16-.83.6,0,2.71,2.48,7.99,9.08,7.99,4.87,0,7.77-2.39,9.46-5.13.35-.45.8-.83,1.18-.83.51,0,.83.51.83,1.66,0,3.85-4.59,10.48-13.66,10.48s-15.48-6.66-15.48-16.02,6.5-17.45,16.28-17.45c8.06,0,12.36,5.77,12.36,11.53,0,1.97-.96,3.12-2.36,3.92-3.79,2.29-12.23,3.09-16.85,3.25ZM76.22,18.25c-4.49,0-7.77,4.52-7.77,9.24,0,.99.32,1.59,1.08,1.59,2.42,0,9.01-.83,11.47-2.52.73-.51,1.08-1.15,1.08-2.04,0-3.57-2.52-6.27-5.86-6.27Z"/>
        <path class="cls-1" d="M103.89,34.05c0,3.6.76,7.42,4.71,7.42,2.01,0,3.54-1.27,4.43-2.2.48-.51.73-.76,1.15-.76.38,0,.86.29.86,1.31,0,.6-.22,1.43-.7,2.26-1.18,2.26-4.08,5.48-9.49,5.48-5.73,0-8.66-3.82-8.66-11.43,0-2.9.41-11.15.41-14.3,0-1.21-.29-1.78-1.24-1.91-2.32-.29-3.69-.45-3.69-1.69,0-.96.35-1.78,1.43-2.29,1.91-.86,3.85-1.94,5.26-3.47,2.42-2.71,2.61-6.15,4.43-6.15,1.02,0,1.69.86,1.69,2.48,0,1.24-.32,6.18-.32,6.4,0,.16.03.25.29.25.54,0,6.78-.32,7.52-.32,1.24,0,2.04.35,2.04,1.85,0,1.08-.61,2.48-1.15,3.06-.19.19-.57.38-1.08.38-.67,0-6.24-.32-7.07-.32-.19,0-.48.06-.51.54-.1,1.15-.29,10.16-.29,13.41Z"/>
        <path class="cls-1" d="M132.78,14.14c8.7,0,16.47,6.34,16.47,17.52,0,10.61-7.26,15.89-16.05,15.89-9.84,0-16.15-6.91-16.15-16.47s6.62-16.94,15.73-16.94ZM125.2,28.47c0,2.77.41,6.4,1.82,9.27,1.78,3.57,4.65,5,7.26,5,3.73,0,7.13-2.68,7.13-9.17,0-3.34-.86-7.2-2.23-9.94-1.85-3.57-4.49-5.32-7.1-5.32-3.73,0-6.88,3.19-6.88,10.16Z"/>
      </g>
    </g>
  </g>
</svg>