<?xml version="1.0" encoding="UTF-8"?>
<svg id="Camada_2" data-name="Camada 2" xmlns="http://www.w3.org/2000/svg" viewBox="0 0 227.03 32.55">
  <defs>
    <style>
      .cls-1 {
        fill: #f0ede8;
      }
    </style>
  </defs>
  <g id="Camada_1-2" data-name="Camada 1">
    <g>
      <g>
        <path class="cls-1" d="M35.93,30.16s0-.07,0-.07h-.03l-5.16-8.98c-.11-.05-.21-.1-.32-.14-.93-.39-1.91-.62-2.92-.69-.2-.01-.4-.02-.61-.02-1.22,0-2.41.24-3.53.71-1.08.46-2.05,1.11-2.88,1.94-.77.77-1.38,1.66-1.83,2.64-.45-.98-1.07-1.87-1.83-2.64-.83-.83-1.8-1.49-2.88-1.94-1.12-.47-2.31-.71-3.53-.71-.21,0-.42,0-.62.02-1.01.07-1.98.3-2.91.69-.12.05-.23.09-.34.15L1.38,30.1h-.01s0,.04,0,.05l-1.36,2.4h14.02l.53-2.45H4.14l4.06-7.07c.69-.24,1.43-.37,2.2-.37,3.68,0,6.67,2.99,6.67,6.67,0,.26-.02.77-.05.77h3.25s-.05-.51-.05-.77c0-3.68,2.99-6.67,6.67-6.67.76,0,1.5.12,2.18.36l4.06,7.08h-10.69l.69,2.45h14.15l-1.35-2.38Z"/>
        <path class="cls-1" d="M11.41,17.44c2.53.19,4.21.92,5.29,1.66,0,0-.01.01-.02.02.67.46,1.26,1.05,1.72,1.72.46-.67,1.05-1.26,1.72-1.72,0,0,0,0,0,0,1.15-.78,2.98-1.54,5.76-1.66.85-.04,1.78-.02,2.81.08l-.52-.92L20.03,2.41l-1.38-2.41-1.38,2.41-7.96,13.88-.66,1.15c1.02-.07,1.94-.07,2.77,0ZM18.64,4.82l6.18,10.77c-.31-.03-.61-.05-.93-.05-1.22,0-2.41.24-3.53.71-.7.3-1.36.68-1.96,1.14-.6-.46-1.26-.84-1.96-1.14-1.12-.47-2.31-.71-3.53-.71-.14,0-.28,0-.42,0l6.15-10.73Z"/>
      </g>
      <g>
        <path class="cls-1" d="M40.67,1.01h6.82v24.81h15.46v6.2h-22.28V1.01Z"/>
        <path class="cls-1" d="M67.29,1.01h6.82v31.01h-6.82V1.01Z"/>
        <path class="cls-1" d="M79.39,16.61v-.09c0-8.82,6.64-16.04,16.17-16.04,5.85,0,9.35,1.95,12.23,4.78l-4.34,5.01c-2.39-2.17-4.83-3.5-7.93-3.5-5.23,0-8.99,4.34-8.99,9.66v.09c0,5.32,3.68,9.75,8.99,9.75,3.54,0,5.71-1.42,8.15-3.63l4.34,4.39c-3.19,3.41-6.73,5.54-12.71,5.54-9.13,0-15.9-7.04-15.9-15.95Z"/>
        <path class="cls-1" d="M112.34,1.01h23.39v6.07h-16.61v6.29h14.62v6.07h-14.62v6.51h16.83v6.07h-23.61V1.01Z"/>
        <path class="cls-1" d="M140.92,1.01h14.18c3.94,0,7,1.11,9.04,3.15,1.73,1.73,2.66,4.16,2.66,7.09v.09c0,5.01-2.7,8.15-6.64,9.61l7.57,11.07h-7.97l-6.64-9.92h-5.36v9.92h-6.82V1.01ZM154.65,16.08c3.32,0,5.23-1.77,5.23-4.39v-.09c0-2.92-2.04-4.43-5.36-4.43h-6.78v8.9h6.91Z"/>
        <path class="cls-1" d="M170.46,16.61v-.09c0-8.82,6.64-16.04,16.17-16.04,5.85,0,9.35,1.95,12.23,4.78l-4.34,5.01c-2.39-2.17-4.83-3.5-7.93-3.5-5.23,0-8.99,4.34-8.99,9.66v.09c0,5.32,3.68,9.75,8.99,9.75,3.54,0,5.71-1.42,8.15-3.63l4.34,4.39c-3.19,3.41-6.73,5.54-12.71,5.54-9.13,0-15.9-7.04-15.9-15.95Z"/>
        <path class="cls-1" d="M203.42,1.01h23.39v6.07h-16.61v6.29h14.62v6.07h-14.62v6.51h16.83v6.07h-23.61V1.01Z"/>
      </g>
    </g>
  </g>
</svg>