<?xml version="1.0" encoding="UTF-8"?>
<svg id="Camada_2" data-name="Camada 2" xmlns="http://www.w3.org/2000/svg" viewBox="0 0 223.55 74.98">
  <defs>
    <style>
      .cls-1 {
        fill: #f0ede8;
      }
    </style>
  </defs>
  <g id="Camada_1-2" data-name="Camada 1">
    <g>
      <g>
        <path class="cls-1" d="M120.46,34.42l5.75,10.35,6.04-10.35h6.47c-.35,1.29-.77,2.2-.87,3.58-.32,4.02-.41,12.18.01,16.12.12,1.07.65,1.74.86,2.73l-7.19-.29c-.07-.09.86-1.58.86-1.87v-10.21c-2.26,2.84-3.36,6.7-5.41,9.69-.19.27-.31.78-.77.67-.64-.16-4.96-9.61-6.18-10.64.28,3.22-.39,7.08,0,10.22.1.87.5,1.41.87,2.15l-6.9.29c.06-1.11.73-1.87.86-3.02.32-2.95.43-14.81-.13-17.42-.16-.72-.7-1.27-.74-2h6.47Z"/>
        <path class="cls-1" d="M169.34,34.42l7.48,12.08c.25,0,.41-1.03.43-1.3.27-3.28.51-8.1-1.44-10.79h7.76c-.07.46-1.15,1.95-1.15,2.16v19.99l-5.33.03-7.89-12.39v10.5c0,.1.99,1.75.86,1.87l-7.19.29c0-.69.6-.95.8-1.64.58-2.08-.01-3.65.04-5.4.11-3.86.65-7.9.32-11.8-.13-1.5-.52-2.43-1.45-3.58h6.76Z"/>
        <path class="cls-1" d="M148.14,34.2c3.6-.45,9.64-.41,11.14,3.66.72,1.95.69,12.97.06,15.02-1.33,4.31-7.01,4.29-10.71,3.97-2.58-.22-5.01-1.22-5.97-3.81-.79-2.14-.79-12.45-.12-14.67.78-2.59,3.01-3.85,5.6-4.18ZM149.28,38.79c-.86.19-1.49.97-1.63,1.82-.24,1.53-.23,8.81.11,10.21.49,2.03,3.14,2.02,4.85,1.64,1.06-.23,1.48-1.12,1.62-2.12.18-1.28.25-9.31-.03-10.27-.48-1.65-3.56-1.59-4.91-1.29Z"/>
        <path class="cls-1" d="M192.14,34.21c4.25-.51,11.09-.28,11.58,5.23.25,2.87.34,9.89-.04,12.64-.7,5.07-7.13,5.09-11.06,4.78-2.52-.2-5.09-1.24-6.02-3.76-.75-2.02-.66-10.61-.45-13.09.31-3.64,2.47-5.38,5.99-5.8ZM192.29,51.88c1.18,1.18,5.2,1.09,5.98-.91.45-1.14.45-8.29.27-9.8-.1-.85-.56-2.03-1.43-2.31-1.43-.47-4.8-.51-5.35,1.3-.35,1.15-.3,8.46-.14,9.94.05.48.34,1.46.66,1.78Z"/>
        <path class="cls-1" d="M88.11,34.42c.19.5-.58,1.07-.58,1.29v7.91l5.46-8.22-.29-.99h8.34c-2.94,2.63-5.25,5.94-7.19,9.37-.03.49,3.68,7.64,4.26,8.66.83,1.43,1.66,2.89,2.92,3.98.12.63-.29.43-.72.44-2.02.06-4.59-.64-6.75-.3.41-1.26-3.41-8.62-3.88-8.62l-2.15,2.73c.06,2.06-.42,4.11.86,5.89l-7.19.29c.09-1.18.75-1.74.87-3,.38-3.87.42-13.15-.01-16.98-.1-.9-.44-1.66-.86-2.44h6.9Z"/>
        <path class="cls-1" d="M222.11,34.99v5.46c-1.71-1.22-7.49-2.78-9.08-1.46-.58.48-.55,1.68-.26,2.32.87,1.92,7.3,2.15,9.29,5.08,2.11,3.12,1.31,8.09-2.25,9.73-2.95,1.35-9.39,1-12.36-.29v-5.32c3.11,1.26,7.19,3.44,10.21.86,1.6-3.3-5.33-4.21-7.3-5.35-2.82-1.64-4.02-4.77-3.05-7.88,1.72-5.55,10.48-4.16,14.81-3.16Z"/>
        <path class="cls-1" d="M141.16,14.29l4.03,7.77,4.03-7.77h4.17c-.06.92-.49,1.45-.59,2.43-.28,2.76-.26,8.75.01,11.52.08.82.48,1.38.58,2.16h-4.89c-.15-.52.58-1.29.58-1.58v-7.05l-3.88,7.48-3.88-7.48v7.33c0,.23.53.95.58,1.29h-5.18c.15-.5.6-.93.73-1.43.42-1.66.37-10.55.14-12.53-.09-.83-.63-1.33-.58-2.15h4.17Z"/>
        <path class="cls-1" d="M107.37,30.39h-4.46c-1.24-1.24-1.46-4.03-2.41-5.29-.24-.32-1.43-.3-1.47-.01-.01,1.88-.21,3.65.87,5.3h-5.18c.06-.92.49-1.45.59-2.43.27-2.65.3-9.21,0-11.81-.09-.79-.51-1.15-.58-1.86h7.62c.9,0,2.78,1.05,3.31,1.87.9,1.39.87,5.72-.15,7.04-.4.52-1.28.64-1.29,1.28.96,2.03,1.66,4.21,3.17,5.91ZM99.03,17.45c.06,2.98-.91,5.48,3.17,3.89.96-3.18.23-4.37-3.17-3.89Z"/>
        <path class="cls-1" d="M199.11,30.39h-4.89l-2.43-5.66-1.04.37c-.01,1.86-.11,3.53.59,5.29h-4.89c-.05-.82.49-1.32.58-2.15.3-2.57.27-8.92,0-11.53-.1-.98-.53-1.51-.59-2.43h7.33c.65,0,2.51.81,3,1.32,1.4,1.46,1.62,5.53.61,7.17-.27.45-1.11.86-1.31,1.29-.55,1.2,2.15,5.2,3.02,6.32ZM190.77,21.76c4.81.95,4.83-5.34,0-4.31v4.31Z"/>
        <path class="cls-1" d="M80.63,30.39c.26-1.06.76-1.52.88-2.72.24-2.49.28-8.51,0-10.95-.1-.88-.73-1.5-.58-2.44h7.05c.11,0,1.79.47,2.03.56,2.14.86,2.57,2.62,2.73,4.75.17,2.29.36,7.51-1.16,9.22-.67.75-2.64,1.58-3.6,1.58h-7.33ZM85.23,27.23c1.06.01,3,.17,3.53-.93.33-.7.36-7.03.06-7.69-.54-1.19-2.46-1.27-3.59-1.15v9.78Z"/>
        <path class="cls-1" d="M176.32,14.36c3.18-.53,7.05-.24,7.93,3.44.46,1.93.48,8.94-.53,10.58-1.94,3.15-9.87,2.91-10.92-1.13-.35-1.34-.31-8.09,0-9.51.33-1.58,1.92-3.1,3.54-3.37ZM176.75,26.87c1.08.59,3.49.7,3.9-.71.22-.77.19-6.16.04-7.11-.36-2.31-3.81-2.43-4.23-.53-.22.99-.2,7.85.29,8.35Z"/>
        <path class="cls-1" d="M120.89,30.39c1.22-4.12,3.28-8.98,3.89-13.21.13-.87.29-1.62-.08-2.47.14-.83,5.29-.24,6.26-.42-.34,1.92.17,3.47.6,5.3.85,3.66,2.06,7.32,3.43,10.81h-5.18c.58-1.07.74-2,.29-3.16h-4.17c-.87.82-.34,2.16-.14,3.16h-4.89ZM129.23,24.06l-1.29-4.6-1.58,4.6h2.87Z"/>
        <path class="cls-1" d="M111.11,34.42c-.33.6-.86,1.34-1.01,2.01-.39,1.72-.38,17.2.08,18.62.09.28,1.3,1.78.78,1.8-2.39-.52-4.93-.31-7.32,0,.12-1.34.99-2.19,1.15-3.59.41-3.63.29-11.23.01-14.97-.12-1.61-.63-2.42-1.16-3.87h7.48Z"/>
        <path class="cls-1" d="M118.3,14.29v3.74c-1.59-.89-3.44-.5-5.18-.58v3.17s4.6-.29,4.6-.29v3.45s-4.6,0-4.6,0v3.45h4.74c.23,0,.79-.77,1.29-.57v3.74s-10.35,0-10.35,0c.38-.71.52-1.34.59-2.15.35-4.39-.08-9.56-.3-13.96h9.2Z"/>
        <path class="cls-1" d="M222.69,14.29v3.74c-1.59-.89-3.44-.5-5.18-.58v3.17s4.31-.29,4.31-.29v3.45s-4.31,0-4.31,0v3.45h4.74c.23,0,.79-.77,1.29-.57v3.74s-10.06,0-10.06,0c.5-3.92.3-7.97.27-11.95,0-.59.29-1.14.28-1.69-.02-.78-.62-1.63-.55-2.47h9.2Z"/>
        <path class="cls-1" d="M210.9,14.58v4.03c-6.6-3.32-7.19.44-6.61,6.18.4,3.94,3.91,2.4,6.61,1.59v3.73c-3.55.39-9.79,1.35-10.35-3.59-.21-1.87-.16-5.56-.01-7.49.45-6.03,5.9-4.85,10.36-4.45Z"/>
        <path class="cls-1" d="M170.64,14.29v3.74c-1.72-.68-3.35-.63-5.18-.58v3.45s4.03-.29,4.03-.29v3.74s-4.02-.29-4.02-.29v4.46c0,.12.85,1.46.86,1.87h-5.46c.51-.89.78-1.68.87-2.72.25-2.81.26-8.43-.01-11.23-.08-.82-.48-1.38-.58-2.16h9.49Z"/>
      </g>
      <g>
        <g>
          <g>
            <path class="cls-1" d="M52.04,24.26l-1.02-1.84c2.25.36,3.54,2.77,2.68,4.88l4.48,2.39-1.02.92c1.53-.32,3.35-1.96,4.8-.4.94,1.02.31,2.01.34,2.97.01.36.32.65.38,1.03.23,1.56-1.12,2.84-2.45,3.36-.23-.28,1.1-1.58.21-1.84.18.96-2.85,3.06-3.28,2.66l.82-2.86-3.07,1.23c.23-1.07.67-2.07,1.43-2.86l-3.68.41,1.22-1.53c-2.48-1.84-6.03-2.55-9.08-2.13-.29.04-2.13.64-1.44,1,.27.03.55.08.78.23.91.58,2.85,5.09,3.64,6.38,1.36,2.22,2.86,4.82,5.48,2.19.11.69-.25,1.12-.61,1.64l2.05-.41c.03,1.49-1.05,1.67-1.72,2.47-.38.45-.55,1.15-1.04,1.62-.36.35-2.42,1.49-2.76,1.23l1.23-1.84c-1.48.64-2.67,1.06-4.3.61l1.78-1.37.26-.47c-1.88.15-3.76-.14-5.11-1.54-.04-.54.08-.21.35-.14,1.25.31,2.07.42,3.13-.51.4-1.6-2.43-4.9-3.89-5.48-2.5-1-5.01.76-7.57-.11l1.64-1.12,1.02-1.33c-2.12.89-4.35.28-6.34-.62-.56-.58,1.49-.39,1.72-.42.93-.14,2.71-1.25,2.98-2.23-3.12.58-6.3-.95-9.21-1.95,1.58-.27,3.24-.94,4.83-1.1,1.85-.19,4.06.48,5.6-.74-2.79-.1-4.7-2.1-6.22-4.21-.14-.19-.68-.83-.53-1,1.98.5,3.51,2.11,5.62,2.26.22.02.78.13.72-.21-4.09-1.53-6.53-5.34-10.85-6.45-.85-.22-1.48-.23-2.29-.37-.21-.03-.81-.05-.77-.35,2.72-1.09,5-1.53,7.64.03,2.68,2.31,5.64,4.18,8.94,5.49-.95-2.2-3.39-3.29-5.12-4.8-2.15-1.89-4.77-4.42-4.6-7.47,2.21,2.27,4.84,4.51,7.61,6.1,3.09,1.77,6.61,2.42,9.66,4.25,1.92,1.15,3.46,2.72,4.93,4.38ZM52.04,27.73c-2.49-2.11-5.6-4.76-9-4.91l1.3.65c1.59,1.03.73,2.72,1.77,3.96,1.23,1.47,4.25.38,5.94.3ZM61.45,33.46c-.59-2.12-1.38-2.46-2.86-.71-.09.48.21.27.51.3.84.09,1.53.15,2.35.41Z"/>
            <path class="cls-1" d="M24.12,55.16c-2.39-2.49-4.97-4.74-6.78-7.98-5.75-10.32-.71-24.79,11.57-26.61-2.25-2.19-6.1-1.17-8.64.06-1.66.8-3.88,2.22-4.46,4.03.68-.17,1.24-.49,1.97-.59.23-.03,1.11-.2,1.1.18-2.96,2.1-5.42,5.51-6.7,8.96-.47,1.26-1.04,2.85-.97,4.14.34-.29,1.95-2.17,2.35-1.84-1.46,4.09-1.38,8.88.82,12.68.58.4.2-2.46.81-2.45.75,2.84,3.71,6.1,6.7,9.41h2.22Z"/>
            <path class="cls-1" d="M29.24,62.16c-.09.01-.18.02-.28.02s-.19-.01-.28-.03c-.06.01-.13.02-.19.02-.2.1-.39.21-.58.33-.03.02-.06.04-.09.05,1.25,2.2,1.71,4.26.62,6.08,1.66-.83,2.59-2.78.8-6.48Z"/>
            <path class="cls-1" d="M47.6,54.83c.21-.13.47-.2.78-.2.02,0,.03,0,.05,0-1.83-2.35-4.22-4.4-6.27-5.64-5.71-3.46-18.93-6.19-14.5-15.45l1.57-1.91c-4.34,2.07-4.29,7.88-1.43,11.26,4.08,4.83,10.23,5.63,15.15,10.23,1.3.24,2.56,1.06,3.26,2.2.16-.12.35-.2.58-.24.12-.07.26-.11.42-.14.12-.06.26-.09.4-.11Z"/>
            <path class="cls-1" d="M51.09,64.89c-1.09-.49-2.42-.99-3.37-1.7-.07-.05-.14-.12-.2-.18-.1,1.24-.35,2.63-.76,4.29l4.36-1.54c.07,0,.12-.32.17-.8-.06-.02-.13-.04-.19-.07Z"/>
            <path class="cls-1" d="M53.68,53.56s.02,0,.03-.01c.16-.07.31-.14.48-.2.46-.16.98-.18,1.47-.18.02,0,.05,0,.07,0,.52-1.57,1.84-2.63,3.89-2.32-1.62-1.77-4.46-1.11-5.7.75-.43.65-.61,1.34-.71,2.03.15-.05.32-.08.48-.08Z"/>
            <path class="cls-1" d="M39.07,53.42s.06-.02.08-.02c.18-.14.41-.25.68-.28.14-.06.29-.1.46-.12.02-.05.04-.11.05-.16-.11-.57-4.18-3.21-4.47-3,.24,1.24-1.88,2.68-2.02,3.22,0,.02,0,.07,0,.13.01-.01.02-.03.03-.04.24-.24.53-.44.84-.59.12-.07.23-.12.36-.15.18-.15.4-.25.61-.32.39-.13.81-.03,1.16.15.26.14.49.41.62.69.4.16.81.45,1.19.51.13.02.27,0,.41-.02Z"/>
            <path class="cls-1" d="M37.79,65.38c.07.05-.46-.22-.49-.23-.13-.06-.26-.09-.38-.16-.37-.2-.8-.36-1.14-.58-.64-.43-1.23-.89-1.96-1.08-.21-.05-.39-.14-.54-.25-.08-.03-.16-.07-.23-.12-.1-.03-.19-.07-.27-.12-.66,0-1.3-.11-1.89-.36l.27,1.53c.12.7.05,1.43-.21,2.09l-.5,1.28c2.95.78,5.62.58,7.55-1.88-.08-.03-.15-.07-.22-.13Z"/>
            <path class="cls-1" d="M46.19,63.09c-.7.44-1.67.9-3.26,1.04-.06.08-.12.15-.2.21-.09.07-.17.15-.25.24,0,0,0,0,0,.01-.18.25-.36.51-.57.74-.5.57-1.23.88-1.98.88-.22,0-.43-.05-.61-.13-1.1,1.31-2.83,2.81-5.2,2.93-1.28.07,6.65-.01,7.88.25,2.38.5,4.1-2.51,4.32-4.34.04-.31.21-1.75-.12-1.81Z"/>
            <path class="cls-1" d="M30.68,47.19c.18-.06.32.01.49.07.2.07,3.17,1.64,3.35,1.78s.34.22.34.49c-.43,2.56-3.54,4.18-5.86,2.97.03-.66.17-1.27.12-1.95-.03-.42-.37-1.06-.35-1.23.02-.14,1.76-1.63,1.92-2.13Z"/>
            <path class="cls-1" d="M30.11,54.79c.35-.17.71-.21,1.07-.32.59-.2,1.14-.64,1.74-.89.03-.01.06-.02.09-.03,0,0,0-.02,0-.03-1.42.67-3.13.52-4.57.04l-1.76,1.68s.02.01.02.02c.04.02.08.04.12.06.03,0,.06,0,.09,0,.81,0,1.63,0,2.44,0,.22-.15.46-.39.76-.53Z"/>
            <path class="cls-1" d="M24.23,44.54l2.13-1.22,3.08,2.83c.35.56-.61,1.53-1.03,1.84-1.46,1.07-3.68,1.12-4.75-.51.5-.93.59-1.91.58-2.94Z"/>
            <path class="cls-1" d="M27.89,49.63c.7,1.99-.11,3.62-1.94,4.51-.4,0-4.4-3.9-4.4-4.4l1.36-1.11c1.41.98,3.32,1.94,4.98,1.01Z"/>
            <path class="cls-1" d="M23.17,44.73c.51,1.14-1.31,4.42-2.52,4.07-.62-.19-3.35-5.52-3-5.91l1.3-.38c1.2,1.15,2.46,2.16,4.21,2.23Z"/>
            <path class="cls-1" d="M25.54,28.96c.33.07,1.25.75,1.73.93.31.11,1.25-.04,1.03.4-1.2.51-2.64,2.78-3.78,2.79-2.04,0-3.15-2.31-2.76-4.11,1.11.15,2.75-.21,3.79,0Z"/>
            <path class="cls-1" d="M24.2,39.2c-.07.88,1.63,2.96,1.35,3.47-1.57,1.49-4.65,1.04-5.62-.89l1.42-2.59c.92.44,1.91.14,2.85,0Z"/>
            <path class="cls-1" d="M24.62,34.29l-.73,3.71c-2.2,1.01-4.11-.7-4.38-2.89,1.11-.13,2-.71,2.57-1.64.8.45,1.57.93,2.54.82Z"/>
            <path class="cls-1" d="M20.28,38.62c.71,1.18-1.8,3.37-3.03,3.24-.38-2.35-.26-4.81,0-7.16l1.34.4c.11,1.1.43,2.31,1.11,3.19.14.19.52.24.58.34Z"/>
            <path class="cls-1" d="M28.91,26.71c-2.72.64-5.37,1.99-8.18,1.02-.37-.41,1.83-1.86,2.17-2.02,1.85-.83,4.63-.58,6.01.99Z"/>
            <path class="cls-1" d="M21.12,28.58c-.1.61-.37,1.05-.4,1.71-.05,1.14.69,1.9.19,2.84-.66,1.24-2.36,1.54-3.23.4-.15-.51,1.34-3.74,1.74-4.35.59-.92.64-1.32,1.7-.6Z"/>
            <path class="cls-1" d="M47.54,34.28c2.46,1.39,3.28,4.46,6.13,5.42-1.7,1.43-4.04-1.09-4.87-2.49-.18-.3-1.36-2.81-1.26-2.93Z"/>
            <path class="cls-1" d="M31.98,25.89c-2.23-.7-4.13-2.03-6.55-2.35,2.42-1.72,5.78-.47,6.55,2.35Z"/>
            <path class="cls-1" d="M42.42,17.3c-3-1.24-5.63-3.92-5.52-7.36l2.37,3.66,3.15,3.7Z"/>
            <path class="cls-1" d="M47.12,24.67c.05.93.84,1.54,1.43,2.15-.28.21-.52-.04-.41.51l1.02.2c-1.66.47-2.48-.53-2.46-2.14,0-.44-.17-.85.41-.72Z"/>
          </g>
          <path class="cls-1" d="M70.22,35.76c0,5.9-1.55,11.56-4.44,16.52.03,0,.05-.01.08-.01,1.01-.05,2.03-.18,3.05-.19.09,0,.17,0,.25.02,2.52-4.9,3.95-10.45,3.95-16.34C73.11,16.01,57.1,0,37.35,0S1.59,16.01,1.59,35.76c0,6.99,2.01,13.52,5.48,19.03.35,0,.7-.02,1.05-.02.83,0,1.65.08,2.47.09-3.97-5.53-6.11-12.15-6.11-19.1,0-8.78,3.42-17.03,9.63-23.24,6.21-6.21,14.46-9.63,23.24-9.63s17.03,3.42,23.24,9.63c6.21,6.21,9.63,14.46,9.63,23.24Z"/>
          <path class="cls-1" d="M59.82,59.74c-.54.5-1.09.99-1.66,1.45.18.07.35.17.51.3-.43-.34.15,0,.31.06.32.13.57.27.86.45.38.23.8.37,1.22.52,1.17-1.04,2.27-2.15,3.29-3.33-1.51.17-3.02.45-4.53.55Z"/>
          <path class="cls-1" d="M54.92,66.88c-.53-.23-.94-.66-1.46-.88-.35-.15-.73-.21-1.06-.42-.21-.13-.31-.2-.55-.31-4.45,2.19-9.39,3.35-14.5,3.35s-10.4-1.25-14.99-3.61c-.59.36-1.24.55-1.83.9-.43.26-.88.46-1.34.64,5.32,3.14,11.52,4.96,18.15,4.96s12.41-1.68,17.6-4.63c-.01,0-.02,0-.03-.01Z"/>
          <path class="cls-1" d="M12.97,61.49s.07-.03.11-.04c.19-.17.44-.29.74-.33,0,0,0,0,0,0-.71-.11-1.42-.48-2.11-.55-.04,0-.08-.01-.12-.02.35.36.7.71,1.07,1.05.1-.05.2-.08.32-.11Z"/>
        </g>
        <g>
          <path class="cls-1" d="M7.49,55.43c.2.02,6.3-.05,16.79.4l6.63.2c1.53,2.07,4.09,3.29,5.33,3.79-.96.43-2.76,1.22-4.09,1.81-9.11-.14-20.01-1.02-21.41-1.95l-1.87-2.3-1.38-1.95Z"/>
          <path class="cls-1" d="M40.96,57.3l-3.94,2.14c-.71-.25-4.33-1.64-5.94-4.27-.02-.03-.03-.05-.06-.07,0,0,0,0-.01-.01.67-.28,3.92-1.79,4.59-2.35.43-.35.59-.19.76-.02.02.02,1.63,1.49,2.44,1.42t0,0h0c.49-.05.89.1,1.21.45.52.56.8,1.55.94,2.71Z"/>
          <path class="cls-1" d="M40.67,64.29c-.51.41-1.31.93-1.66.95-.42-.02-3.12-1.45-4.42-2.14-.97-.52-1.49-.79-1.66-.85-.12-.04-.21-.11-.27-.17,1.09-.48,4.25-1.87,4.54-2.02,0,0,0,0,0,0,0,0,0,0,0,0l3.78-2.06c.02.98.04,3.23-.21,5.41-.04.33-.08.63-.12.88Z"/>
          <path class="cls-1" d="M41.6,57.46s0-.03,0-.04c-.14-1.37-.47-2.57-1.11-3.26-.18-.2-.38-.35-.6-.46,1.35-.43,3.89-.73,5.81,2.08.1.46.74,3.64.04,5.16-.45.34-3.09,2.37-3.87,3.34-.29.36-.5.55-.66.65.2-1.23.67-4.64.4-7.42,0-.03,0-.06,0-.06Z"/>
          <path class="cls-1" d="M46.11,61.45c2.7-.38,5.82-.8,8.89-1.2.02.02.04.03.07.05l19.64,9.76c-.15,1.26-.64,4.01-1.54,4.93l-27.3-13.34c.11-.09.19-.15.25-.19Z"/>
          <path class="cls-1" d="M66.5,52.84c1.58-.13,2.02-.22,2.36-.15,0,0-1.12,1.95-1.17,2.02l-1.17,1.75-1.53,1.99c-4.78.61-16.96,2.09-18.51,2.31.47-1.62.04-4.1-.12-4.91,4.47-1.74,15.42-2.63,20.15-3.02Z"/>
          <path class="cls-1" d="M27.19,62.14c-.19,0-.37-.01-.57-.02l-2.73-.09c-.55-.02-7.04-.32-8.55-.43-.3-.04-.59-.09-.88-.15l-3.55,1.61h0c-4.7,2.15-10.01,4.67-10.91,5.38.49,1.55,1.25,3.67,1.67,4.27l15.96-6.25,9.55-4.33Z"/>
        </g>
      </g>
    </g>
  </g>
</svg>