<?xml version="1.0" encoding="UTF-8"?>
<svg id="Camada_2" data-name="Camada 2" xmlns="http://www.w3.org/2000/svg" viewBox="0 0 113.88 113.88">
  <defs>
    <style>
      .cls-1 {
        stroke-width: .99px;
      }

      .cls-1, .cls-2, .cls-3 {
        stroke-miterlimit: 10;
      }

      .cls-1, .cls-3 {
        fill: none;
        stroke: #f0ede8;
      }

      .cls-4, .cls-2 {
        fill: #f0ede8;
      }

      .cls-2 {
        stroke: #c7c7c7;
        stroke-width: .25px;
      }

      .cls-5 {
        opacity: .19;
      }

      .cls-3 {
        stroke-width: .12px;
      }
    </style>
  </defs>
  <g id="Camada_1-2" data-name="Camada 1">
    <g id="VAZADA_BRANCA" data-name="VAZADA BRANCA">
      <circle id="circulo_externo" data-name="circulo externo" class="cls-1" cx="56.94" cy="56.94" r="56.44" transform="translate(-11.89 98.74) rotate(-76.27)"/>
      <circle id="circulo_interno" data-name="circulo interno" class="cls-1" cx="56.94" cy="56.94" r="38.87" transform="translate(-11.89 98.74) rotate(-76.27)"/>
      <g id="bola_fundo" data-name="bola fundo" class="cls-5">
        <path class="cls-3" d="M56.94,92.91c19.87,0,35.98-16.11,35.98-35.98s-16.11-35.98-35.98-35.98S20.96,37.07,20.96,56.94c.02,19.86,16.12,35.95,35.98,35.98ZM56.94,90.52c-2.76,0-5.51-.34-8.18-1.01l-5.24-12.04,5.33-7.33h16.19l5.33,7.33-5.25,12.04c-2.67.67-5.42,1.01-8.18,1.01ZM45.2,53.19l11.74-7.99,11.74,7.99-3.95,14.54h-15.59l-3.95-14.54ZM68.13,88.59l4.42-10.15,11-1.07c-3.95,5.15-9.31,9.04-15.42,11.22ZM85.36,74.79l-13.06,1.27-5.35-7.36,4.09-15.08,9.56-3.1,9.83,8.7c-.37,5.53-2.11,10.89-5.07,15.58ZM90.49,56.06l-8.28-7.34,2.39-10.8c3.69,5.34,5.74,11.65,5.9,18.14h0ZM82.69,35.42l-2.83,12.81-9.62,3.12-12.1-8.23v-10.67l11.31-6.65c5.14,2.07,9.69,5.38,13.24,9.64ZM56.94,23.36c3.23,0,6.44.47,9.54,1.39l-9.54,5.61-9.54-5.61c3.1-.92,6.31-1.39,9.54-1.39ZM44.43,25.79l11.31,6.65v10.67l-12.1,8.23-9.62-3.12-2.83-12.81c3.56-4.25,8.1-7.56,13.24-9.63ZM29.28,37.93l2.38,10.79-8.28,7.34c.16-6.49,2.21-12.79,5.9-18.13ZM23.45,59.21l9.83-8.7,9.56,3.1,4.09,15.08-5.35,7.36-13.06-1.27c-2.96-4.69-4.7-10.04-5.07-15.58ZM41.32,78.44l4.42,10.15c-6.12-2.18-11.47-6.07-15.43-11.22l11.01,1.07Z"/>
      </g>
      <g id="muleta_grande" data-name="muleta grande">
        <path class="cls-4" d="M84.42,41.56c0-.05-.01-.11-.04-.15,0-.06-.02-.11-.05-.16-.05-.18-.14-.36-.27-.5-.05-.08-.11-.15-.18-.22l-13.44-13.44c-.53-.55-1.35-.71-2.05-.42-.06.02-.11.04-.15.08-.06.01-.11.04-.15.08-.12.08-.23.17-.33.27l-3.36,3.36s-.06.07-.09.09c-.03.04-.05.08-.08.12-.02.04-.04.07-.05.11-.03.05-.04.11-.05.16-.01.06-.02.11-.02.17,0,.25.09.5.28.67l.67.68,2.68,2.69,8.07,8.07,2.69,2.68.68.67c.37.37.97.37,1.34,0l3.36-3.36c.07-.07.14-.15.19-.23.04-.06.09-.13.12-.2.05-.07.08-.15.11-.23.05-.11.08-.22.09-.33.03-.12.04-.23.04-.35v-.04c0-.09,0-.19-.03-.28Z"/>
        <path class="cls-4" d="M34.14,74.13c-.22-.23-.55-.32-.86-.26-.19.03-.36.12-.49.26l-.67.68-2.02,2.02c-.37.37-.37.97,0,1.34l2.68,2.69c.37.37.97.37,1.34,0l2.02-2.02.68-.67c.37-.37.37-.98,0-1.35l-2.69-2.69Z"/>
        <rect class="cls-4" x="49.63" y="34.02" width="3.8" height="7.69" transform="translate(-11.68 47.53) rotate(-45)"/>
        <path class="cls-4" d="M62.27,45.9h0s-1.29-1.29-1.29-1.29l-1.28,1.28,3.61,3.61-.52-2.63c-.02-.09-.05-.19-.08-.28-.09-.26-.24-.49-.43-.69Z"/>
        <path class="cls-4" d="M66.35,60.75c-1.18.67-2.41,1.24-3.69,1.69l.2.2,12.84,12.85,2.69-2.69-12.05-12.05Z"/>
        <polygon class="cls-4" points="39.39 44.55 36.71 47.24 47.02 57.56 47.93 53.08 39.4 44.55 39.39 44.55"/>
        <path class="cls-4" d="M65.08,59.34l.16-.16,11.93-11.94-2.68-2.68h0l-9.41,9.41-7.4-7.4c-.18-.18-.28-.42-.29-.67,0-.25.11-.5.29-.67l1.96-1.95h0s6.78-6.79,6.78-6.79l-2.69-2.69-12.11,12.11c-.19.2-.33.44-.43.69-.03.09-.06.18-.08.28l-1.2,6-.11.58-1.15,5.72-.11.57-13.04,13.04,2.69,2.69,12.85-12.85.2-.2.29-.06,5.43-1.08h0l7.15-1.44c.37-.07.72-.25.99-.52ZM60.86,56.63l-.46.09-3.46.69h0l-2.83.56h-.03s-1.37.29-1.37.29l.28-1.39.05-.25.38-1.87.81-4.07s0-.05.02-.08l.02-.08.33-1.67,7.52,7.52-1.25.25Z"/>
        <path class="cls-4" d="M29.57,42.56c.03.08.07.16.11.23.04.07.08.14.12.2.05.08.12.16.19.23l3.36,3.36c.37.37.97.37,1.34,0l.68-.67,2.69-2.68,1.34-1.34,5.38-5.38,1.35-1.35,2.68-2.69.67-.68c.18-.18.28-.42.28-.67,0-.06,0-.11-.02-.17,0-.06-.02-.11-.05-.16-.01-.04-.03-.08-.05-.11-.02-.04-.05-.09-.08-.12-.03-.03-.06-.07-.09-.09l-3.36-3.36c-.1-.1-.21-.19-.33-.27-.04-.04-.1-.06-.15-.08-.05-.03-.1-.06-.15-.08-.71-.29-1.52-.13-2.05.42l-13.44,13.44c-.07.07-.13.14-.18.22-.12.15-.21.32-.27.5-.03.05-.05.1-.05.16-.03.05-.04.1-.04.15-.02.09-.03.18-.03.28v.04c0,.12.01.24.04.35.02.11.05.23.09.33Z"/>
        <path class="cls-4" d="M81.09,74.13c-.13-.14-.31-.23-.49-.26-.31-.07-.63.03-.86.26l-2.69,2.69c-.37.37-.37.98,0,1.35l.68.67,2.02,2.02c.37.37.97.37,1.34,0l2.69-2.68c.37-.37.37-.97,0-1.34l-2.02-2.02-.66-.68Z"/>
      </g>
      <g>
        <polygon class="cls-4" points="53.67 83.56 53.67 83.54 53.6 83.65 53.67 83.56"/>
        <path class="cls-4" d="M50.35,70.99l.24-.18c-.08.06-.16.12-.24.18Z"/>
        <polygon class="cls-4" points="56.94 75.89 53.11 78.5 54.39 83.25 59.48 83.25 60.77 78.5 56.94 75.89"/>
        <path class="cls-2" d="M56.94,67.99c-6.48,0-11.74,5.26-11.74,11.74,0,6.48,5.26,11.73,11.74,11.74,6.48,0,11.74-5.26,11.74-11.74s-5.26-11.74-11.74-11.74ZM54.27,90.35l-1.7-3.91v-.02s1.73-2.39,1.73-2.39h5.28l.71.98,1.03,1.41-1.71,3.93c-.87.22-1.77.33-2.67.33-.9,0-1.8-.11-2.67-.33ZM48.25,86.39l3.59.35,1.44,3.31c-2-.71-3.74-1.98-5.03-3.66ZM50.35,70.99c.08-.06.16-.12.24-.18.7-.5,1.46-.93,2.27-1.25l3.69,2.17v3.48l-3.95,2.69-3.14-1.02-.92-4.18c.54-.64,1.15-1.21,1.81-1.71ZM60.05,69.22l-3.11,1.83-3.11-1.83c1.01-.3,2.06-.45,3.11-.45s2.1.15,3.11.45ZM54.39,83.25l-1.29-4.75,3.83-2.61,3.83,2.61-1.29,4.75h-5.09ZM65.18,77.04l.78-3.52c1.2,1.74,1.87,3.8,1.92,5.92l-2.7-2.39ZM65.34,72.7l-.92,4.18-3.14,1.02-3.95-2.69v-3.48l3.69-2.17c1.68.68,3.16,1.76,4.32,3.14ZM45.99,79.44c.05-2.12.72-4.17,1.92-5.92l.78,3.52-2.7,2.4ZM49.22,77.63l3.12,1.01,1.33,4.9v.02s-.06.09-.06.09l-1.68,2.31-4.26-.41c-.97-1.53-1.53-3.28-1.65-5.08l3.21-2.84ZM62.03,86.74l3.59-.35c-1.29,1.68-3.04,2.95-5.03,3.66l1.44-3.31ZM66.21,85.55l-4.26.41-1.01-1.39-.74-1.02,1.34-4.92,3.12-1.01,1.02.9,2.19,1.94c-.12,1.81-.69,3.55-1.65,5.08Z"/>
      </g>
      <g>
        <path class="cls-4" d="M12.86,51.42l-6.44-1.37.61-2.89c.15-.69.41-1.27.79-1.74.38-.47.84-.8,1.38-1,.54-.2,1.14-.22,1.8-.08.65.14,1.18.41,1.6.81s.71.89.86,1.47c.15.58.16,1.22.01,1.91l-.61,2.89ZM11.95,49.69l.29-1.34c.09-.42.09-.81,0-1.15-.1-.35-.28-.64-.54-.87s-.6-.4-1-.48c-.41-.09-.78-.08-1.12.03s-.62.3-.84.58c-.23.28-.39.63-.48,1.05l-.29,1.34,3.99.85Z"/>
        <path class="cls-4" d="M14.67,43.8l-6.15-2.36,1.76-4.58,1.14.44-1.22,3.19,3.87,1.48,1.27-3.3,1.14.44-1.8,4.7ZM12.6,41.52l-1.11-.42,1.12-2.92,1.11.42-1.12,2.92Z"/>
        <path class="cls-4" d="M17.08,37.82l-5.73-3.24,1.38-2.45c.29-.51.62-.89.99-1.17.37-.27.77-.42,1.2-.44.42-.02.85.09,1.28.33.42.24.74.55.94.92.2.38.28.79.24,1.25-.04.46-.21.94-.49,1.45l-.97,1.72-.27-.92,2.18,1.23-.74,1.31ZM15.79,35.36l-.96.22.93-1.65c.23-.4.31-.75.25-1.05-.06-.3-.25-.54-.56-.71-.32-.18-.62-.22-.91-.12-.29.1-.54.35-.77.76l-.93,1.65-.3-.94,3.25,1.84Z"/>
        <path class="cls-4" d="M19.87,32.81l-3.4-6.34.92-1.17,6.98,1.77-.97,1.24-6.04-1.71.37-.47,3.11,5.46-.95,1.21ZM19.65,30.8l-.67-1.03,2.06-2.63,1.16.39-2.55,3.27Z"/>
        <path class="cls-4" d="M24.99,26.5l-4.48-4.82,2.03-1.89c.66-.61,1.32-.94,1.97-.97s1.24.23,1.75.77c.33.36.54.75.61,1.16.07.42.02.83-.16,1.26-.18.42-.48.83-.91,1.23l-1.45,1.35.03-.94,1.7,1.83-1.1,1.02ZM24.5,23.76l-.98-.07,1.39-1.29c.34-.32.52-.63.55-.93.03-.3-.08-.59-.32-.85-.25-.27-.52-.4-.83-.39-.3,0-.63.17-.97.49l-1.39,1.29v-.99s2.54,2.73,2.54,2.73ZM28.02,23.69l-2.82-.64,1.18-1.09,2.83.63-1.19,1.11Z"/>
        <path class="cls-4" d="M31.3,21.11l-3.04-4.39-1.71,1.18-.71-1.02,4.65-3.22.71,1.02-1.71,1.18,3.04,4.39-1.24.86Z"/>
        <path class="cls-4" d="M34.1,19.09l-.35-7.19,1.33-.66,5.54,4.6-1.41.7-4.72-4.14.53-.27.46,6.27-1.38.69ZM34.77,17.18l-.16-1.21,2.99-1.49.88.85-3.71,1.85Z"/>
        <path class="cls-4" d="M41.36,15.54l-1.81-6.33,1.2-.34,3.93,3.71-.63.18,1.34-5.22,1.19-.34,1.83,6.33-1.36.39-1.21-4.22.25-.07-1.07,4.15-.65.19-3.15-2.95.3-.09,1.21,4.22-1.36.39Z"/>
        <path class="cls-4" d="M50.07,13.33l-.67-6.55,4.88-.5.12,1.22-3.4.35.42,4.12,3.52-.36.12,1.22-5,.51ZM51.16,10.46l-.12-1.18,3.11-.32.12,1.18-3.11.32Z"/>
        <path class="cls-4" d="M56.43,12.76l.37-6.58,1.24.07,3.56,4.95-.6-.03.26-4.73,1.48.08-.36,6.58-1.23-.07-3.57-4.95.6.03-.26,4.73-1.48-.08Z"/>
        <path class="cls-4" d="M65.39,13.67l1.12-5.23-2.03-.43.26-1.21,5.54,1.18-.26,1.21-2.03-.43-1.12,5.23-1.47-.31Z"/>
        <path class="cls-4" d="M72.68,15.89c-.48-.19-.89-.43-1.24-.75-.35-.31-.61-.67-.8-1.07s-.29-.83-.3-1.28c-.02-.45.07-.9.24-1.36.18-.46.42-.85.73-1.17.31-.32.68-.57,1.09-.74.41-.17.85-.26,1.31-.26.46,0,.93.09,1.41.27.48.18.89.43,1.23.75.34.31.6.67.79,1.07.19.4.29.83.31,1.27.02.45-.06.9-.24,1.37-.18.46-.42.85-.74,1.17-.32.32-.68.57-1.09.74-.41.17-.84.25-1.3.26-.46,0-.93-.09-1.4-.27ZM73.14,14.68c.27.1.54.15.8.15.26,0,.52-.06.76-.17.24-.11.46-.26.64-.47s.34-.45.45-.74c.11-.29.17-.58.17-.85,0-.28-.06-.54-.16-.78s-.25-.45-.45-.64c-.2-.18-.43-.33-.7-.43-.27-.11-.54-.15-.8-.15-.26,0-.52.06-.76.17-.24.11-.46.26-.64.47s-.34.45-.45.74c-.11.29-.17.57-.16.85,0,.28.05.54.16.78s.25.45.45.64c.19.18.43.33.7.43Z"/>
        <path class="cls-4" d="M79.82,19.11l3.87-5.33,1.01.73-.5,5.38-.53-.39,4.93-2.16,1,.73-3.86,5.34-1.14-.83,2.58-3.56.21.15-3.93,1.71-.55-.4.38-4.29.25.18-2.58,3.55-1.14-.83Z"/>
        <path class="cls-4" d="M86.95,24.62l4.72-4.59,3.42,3.52-.88.85-2.38-2.45-2.97,2.88,2.46,2.54-.88.85-3.5-3.61ZM89.89,23.69l.85-.83,2.18,2.24-.85.83-2.18-2.24ZM93.18,20.81l1.84-.05,1.09,1.12-2.14-.26-.79-.81Z"/>
        <path class="cls-4" d="M91.35,29.26l5.38-3.79,1.7,2.41c.41.58.65,1.16.74,1.76s.02,1.16-.21,1.69c-.23.53-.61.99-1.16,1.38-.54.38-1.1.59-1.68.63-.58.04-1.13-.09-1.67-.37-.53-.28-1-.71-1.41-1.29l-1.7-2.41ZM93.24,29.76l.79,1.12c.25.35.53.61.85.78.32.17.66.23,1.01.2.35-.03.7-.17,1.04-.41.34-.24.59-.52.74-.84s.2-.66.15-1.01c-.05-.36-.2-.71-.45-1.06l-.79-1.12-3.34,2.35Z"/>
        <path class="cls-4" d="M95.72,35.91l5.81-3.09.71,1.33-5.81,3.09-.71-1.33Z"/>
        <path class="cls-4" d="M98.33,41.81c-.18-.47-.28-.93-.28-1.39,0-.46.08-.89.25-1.3.17-.41.42-.77.74-1.08.32-.32.71-.56,1.17-.75.46-.18.92-.26,1.37-.25.45.01.88.11,1.28.3.4.18.76.44,1.07.78s.56.74.74,1.21c.21.52.3,1.03.28,1.53-.02.5-.15.96-.39,1.38l-1.19-.57c.16-.3.25-.6.27-.9.02-.3-.03-.6-.15-.9-.11-.28-.26-.52-.45-.72-.19-.2-.4-.35-.64-.46-.24-.1-.5-.16-.78-.16-.28,0-.56.06-.85.17-.29.11-.54.27-.74.46-.2.19-.36.4-.46.65s-.16.5-.16.77c0,.27.05.55.17.83.12.3.29.55.5.76.22.21.49.37.82.48l-.49,1.23c-.47-.15-.88-.4-1.23-.75s-.63-.79-.84-1.32Z"/>
        <path class="cls-4" d="M100.21,48.17c-.11-.5-.13-.98-.06-1.45s.22-.88.46-1.26c.23-.38.53-.7.9-.96.37-.26.79-.44,1.27-.55s.94-.12,1.38-.03c.44.08.85.25,1.22.5.37.25.68.57.94.95.26.39.44.83.55,1.32.11.5.13.98.05,1.44-.07.46-.23.87-.46,1.25-.23.38-.53.7-.89.96-.36.26-.79.45-1.27.55-.48.1-.94.11-1.38.03-.45-.09-.85-.25-1.22-.5-.37-.25-.68-.56-.93-.95-.26-.38-.44-.82-.55-1.32ZM101.48,47.88c.06.28.17.54.32.75s.34.4.56.54c.22.14.47.23.75.28.27.04.56.03.87-.03s.57-.18.8-.33.42-.34.56-.56c.14-.22.24-.46.28-.72.04-.26.04-.54-.03-.82-.06-.28-.17-.54-.32-.75-.15-.22-.34-.4-.56-.54-.22-.14-.47-.23-.75-.28-.27-.04-.56-.03-.87.03-.3.07-.57.18-.8.33s-.42.34-.57.56-.24.46-.29.72-.04.54.03.82Z"/>
      </g>
      <g>
        <path class="cls-4" d="M17.96,90.66l4.5-4.22,3.15,3.36-.84.78-2.18-2.33-3.67,3.44-.96-1.03ZM20.5,90.07l.84-.78,2,2.13-.84.78-2-2.13Z"/>
        <path class="cls-4" d="M24.81,97.32c-.38-.3-.67-.64-.9-1.02s-.36-.77-.41-1.19c-.05-.41-.03-.82.09-1.23.11-.41.31-.79.6-1.15.29-.36.61-.64.99-.84s.76-.32,1.18-.36c.42-.04.83,0,1.25.14.42.13.81.34,1.18.64.38.3.67.64.89,1.01.22.38.35.77.41,1.18s.03.82-.08,1.23c-.11.41-.31.79-.6,1.15-.29.36-.62.64-.99.84s-.77.32-1.18.36-.82,0-1.24-.14-.81-.34-1.18-.63ZM25.56,96.36c.21.17.44.29.68.36.24.07.48.09.73.06s.48-.11.71-.24c.22-.13.43-.31.61-.54.18-.23.31-.47.39-.72s.1-.5.08-.74c-.02-.25-.1-.48-.22-.69-.12-.22-.29-.41-.5-.58s-.44-.29-.68-.36c-.24-.07-.48-.09-.73-.06-.25.03-.48.11-.71.24-.23.13-.43.31-.61.54-.18.23-.31.46-.39.71-.08.25-.1.5-.08.74.02.25.1.48.22.69.12.22.29.41.5.58Z"/>
        <path class="cls-4" d="M31.9,102.07c-.42-.23-.77-.52-1.05-.86-.28-.34-.48-.7-.6-1.1-.12-.4-.16-.8-.12-1.22.04-.42.18-.83.4-1.23s.5-.73.83-.99.7-.44,1.1-.55c.4-.1.82-.13,1.25-.07.43.06.86.2,1.27.43.42.23.77.52,1.04.85.28.33.47.7.59,1.1.12.4.16.8.12,1.22-.04.42-.17.83-.4,1.24-.22.4-.5.73-.84.99-.34.26-.71.44-1.1.55s-.81.13-1.24.07c-.43-.06-.85-.2-1.27-.43ZM32.49,101c.24.13.48.21.73.24s.49,0,.73-.06c.24-.07.46-.19.66-.35.2-.17.37-.38.52-.63.14-.26.23-.51.26-.77.03-.26.02-.5-.05-.74s-.17-.45-.33-.65c-.16-.19-.35-.36-.59-.49-.24-.13-.48-.21-.73-.24-.25-.03-.49,0-.73.06-.24.07-.46.19-.66.35-.2.16-.37.38-.52.63-.14.25-.23.51-.26.77-.04.26-.02.51.04.75.06.24.17.45.33.65s.35.36.59.49Z"/>
        <path class="cls-4" d="M37.95,104.82l1.78-4.68-1.82-.69.41-1.09,4.96,1.89-.41,1.09-1.82-.69-1.78,4.68-1.32-.5Z"/>
        <path class="cls-4" d="M42.85,106.55l1.38-6.02,2.9.67c.75.17,1.27.44,1.58.82s.41.79.3,1.26c-.07.32-.21.57-.42.77s-.46.33-.75.39c-.29.07-.61.06-.96-.02l.24-.32c.37.09.69.22.95.41.26.19.44.42.55.7.11.28.12.59.04.94-.12.52-.41.87-.88,1.07-.47.2-1.09.21-1.87.03l-3.07-.7ZM44.46,105.82l1.6.37c.36.08.64.08.85,0,.21-.08.34-.24.4-.5.06-.25,0-.46-.15-.63-.16-.17-.41-.29-.77-.37l-1.7-.39.23-1.01,1.47.34c.33.08.6.08.81,0,.21-.08.33-.24.39-.48.05-.24,0-.43-.15-.59s-.39-.28-.73-.35l-1.37-.31-.9,3.92Z"/>
        <path class="cls-4" d="M49.66,108.04l3.17-5.96,1.39.1,2.26,6.36-1.47-.11-1.82-5.6.56.04-2.63,5.27-1.44-.11ZM51.11,106.82l.45-1.05,3.12.23.3,1.11-3.88-.29Z"/>
        <path class="cls-4" d="M58.18,108.46l-.37-6.16,1.41-.08.3,5,3.05-.18.07,1.16-4.45.27Z"/>
        <path class="cls-4" d="M64.46,107.93l-1.12-6.07,1.39-.25.91,4.93,3-.55.21,1.15-4.39.81Z"/>
        <path class="cls-4" d="M76.55,104.69c-.44.17-.87.26-1.3.27-.43,0-.84-.07-1.22-.23-.38-.16-.72-.39-1.02-.68-.3-.3-.53-.66-.71-1.1s-.25-.86-.25-1.28c0-.42.1-.82.27-1.2.17-.38.41-.71.73-1.01s.69-.53,1.13-.71c.49-.2.97-.29,1.43-.27.46.01.9.13,1.3.36l-.53,1.12c-.28-.15-.57-.23-.85-.25-.28-.02-.56.03-.84.14-.26.11-.49.25-.67.42-.19.18-.33.38-.42.61-.1.23-.14.47-.14.73,0,.26.06.53.17.8.11.27.25.5.43.69s.38.33.61.43c.23.1.47.15.72.15s.52-.05.78-.16c.28-.11.52-.27.71-.48.19-.21.34-.46.44-.77l1.15.45c-.14.44-.37.83-.69,1.16-.33.33-.74.6-1.23.8Z"/>
        <path class="cls-4" d="M80.56,102.75l-3.04-5.38,1.23-.69,2.46,4.36,2.66-1.5.57,1.01-3.89,2.19Z"/>
        <path class="cls-4" d="M88.17,98.02c-.69.52-1.37.74-2.06.64-.68-.09-1.3-.5-1.85-1.22l-2.09-2.75,1.12-.85,2.06,2.71c.36.47.71.73,1.05.79.35.06.69-.04,1.03-.3.34-.26.53-.56.56-.91s-.13-.76-.49-1.23l-2.06-2.71,1.11-.84,2.09,2.75c.55.72.78,1.42.69,2.11s-.48,1.29-1.17,1.81Z"/>
        <path class="cls-4" d="M92.16,94.59l-4.44-4.29,2.07-2.14c.53-.55,1.04-.86,1.52-.94.48-.07.89.06,1.24.39.23.22.38.48.44.75s.05.56-.05.85c-.1.29-.27.56-.51.81l-.14-.37c.27-.28.55-.48.84-.6.3-.12.59-.16.88-.11s.57.2.83.45c.38.37.54.8.46,1.3-.07.5-.39,1.04-.94,1.62l-2.19,2.26ZM92.36,92.84l1.14-1.18c.25-.26.4-.5.45-.72.04-.22-.03-.42-.22-.6-.19-.18-.39-.25-.61-.2-.22.05-.46.2-.71.46l-1.21,1.26-.75-.72,1.05-1.08c.24-.25.38-.48.42-.69s-.03-.41-.21-.58c-.17-.17-.37-.23-.58-.18-.21.05-.44.19-.68.44l-.97,1.01,2.89,2.79Z"/>
      </g>
      <g>
        <path class="cls-4" d="M84.54,55.74c-.58.96-1.12,1.89-1.69,2.81-.12.2-.15.35,0,.54.15.21.25.47.41.67.62.78.86,1.65.73,2.63-.02.15,0,.3,0,.45,0,.02.02.05.04.1h1.11v-7.22h.9v7.2c.42.11.69-.02.99-.26.61-.49.79-1.06.75-1.83-.06-1.3,0-2.62-.03-3.92,0-.19-.11-.4-.22-.55-.15-.21-.4-.36-.55-.57-.38-.53-.88-.64-1.5-.62-1.33.04-2.67,0-4,.02-.37,0-.63-.07-.77-.43-.05-.14-.15-.26-.27-.45.18,0,.31-.02.44-.02,1.06,0,2.11,0,3.17,0,.23,0,.36-.07.48-.27.47-.8.95-1.59,1.5-2.36v2.54c.06.04.08.07.1.07.49-.07.82.16,1.13.51.37.41.79.78,1.16,1.19.12.13.22.34.22.52.02,1.82.02,3.65,0,5.47,0,.18-.09.39-.21.52-.39.43-.81.82-1.23,1.22-.08.08-.21.15-.32.15-1.71,0-3.42,0-5.13,0-.04,0-.07-.02-.14-.04v-.84h1.4c.27-1.24-.02-2.29-.88-3.22-.4.73-1.01,1.36-.89,2.33.08.66.03,1.33,0,2-.01.34.08.6.34.82.19.16.35.36.55.58.35-.44.9-.66.97-1.29h.83c.07.41.07.74-.29,1.05-.52.45-.97.97-1.48,1.49-.6-.61-1.18-1.16-1.73-1.75-.09-.1-.07-.3-.08-.46-.01-.21,0-.42,0-.65h-1.17v1.76c-.55-.47-1.14-.89-.89-1.78-.72,0-1.38,0-2.04,0-.76,0-.81-.04-.98-.89h2.96v-7.77h-2.92c0-.69.21-.91.83-.91.69,0,1.38,0,2.1,0v-2.63s.06-.02.09-.03c1.26,2.09,2.52,4.17,3.81,6.31.34-.56.66-1.08.97-1.6q.44-.74,1.4-.6ZM80.33,62.95c.01-.08.04-.14.03-.2-.23-1.36.28-2.5,1.06-3.55.04-.05.09-.11.09-.16.01-.15.05-.32-.01-.43-.7-1.19-1.41-2.37-2.13-3.55-.04-.06-.1-.11-.16-.19v8.09h1.13Z"/>
        <path class="cls-4" d="M76.32,55.73h.83v6.71h-.83v-6.71Z"/>
        <path class="cls-4" d="M85.18,65.74v-1.55h.81c.29.77-.38,1.05-.81,1.55Z"/>
      </g>
      <g>
        <path class="cls-4" d="M5.57,65.45v-1.06l2.15-2.83c.1-.13.17-.26.23-.39.05-.13.08-.26.08-.37h0c0-.18-.05-.31-.16-.4-.11-.09-.26-.14-.46-.14s-.35.06-.47.19-.2.31-.22.54h0s-1.21,0-1.21,0h0c.04-.6.23-1.06.57-1.39.34-.33.78-.49,1.32-.49.59,0,1.04.14,1.37.43.32.28.48.69.48,1.21h0c0,.29-.05.57-.15.85-.1.28-.24.53-.42.76l-1.54,1.95h2.14v1.14h-3.7Z"/>
        <path class="cls-4" d="M12.09,65.51c-.62,0-1.09-.16-1.4-.48-.31-.32-.47-.75-.47-1.3v-2.85c0-.55.16-.99.47-1.31.32-.32.78-.47,1.4-.47s1.09.16,1.4.47.47.75.47,1.31v2.85c0,.55-.16.99-.47,1.3s-.78.47-1.4.47ZM12.09,64.38c.25,0,.42-.08.53-.25.11-.17.16-.4.16-.69v-2.24c0-.29-.05-.53-.16-.69-.11-.17-.28-.25-.53-.25s-.42.08-.53.25c-.11.17-.16.4-.16.69v2.24c0,.29.05.52.16.69.11.17.29.25.53.25Z"/>
      </g>
      <g>
        <path class="cls-4" d="M103.29,59.19v6.26h-1.18v-4.88l-.76.29v-1.25l.93-.42h1.01Z"/>
        <path class="cls-4" d="M107.95,59.19v.78l-1.4,5.48h-1.28l1.36-5.12h-1.08v.94h-1.18v-2.08h3.58Z"/>
      </g>
    </g>
  </g>
</svg>