<?xml version="1.0" encoding="UTF-8"?>
<svg id="Camada_2" data-name="Camada 2" xmlns="http://www.w3.org/2000/svg" viewBox="0 0 115.84 115.84">
  <defs>
    <style>
      .cls-1 {
        fill: #f0ede8;
      }
    </style>
  </defs>
  <g id="Camada_1-2" data-name="Camada 1">
    <g>
      <path class="cls-1" d="M57.92,2c30.83,0,55.92,25.08,55.92,55.92s-25.08,55.92-55.92,55.92S2,88.75,2,57.92,27.08,2,57.92,2M57.92,0C25.93,0,0,25.93,0,57.92s25.93,57.92,57.92,57.92,57.92-25.93,57.92-57.92S89.91,0,57.92,0h0Z"/>
      <path class="cls-1" d="M57.92,20.74c20.5,0,37.17,16.68,37.17,37.17s-16.68,37.17-37.17,37.17-37.17-16.68-37.17-37.17S37.42,20.74,57.92,20.74M57.92,18.74c-21.64,0-39.17,17.54-39.17,39.17s17.54,39.17,39.17,39.17,39.17-17.54,39.17-39.17-17.54-39.17-39.17-39.17h0Z"/>
      <g>
        <path class="cls-1" d="M46.75,52.57c.02.08.37.38.42.32-.21-.45.21-1.15.21-1.38v-6.68c.49.09,2.41-.26,2.52.33.03.18-.22.82-.21,1.25.26,7.04-.02,14.38,0,21.42,0,1.51-.15,3.47,0,4.9.18,1.7,2.91.72,4.15.72,2.87,0,5.83.37,8.69.23,1.56-.08,3.22-.93,3.31-2.65v-25.68c.11-.78.5-.29.92-.34.31-.03,1.62-.45,1.62.13v7.21s.2.83.42.74l.42-8.17c.49.1,2.18-.42,2.29.21-.1.27-.17.55-.17.84-.09,7.21.03,14.49,0,21.65,0,.98.86,2.23.83,2.51-.04.32-.53.79-.67,1.24-.16.53-.07,1.05-.19,1.5-.69,2.55-2.62,3.58-5.14,3.77l-23.31-.04c-1.72-2.15.36-1.98,1.13-2.62.33-.27.28-2.23.17-2.72-.29-1.22-.89-1.04.05-2.8v-23.13c.13-.78,2.05-.54,2.54-.21v7.42ZM47.61,54.26c0-.3-.25-.55-.55-.55s-.55.25-.55.55.25.55.55.55.55-.25.55-.55ZM69.23,54.25c0-.3-.24-.54-.54-.54s-.54.24-.54.54.24.54.54.54.54-.24.54-.54ZM47.39,55.43h-.65v17.4h.65v-17.4ZM69.03,55.43h-.65v15.27h.65v-15.27Z"/>
        <path class="cls-1" d="M57.56,72.29c-.15.47-2.04.45-2.45.12-.35-.53.06-6.27-.09-7.55s-1.01-1.48,0-3.17l-.12-17.29c-.29-.43-.54-.59-1.05-.65-1.47-.19-8.81-.2-10.1.1-2.48.59-.76,5.39-4.09,4.54l-.32-.32c-.1-2.29-.92-4.61-.77-6.87.2-.35.47-.39.84-.43,5.25-.58,11.78.65,16.99.02,1.3-.16,1.22-1.06,2.96,0l17.5.1.41.62-1.18,6.92c-.46-.05-1.01.07-1.45,0-1.27-.23-.67-4.11-2.64-4.57-1.57-.37-7.62-.24-9.46-.1-.37.03-1.53.17-1.7.42l-.1,17.52c1.02,1.7.15,1.77,0,2.95-.28,2.19.39,5.36.01,7.43-.17.95-1.79.39-2.55.53v-6.89c0-.23-.43-.92-.21-1.38h-.21c.13.33-.21.8-.21.95v7ZM58.21,44.4h-.65v17.61h.65v-17.61ZM57.35,63.7c1.42.15,1.41-1,0-.85v.85Z"/>
        <path class="cls-1" d="M46.75,39.73l-2.41-.03c-1.5-1.17-.31-1.63-.15-2.63.08-.49.12-2.27-.2-2.54-.35-.29-1.33-.25-1.56-.79-.28-.65-.17-1.72.6-1.86h13.16c1.77-1.07,2.01-.15,3.38,0,3.5.41,9.81-1.36,11.46,2.97.33.86.23,1.53.46,2.29.36,1.2,1.1.99.04,2.55l-2.51.03-.21-4.24c-.22-.09-.42.7-.42.74v3.5h-2.55c.72-4.56-2.18-5.29-6.05-4.88-.89.1-1.58.78-1.94.82-.28.03-1.27-.82-1.66-.82h-6.15l-.32.32v4.56h-2.33s-.21-4.24-.21-4.24c-.22-.09-.42.7-.42.74v3.5Z"/>
        <path class="cls-1" d="M57.56,77.7v4.14s.21.62.42.53l.21-4.67,2.52.03.63,1.38c-.86,1.17-.57,2.38-.61,3.75.86.61,1.68.17,1.73,1.51.06,1.77-1.63,1.59-3.04,1.33-.58-.11-1.26-.73-1.53-.73-.35,0-1.13.67-1.71.76-3.47.55-4.44-1.67-1.14-2.88-.07-.74.09-1.57-.02-2.29-.18-1.18-1.18-1.42.15-2.89h2.41Z"/>
      </g>
      <g>
        <g>
          <path class="cls-1" d="M15.24,31.96l3.41-4.91,2.16-.6,2.9,2.01.19,2.24-3.41,4.9-5.25-3.65ZM22.15,30.52l-.07-.92-1.74-1.21-.89.25-1.86,2.68,2.7,1.88,1.86-2.68Z"/>
          <path class="cls-1" d="M22,23.01l4.39-4,1.95-.06,1.32,1.45-.21,1.68,2.13.13.36.4-1.44,1.31-2.47-.24-1.59,1.45,1.24,1.36-1.38,1.26-4.31-4.73ZM27.76,21.85l.08-.66-.42-.48-.67.03-2.35,2.14,1.01,1.11,2.35-2.14Z"/>
          <path class="cls-1" d="M30.4,15.94l6.07-3.5.76,1.31-4.46,2.57.48.84,3.35-1.93.69,1.19-3.35,1.93.51.89,4.54-2.62.76,1.31-6.16,3.55-3.2-5.54Z"/>
          <path class="cls-1" d="M40.61,16.88l1.36-6.57,2.33-.73,4.87,4.61.16.51-1.73.54-3.9-3.86-.24.08-.99,5.4-1.69.53-.16-.51ZM42.58,14.01l3.31-1.04,1.07,1.28-4.53,1.42.15-1.66Z"/>
          <path class="cls-1" d="M50.51,8.02l2.8-.15,1.96,3.39h.26s1.58-3.6,1.58-3.6l2.76-.15.35,6.39-1.79.1-.25-4.4h-.21s-1.61,3.67-1.61,3.67l-1.72.09-2.01-3.46h-.21s.25,4.41.25,4.41l-1.8.1-.35-6.39Z"/>
          <path class="cls-1" d="M69.88,10.74l-2.84-.79.42-1.5,7.48,2.08-.42,1.5-2.84-.79-1.3,4.67-1.8-.5,1.3-4.67Z"/>
          <path class="cls-1" d="M77.6,11.65l6.23,3.22-.7,1.35-4.57-2.36-.44.86,3.43,1.77-.63,1.22-3.43-1.77-.47.91,4.66,2.41-.7,1.35-6.32-3.26,2.94-5.68Z"/>
          <path class="cls-1" d="M82.32,20.75l6.26-2.41,1.87,1.56-1.24,6.59-.35.41-1.39-1.16,1.13-5.37-.2-.16-5.07,2.09-1.36-1.14.35-.41ZM85.8,20.85l2.67,2.22-.5,1.6-3.65-3.04,1.48-.78Z"/>
          <path class="cls-1" d="M95.13,24.27l1.65,2.27-1.78,3.49.15.21,3.87-.62,1.62,2.23-5.17,3.76-1.05-1.45,3.56-2.6-.12-.17-3.95.63-1.02-1.4,1.81-3.57-.12-.17-3.56,2.6-1.06-1.46,5.17-3.76Z"/>
        </g>
        <g>
          <path class="cls-1" d="M14.29,53.36l-.14,6.12-1.08,1.21-1.38-.03-.45-.56-.84.94-1.54-.04-1.1-1.36.15-6.43,6.39.15ZM9.21,58.68l.38.47h.37s.4-.44.4-.44l.08-3.58-1.15-.03-.08,3.57ZM11.7,58.45l.28.35h.46s.29-.33.29-.33l.08-3.28-1.02-.02-.08,3.28Z"/>
          <path class="cls-1" d="M14.3,62.85l1.13,5.83-.97,1.69-1.92.37-1.32-1.06-1.22,1.75-.53.1-.37-1.91,1.5-1.98-.41-2.11-1.81.35-.35-1.83,6.28-1.22ZM12.29,68.38l.52.41.63-.11.32-.58-.6-3.12-1.47.28.6,3.12Z"/>
          <path class="cls-1" d="M10.63,73.7l6.67.66.97,2.24-4.07,5.33-.49.21-.72-1.66,3.43-4.29-.1-.23-5.47-.41-.71-1.63.49-.21ZM13.7,75.36l1.38,3.18-1.16,1.2-1.89-4.36,1.67-.03Z"/>
          <path class="cls-1" d="M16.63,82.9l4.61,2.2.25-.18-2.51-3.55,1.24-.88,4.03,5.7-1.69,1.2-4.63-2.19-.24.16,2.56,3.62-1.24.88-4.08-5.76,1.7-1.2Z"/>
          <path class="cls-1" d="M21.75,90.69l1.16,1.15,2.43-2.43-1.16-1.15,1.05-1.05,3.64,3.63-1.05,1.05-1.16-1.16-2.43,2.43,1.16,1.16-1.05,1.05-3.64-3.63,1.05-1.05Z"/>
          <path class="cls-1" d="M30.27,92.05l1.51,1.09-2.78,3.87,3.47,2.49-.95,1.32-4.99-3.58,3.73-5.19Z"/>
          <path class="cls-1" d="M34.02,100.52l1.46.73,1.53-3.08-1.46-.73.66-1.33,4.61,2.29-.66,1.33-1.47-.73-1.53,3.08,1.47.73-.66,1.33-4.61-2.29.66-1.33Z"/>
          <path class="cls-1" d="M40.14,104.59l4.73-4.75,2.35.66,1.55,6.52-.15.52-1.74-.49-1.16-5.37-.25-.07-3.78,3.98-1.71-.48.15-.52ZM43.36,103.26l3.34.94.2,1.66-4.57-1.29,1.03-1.31Z"/>
          <path class="cls-1" d="M51.75,101.53l2.71.14,2.67,4.63h.21s.25-4.46.25-4.46l1.78.09-.34,6.39-2.71-.14-2.66-4.63h-.22s-.24,4.46-.24,4.46l-1.79-.1.34-6.39Z"/>
          <path class="cls-1" d="M66.59,105.88l2.86-.69.46-.63-.64-2.64-3.02.73-.37-1.51,4.83-1.17,1.16,4.8-1.33,1.82-3.58.87-.38-1.58Z"/>
          <path class="cls-1" d="M74.25,103.98l1.51-.63-1.32-3.17-1.51.63-.57-1.37,4.75-1.98.57,1.37-1.52.63,1.32,3.17,1.52-.63.57,1.37-4.75,1.98-.57-1.37Z"/>
          <path class="cls-1" d="M81.27,100.84l-2.64-4.07,1.56-1.02,2.26,3.49.94.12,1.82-1.18.27-.91-2.26-3.49,1.56-1.02,2.64,4.07-.68,2.29-3.1,2.02-2.37-.3Z"/>
          <path class="cls-1" d="M87.95,93.34l2.73-2.52.99,1.07-2.73,2.52-.99-1.07Z"/>
          <path class="cls-1" d="M93.44,91.23l1.88-2.26v-.78s-2.1-1.73-2.1-1.73l-1.98,2.39-1.2-.99,3.17-3.83,3.8,3.16.02,2.25-2.35,2.83-1.25-1.04Z"/>
          <path class="cls-1" d="M98.44,85.14l.84-1.41-2.95-1.76-.84,1.41-1.27-.76,2.63-4.42,1.27.76-.84,1.41,2.95,1.76.84-1.41,1.27.76-2.63,4.42-1.27-.76Z"/>
          <path class="cls-1" d="M99.91,75.1l-1.05,2.76-1.45-.55,2.77-7.25,1.45.55-1.05,2.76,4.52,1.73-.67,1.74-4.52-1.73Z"/>
          <path class="cls-1" d="M105.24,69.97l.87-4.97-.23-.38-.41-.07-.34.29-.66,3.76-1.39,1.16-1.57-.27-.92-1.55.98-5.58,1.46.26-.84,4.77.23.37.35.06.34-.29.66-3.76,1.39-1.16,1.62.28.92,1.55-1.02,5.79-1.46-.26Z"/>
          <path class="cls-1" d="M106.6,60.27l-4.85.14-.05-1.86,4.16-.12.59-.74-.06-2.16-.63-.7-4.16.12-.05-1.86,4.85-.14,1.6,1.77.11,3.7-1.49,1.86Z"/>
        </g>
      </g>
      <circle class="cls-1" cx="102.21" cy="43.12" r="2.04"/>
      <circle class="cls-1" cx="14.17" cy="43.12" r="2.04"/>
    </g>
  </g>
</svg>