<?xml version="1.0" encoding="UTF-8"?>
<svg id="Camada_2" data-name="Camada 2" xmlns="http://www.w3.org/2000/svg" viewBox="0 0 170.77 40">
  <defs>
    <style>
      .cls-1 {
        fill: #f0ede8;
      }
    </style>
  </defs>
  <g id="Camada_1-2" data-name="Camada 1">
    <g>
      <path class="cls-1" d="M37.26,0H0v40h38.18V0h-.92ZM.92,39.08V8.74h6.53v30.34H.92ZM8.37,39.08v-22.53h6.53v22.53h-6.53ZM15.82,39.08v-14.71h6.53v14.71h-6.53ZM23.28,39.08v-6.91h6.53v6.91h-6.53ZM37.26,39.08h-6.53v-6.91h6.53v6.91ZM37.26,31.28h-13.98v-6.91h13.98v6.91ZM37.26,23.45H15.82v-6.9h21.44v6.9ZM8.37,15.63v-6.9h28.89v6.9H8.37ZM37.26,7.82H.92V.92h36.34v6.9Z"/>
      <g>
        <g>
          <path class="cls-1" d="M65.71,5.8c0,.08-.07.13-.2.14-.13.01-.22-.02-.24-.1-.08-1.42-.51-2.53-1.29-3.32-.78-.79-1.81-1.19-3.1-1.19h-2.46c-.91,0-1.6.07-2.06.2-.46.13-.77.38-.95.73-.17.35-.26.86-.26,1.53v8.83h4.07c1.42,0,2.44-.22,3.04-.67.6-.44.91-1.16.91-2.16,0-.05.08-.08.24-.08s.24.03.24.08l-.04,3.26c0,.78.01,1.37.04,1.77l.04,1.93c0,.05-.08.08-.24.08s-.24-.03-.24-.08c0-1.18-.32-2.03-.95-2.54-.63-.51-1.69-.77-3.16-.77h-3.95v8.78c0,.86.11,1.48.34,1.87.23.39.68.67,1.35.83.67.16,1.73.24,3.18.24.08,0,.12.08.12.24s-.04.24-.12.24c-1.1,0-1.96-.01-2.58-.04l-3.63-.04-2.74.04c-.48.03-1.17.04-2.06.04-.05,0-.08-.08-.08-.24s.03-.24.08-.24c1.02,0,1.77-.07,2.26-.2.48-.13.81-.4.99-.79.17-.39.26-.99.26-1.79V3.75c0-.81-.09-1.4-.26-1.77-.18-.38-.5-.64-.97-.79-.47-.15-1.22-.22-2.24-.22-.05,0-.08-.08-.08-.24s.03-.24.08-.24h16.2c.24,0,.36.12.36.36l.08,4.96Z"/>
          <path class="cls-1" d="M94.32,25.29c0,.16-.03.24-.08.24l-5.11.13c-.67,0-2.02-1.25-3.87-3.48-1.85-2.23-4.06-5.29-6.61-9.19-.73.16-1.48.24-2.26.24-.16,0-.77-.04-1.81-.12v9.15c0,.83.08,1.44.24,1.81.16.38.48.63.95.77.47.13,1.22.2,2.24.2.08,0,.12.08.12.24s-.04.24-.12.24c-.83,0-1.49-.01-1.97-.04l-2.78-.04-2.74.04c-.48.03-1.17.04-2.06.04-.05,0-.08-.08-.08-.24s.03-.24.08-.24c1.02,0,1.77-.07,2.26-.2.48-.13.81-.4.99-.79.17-.39.26-.99.26-1.79V3.61c0-.81-.08-1.4-.24-1.77-.16-.38-.48-.64-.95-.79-.47-.15-1.22-.22-2.24-.22-.08,0-.12-.08-.12-.24s.04-.24.12-.24l1.97.04c1.13.05,2.04.08,2.74.08.59,0,1.14-.01,1.65-.04.51-.03.94-.05,1.29-.08.99-.08,1.89-.12,2.7-.12,2.12,0,3.76.48,4.92,1.45,1.15.97,1.73,2.26,1.73,3.87,0,1.45-.42,2.76-1.27,3.93s-1.97,2.09-3.36,2.76c2.26,3.25,4.16,5.8,5.7,7.64,1.54,1.84,2.91,3.16,4.11,3.97,1.2.81,2.37,1.21,3.53,1.21.05,0,.08.08.08.24ZM76.95,12.32c2.1,0,3.59-.46,4.49-1.37.9-.91,1.35-2.32,1.35-4.23,0-2.1-.46-3.6-1.39-4.51-.93-.91-2.28-1.37-4.05-1.37-1.05,0-1.77.19-2.18.56-.4.38-.6,1.14-.6,2.3v8.46c.67.11,1.46.16,2.38.16Z"/>
          <path class="cls-1" d="M117.5,25.43c0,.16-.05.24-.16.24-.51,0-1.3-.03-2.38-.08-1.08-.05-1.85-.08-2.34-.08-.59,0-1.34.03-2.26.08-.86.05-1.52.08-1.97.08-.11,0-.16-.08-.16-.24s.05-.24.16-.24c.99,0,1.72-.09,2.18-.28.46-.19.69-.51.69-.97,0-.38-.17-.95-.52-1.73l-3.59-7.62h-9.59l-2.54,5.96c-.38.91-.56,1.65-.56,2.22,0,.83.33,1.44.99,1.83.66.39,1.65.58,2.96.58.13,0,.2.08.2.24s-.07.24-.2.24c-.48,0-1.18-.03-2.1-.08-1.02-.05-1.91-.08-2.66-.08-.7,0-1.5.03-2.42.08-.81.05-1.48.08-2.01.08-.13,0-.2-.08-.2-.24s.07-.24.2-.24c.75,0,1.39-.14,1.91-.42s1.02-.78,1.49-1.49c.47-.71.99-1.74,1.55-3.08L102.67.12c.05-.08.15-.12.28-.12s.21.04.24.12l9.51,20.03c.91,1.99,1.69,3.32,2.34,4.01.64.69,1.41,1.03,2.3,1.03.11,0,.16.08.16.24ZM97.87,13.78h8.91l-4.71-9.95-4.19,9.95Z"/>
          <path class="cls-1" d="M150.3,25.43c0,.16-.04.24-.12.24-.83,0-1.49-.01-1.97-.04l-2.78-.04-2.58.04c-.43.03-1.03.04-1.81.04-.05,0-.08-.08-.08-.24s.03-.24.08-.24c.91,0,1.59-.07,2.04-.22.44-.15.74-.41.89-.79.15-.38.19-.97.14-1.77l-.73-18.34-9.19,21.32c-.05.11-.16.16-.32.16-.13,0-.26-.05-.36-.16l-9.91-21.08-.36,16.97c-.03,1.42.21,2.43.73,3.02.51.59,1.41.89,2.7.89.05,0,.08.08.08.24s-.03.24-.08.24c-.75,0-1.33-.01-1.73-.04l-2.18-.04-2.1.04c-.38.03-.91.04-1.61.04-.05,0-.08-.08-.08-.24s.03-.24.08-.24c1.13,0,1.94-.3,2.44-.91.5-.6.76-1.61.79-3l.36-18.7c-.81-1.07-1.91-1.61-3.3-1.61-.05,0-.08-.08-.08-.24s.03-.24.08-.24l1.49.04c.27.03.64.04,1.13.04s.89-.01,1.23-.04c.34-.03.6-.04.79-.04.35,0,.64.13.87.38.23.26.56.83.99,1.71l8.99,18.94,8.78-20.03c.3-.67.7-1.01,1.21-1.01.13,0,.33.01.58.04.25.03.6.04,1.03.04l1.89-.04c.3-.03.74-.04,1.33-.04.08,0,.12.08.12.24s-.04.24-.12.24c-1.34,0-2.3.2-2.88.58-.58.39-.85,1.12-.83,2.2l.81,18.66c.03.83.13,1.44.3,1.81.17.38.49.63.95.77.46.13,1.2.2,2.22.2.08,0,.12.08.12.24Z"/>
          <path class="cls-1" d="M170.45,19.58c.08,0,.15.01.22.04.07.03.1.07.1.12-.24,1.69-.36,3.47-.36,5.32,0,.22-.05.37-.14.46-.09.09-.26.14-.5.14h-16.88c-.05,0-.08-.08-.08-.24s.03-.24.08-.24c1.02,0,1.77-.07,2.24-.2.47-.13.79-.4.97-.79.17-.39.26-.99.26-1.79V3.75c0-.81-.09-1.4-.26-1.77-.18-.38-.5-.64-.97-.79-.47-.15-1.22-.22-2.24-.22-.05,0-.08-.08-.08-.24s.03-.24.08-.24h16.2c.24,0,.36.12.36.36l.08,4.96c0,.08-.07.13-.2.14-.13.01-.22-.02-.24-.1-.08-1.42-.51-2.53-1.29-3.32-.78-.79-1.81-1.19-3.1-1.19h-2.46c-.94,0-1.63.07-2.08.22-.44.15-.75.4-.93.77-.18.36-.26.91-.26,1.63v8.18h4.92c1.29,0,2.21-.21,2.76-.64.55-.43.83-1.15.83-2.18,0-.05.08-.08.24-.08s.24.03.24.08l-.04,3.26c0,.78.01,1.37.04,1.77l.04,1.93c0,.05-.08.08-.24.08s-.24-.03-.24-.08c0-1.18-.29-2.03-.87-2.54-.58-.51-1.54-.77-2.88-.77h-4.8v9.27c0,.75.08,1.3.24,1.65.16.35.46.59.89.73.43.13,1.1.2,2.01.2h3.22c1.29,0,2.36-.46,3.22-1.37.86-.91,1.44-2.18,1.73-3.79,0-.05.05-.08.16-.08Z"/>
        </g>
        <g>
          <path class="cls-1" d="M48.95,39.89l3.32-7.55h.53l3.32,7.55h-.57l-3.13-7.2h.23l-3.12,7.2h-.57Z"/>
          <path class="cls-1" d="M59.47,39.89v-7.55h2.59c.91,0,1.62.22,2.13.67.51.45.77,1.07.77,1.88,0,.52-.12.98-.35,1.35-.23.38-.57.67-1,.87-.43.2-.95.31-1.56.31h-2.3l.24-.26v2.73h-.53ZM60,37.2l-.24-.26h2.3c.78,0,1.36-.18,1.77-.54.4-.36.6-.86.6-1.51s-.2-1.16-.6-1.51c-.4-.36-.99-.53-1.77-.53h-2.3l.24-.27v4.62ZM64.48,39.89l-1.87-2.74h.6l1.87,2.74h-.6Z"/>
          <path class="cls-1" d="M70.22,39.89v-7.05h-2.6v-.5h5.72v.5h-2.6v7.05h-.53Z"/>
          <path class="cls-1" d="M76.7,39.89v-7.55h4.82v.5h-4.29v6.55h4.45v.5h-4.97ZM77.16,36.3v-.48h3.9v.48h-3.9Z"/>
          <path class="cls-1" d="M95.42,40l-3.93-4.33c-.24-.27-.43-.5-.57-.7-.14-.2-.23-.39-.28-.57-.05-.18-.08-.36-.08-.56,0-.31.07-.58.21-.81.14-.23.34-.41.6-.54s.56-.19.9-.19c.32,0,.6.06.84.17s.42.28.55.49c.13.21.2.47.2.77,0,.27-.06.51-.18.74s-.32.45-.6.68c-.28.23-.67.48-1.15.77-.45.27-.81.52-1.07.74-.26.22-.44.44-.55.65s-.16.44-.16.7c0,.29.08.55.24.78.16.22.38.4.65.52.28.12.6.18.97.18.49,0,.93-.11,1.32-.32.38-.21.71-.53.97-.96.26-.43.45-.97.57-1.63l.42.14c-.13.71-.35,1.31-.65,1.78-.3.48-.68.84-1.12,1.08-.45.24-.95.36-1.52.36-.45,0-.86-.08-1.21-.24-.35-.16-.63-.38-.83-.66-.2-.28-.3-.61-.3-.99,0-.31.07-.59.2-.86s.35-.52.64-.79c.3-.26.7-.54,1.2-.84.44-.27.79-.5,1.04-.69.25-.19.43-.38.54-.56.1-.18.15-.37.15-.58,0-.31-.1-.56-.29-.74-.2-.19-.48-.28-.84-.28-.38,0-.68.1-.9.31s-.32.48-.32.81c0,.16.02.31.07.45.05.14.14.3.26.48.13.18.3.39.53.65l3.82,4.21-.31.36Z"/>
          <path class="cls-1" d="M103.87,39.89v-7.55h.44l3.35,6.05h-.24l3.34-6.05h.43v7.55s-.5,0-.5,0v-6.72s.13,0,.13,0l-3.16,5.71h-.26l-3.17-5.71h.15v6.72h-.51Z"/>
          <path class="cls-1" d="M118.83,39.95c-.54,0-1.03-.1-1.49-.29s-.85-.46-1.19-.81c-.34-.35-.6-.75-.79-1.22-.19-.46-.28-.97-.28-1.51s.09-1.05.28-1.51c.19-.46.45-.87.79-1.22.34-.35.74-.62,1.19-.81.46-.19.95-.29,1.49-.29s1.03.1,1.49.29c.46.19.85.46,1.19.8.34.34.6.75.79,1.21.19.46.28.97.28,1.53s-.09,1.06-.28,1.53c-.19.46-.45.87-.79,1.21-.34.34-.73.61-1.19.8-.46.19-.95.29-1.49.29ZM118.83,39.44c.46,0,.89-.08,1.28-.25.39-.17.73-.4,1.02-.7.29-.3.51-.65.67-1.06.16-.4.24-.84.24-1.32s-.08-.92-.24-1.32c-.16-.4-.39-.75-.67-1.05-.29-.3-.63-.54-1.02-.7-.39-.17-.82-.25-1.28-.25s-.89.08-1.28.25c-.39.17-.73.4-1.02.7s-.52.65-.68,1.05c-.16.4-.24.84-.24,1.32s.08.91.24,1.32c.16.4.39.75.68,1.06.29.3.63.54,1.02.7.39.17.82.25,1.28.25Z"/>
          <path class="cls-1" d="M126.46,39.89v-7.55h.53v7.05h4.15v.5h-4.68Z"/>
          <path class="cls-1" d="M134.55,39.89v-7.55h2.85c.76,0,1.43.16,2.01.49.58.32,1.02.77,1.34,1.34.32.57.48,1.22.48,1.95s-.16,1.38-.48,1.95-.77,1.01-1.34,1.34c-.58.32-1.25.48-2.01.48h-2.85ZM135.07,39.4h2.29c.68,0,1.27-.14,1.77-.42.5-.28.89-.67,1.16-1.16.27-.49.41-1.06.41-1.7s-.14-1.21-.41-1.7c-.27-.49-.66-.88-1.16-1.16-.5-.28-1.09-.42-1.77-.42h-2.29v6.55Z"/>
          <path class="cls-1" d="M147.94,39.95c-.89,0-1.6-.27-2.11-.82-.52-.55-.77-1.36-.77-2.44v-4.34h.53v4.32c0,.94.21,1.64.62,2.09s1,.68,1.75.68,1.33-.23,1.74-.68c.41-.45.62-1.15.62-2.09v-4.32h.53v4.34c0,1.08-.26,1.89-.77,2.44-.52.55-1.22.82-2.12.82Z"/>
          <path class="cls-1" d="M155.34,39.89v-7.55h2.59c.91,0,1.62.22,2.13.67.51.45.77,1.07.77,1.88,0,.52-.12.98-.35,1.35-.23.38-.57.67-1,.87s-.95.31-1.55.31h-2.3l.24-.26v2.73h-.53ZM155.87,37.2l-.24-.26h2.3c.78,0,1.36-.18,1.77-.54.4-.36.6-.86.6-1.51s-.2-1.16-.6-1.51c-.4-.36-.99-.53-1.77-.53h-2.3l.24-.27v4.62ZM160.35,39.89l-1.87-2.74h.6l1.87,2.74h-.6Z"/>
          <path class="cls-1" d="M163.61,39.89l3.32-7.55h.53l3.32,7.55h-.57l-3.13-7.2h.23l-3.12,7.2h-.57Z"/>
        </g>
      </g>
    </g>
  </g>
</svg>