<?xml version="1.0" encoding="UTF-8"?>
<svg id="Camada_2" data-name="Camada 2" xmlns="http://www.w3.org/2000/svg" viewBox="0 0 346.03 33.9">
  <defs>
    <style>
      .cls-1 {
        fill: #f0ede8;
      }
    </style>
  </defs>
  <g id="Camada_1-2" data-name="Camada 1">
    <g>
      <g>
        <g>
          <polygon class="cls-1" points="104.02 0 115.32 0 126.62 11.3 132.27 16.95 126.62 22.43 115.32 33.9 104.02 33.9 120.97 16.95 104.02 0"/>
          <polygon class="cls-1" points="134.73 16.95 151.68 0 140.38 0 129.08 11.3 129.08 11.3 134.73 16.95 129.08 22.43 129.08 22.43 140.38 33.9 151.68 33.9 134.73 16.95"/>
        </g>
        <g>
          <path class="cls-1" d="M10.17,0h37.29v6.78H10.17c-1.84,0-3.34,1.55-3.34,3.39v13.56c0,1.84,1.5,3.34,3.34,3.34h27.12c1.79,0,3.44-1.5,3.44-3.34v-3.39h-20.39v-6.78h27.12v10.17c0,5.57-4.55,10.17-10.17,10.17H10.17c-5.57,0-10.17-4.6-10.17-10.17v-13.56C0,4.55,4.6,0,10.17,0Z"/>
          <path class="cls-1" d="M62.52,0h37.29v6.78h-37.29c-1.89,0-3.39,1.55-3.39,3.39v3.39h40.68v6.78h-40.68v3.39c0,1.84,1.5,3.34,3.39,3.34h37.29v6.83h-37.29c-5.62,0-10.22-4.6-10.22-10.17v-13.56C52.31,4.55,56.91,0,62.52,0Z"/>
        </g>
      </g>
      <g>
        <path class="cls-1" d="M163.3,13.55v6.79c0,.92.78,1.67,1.7,1.67h18.69v3.42h-18.69c-2.81,0-5.1-2.3-5.1-5.1v-6.79c0-2.81,2.28-5.1,5.1-5.1h18.69v3.4h-18.69c-.92,0-1.7.78-1.7,1.7Z"/>
        <path class="cls-1" d="M205.98,25.44h-13.57c-2.81,0-5.1-2.3-5.1-5.1v-6.79c0-2.81,2.28-5.1,5.1-5.1h13.57c2.84,0,5.1,2.28,5.1,5.1v6.79c0,2.79-2.26,5.1-5.1,5.1ZM192.41,22.02h13.57c.97,0,1.72-.75,1.72-1.67v-6.79c0-.92-.75-1.7-1.72-1.7h-13.57c-.95,0-1.7.78-1.7,1.7v6.79c0,.92.75,1.67,1.7,1.67Z"/>
        <path class="cls-1" d="M218.11,25.44h-3.4v-14.2c.02-1.55,1.26-2.79,2.81-2.79,1.04,0,1.89.56,2.4,1.38l7.52,12.06,7.55-12.08c.48-.8,1.38-1.36,2.4-1.36,1.53,0,2.79,1.24,2.79,2.79v14.2h-3.4v-12.08l-6.67,10.7c-.51.83-1.38,1.38-2.43,1.38h-.48c-1.02,0-1.92-.56-2.4-1.36l-6.7-10.73v12.08Z"/>
        <path class="cls-1" d="M267.61,13.55v1.7c0,2.81-2.31,5.1-5.1,5.1h-15.29v5.1h-3.4V8.46h18.69c2.79,0,5.1,2.28,5.1,5.1ZM264.21,13.55c0-.92-.78-1.7-1.7-1.7h-15.29v5.1h15.29c.92,0,1.7-.75,1.7-1.7v-1.7Z"/>
        <path class="cls-1" d="M293.28,25.44h-3.93l-3.08-5.1h-11.65l-3.08,5.1h-3.93l9.2-15.34c.58-.97,1.67-1.65,2.91-1.65h1.46c1.24,0,2.33.68,2.91,1.65l9.2,15.34ZM284.23,16.95l-3.06-5.1h-1.46l-3.06,5.1h7.57Z"/>
        <path class="cls-1" d="M316.09,8.46h3.42v14.03c-.02,1.63-1.36,2.96-2.99,2.96-.66,0-1.31-.24-1.8-.63l-15.63-12.47v13.1h-3.4v-14.03c0-1.65,1.33-2.96,2.99-2.96.66,0,1.29.22,1.8.63l15.6,12.47v-13.1Z"/>
        <path class="cls-1" d="M335.69,17.7v7.74h-3.42v-7.74l-10.34-9.25h5.1l6.94,6.21,6.96-6.21h5.1l-10.34,9.25Z"/>
      </g>
    </g>
  </g>
</svg>