<?xml version="1.0" encoding="UTF-8"?>
<svg id="Camada_2" data-name="Camada 2" xmlns="http://www.w3.org/2000/svg" viewBox="0 0 103.27 40">
  <defs>
    <style>
      .cls-1 {
        fill: #f0ede8;
      }

      .cls-2 {
        opacity: .1;
      }
    </style>
  </defs>
  <g id="Camada_1-2" data-name="Camada 1">
    <g>
      <g>
        <path class="cls-1" d="M48.44,32.2c.07-.24.13-.54.19-.89.06-.35.11-.79.15-1.32.05-.52.08-1.15.1-1.87.02-.72.03-1.57.03-2.54v-11.13c0-.97-.01-1.82-.03-2.54-.02-.72-.06-1.35-.1-1.88-.05-.53-.1-.97-.15-1.33-.06-.35-.12-.65-.19-.89v-.07h4.09v.07c-.07.24-.13.54-.2.89-.06.35-.11.8-.15,1.33-.04.53-.07,1.16-.1,1.88-.03.72-.04,1.57-.04,2.54v11.13c0,.97.01,1.82.04,2.54.03.72.06,1.35.1,1.87.04.52.09.96.15,1.32.06.35.13.65.2.89v.07h-4.09v-.07Z"/>
        <path class="cls-1" d="M77.41,11.51l-.15.07c-.89-.82-1.96-1.48-3.21-1.97-1.25-.49-2.62-.74-4.11-.74s-2.75.23-3.95.68c-1.2.45-2.23,1.1-3.09,1.96-.86.86-1.53,1.9-2.01,3.15-.48,1.24-.72,2.66-.72,4.24,0,1.74.23,3.37.68,4.88.46,1.51,1.13,2.82,2.04,3.93.9,1.11,2.03,1.98,3.38,2.61,1.35.63,2.93.95,4.73.95.65,0,1.3-.07,1.95-.21.65-.14,1.27-.34,1.87-.61.6-.27,1.16-.59,1.69-.97.53-.38,1.01-.82,1.45-1.31l.19.12-1.37,3.49c-.86.33-1.8.58-2.83.76-1.03.18-2.07.27-3.12.27-2.11,0-4.04-.31-5.79-.92-1.75-.61-3.26-1.47-4.52-2.59-1.26-1.12-2.24-2.46-2.94-4.03-.7-1.57-1.05-3.31-1.05-5.23,0-1.08.14-2.15.42-3.2.28-1.05.69-2.05,1.22-2.99.54-.95,1.2-1.82,1.98-2.61.79-.79,1.68-1.48,2.69-2.06,1.01-.58,2.12-1.03,3.34-1.36,1.21-.32,2.53-.49,3.94-.49,2.2,0,4.24.34,6.12,1.01l1.16,3.16Z"/>
        <path class="cls-1" d="M98.58,32.27v-.07c.02-.06.04-.14.05-.26.01-.11.02-.22.02-.31,0-.35-.05-.74-.15-1.17-.1-.43-.28-.96-.56-1.6l-2.07-4.65c-.64-.02-1.49-.03-2.55-.03h-6.05c-.84,0-1.59.01-2.27.03l-1.97,4.52c-.17.42-.35.88-.55,1.39-.19.5-.29,1.01-.29,1.52,0,.15.01.27.03.37.02.1.05.16.07.2v.07h-3.49v-.07c.21-.22.46-.6.77-1.15.31-.55.64-1.25,1.01-2.08l9.8-21.74h1.37l9.29,20.9c.22.49.44.97.68,1.43.23.46.45.88.66,1.24.21.37.39.67.55.92.16.25.27.41.32.48v.07h-4.69ZM87.5,22.71c.66,0,1.34,0,2.04,0,.7,0,1.38-.01,2.04-.02.67,0,1.31-.01,1.92-.02.62,0,1.17-.01,1.68-.03l-4.81-10.86-4.72,10.93h1.85Z"/>
      </g>
      <g>
        <g class="cls-2">
          <path class="cls-1" d="M19.96,40C8.93,40.02,0,30.97.03,19.96.06,8.94,9,0,19.96,0c11.06,0,19.97,9.04,19.93,20.09-.05,10.98-8.96,19.92-19.93,19.91ZM24.44,2.85c-.07-.02-.11-.04-.15-.05-1.06-.26-2.13-.46-3.22-.49-.86-.03-1.73,0-2.59.03-.92.03-1.81.22-2.71.43-.07.02-.13.05-.2.08.05.05.09.11.14.15,1.83,1.41,2.98,3.25,3.42,5.51.2,1.05.21,2.1.03,3.16-.29,1.76-1.03,3.32-2.23,4.63-1.51,1.65-3.38,2.62-5.61,2.9-1.48.19-2.91,0-4.3-.52-1.61-.61-2.93-1.63-3.96-3.01-.05-.07-.12-.14-.2-.24-.78,3.08-.79,6.09,0,9.16.15-.19.26-.34.38-.48,1.71-2.11,3.94-3.24,6.65-3.36,2.13-.09,4.06.51,5.76,1.8,2.05,1.56,3.23,3.63,3.57,6.18.12.91.09,1.83-.09,2.74-.29,1.55-.92,2.95-1.96,4.14-.45.52-1,.96-1.5,1.43-.04.03-.07.07-.1.11.05.03.09.07.14.08.25.06.49.12.74.16.77.11,1.54.26,2.32.31,1.24.08,2.49.07,3.72-.15.61-.11,1.23-.24,1.84-.36.08-.02.16-.06.24-.09-.07-.06-.13-.13-.2-.19-1.65-1.22-2.78-2.81-3.36-4.78-.4-1.37-.47-2.75-.21-4.16.24-1.34.76-2.56,1.56-3.66.68-.93,1.5-1.7,2.47-2.33,1.04-.67,2.17-1.09,3.39-1.29.88-.14,1.76-.14,2.65-.02.9.13,1.77.37,2.59.77,1.38.66,2.53,1.61,3.43,2.85.04.05.09.09.14.13.03-.06.06-.12.08-.18.11-.58.25-1.17.32-1.76.09-.84.17-1.69.18-2.54.02-1.08-.08-2.16-.29-3.22-.09-.44-.19-.88-.3-1.38-1.82,2.39-4.13,3.75-7.1,3.83-2.98.09-5.41-1.07-7.3-3.36-2.87-3.48-2.85-9.54,1.8-12.98ZM23.15,29.58c0,.82.13,1.57.42,2.33.77,1.96,2.16,3.27,4.16,3.93.07.02.16.01.23-.02.92-.47,1.81-1,2.62-1.63,2.21-1.7,3.96-3.77,5.2-6.28.07-.13.09-.25.02-.4-.12-.26-.21-.54-.34-.79-.93-1.86-2.43-3.01-4.43-3.49-1.1-.26-2.21-.19-3.31.14-2.65.81-4.58,3.31-4.59,6.21ZM16.83,10.23c.01-.66-.08-1.32-.29-1.94-.66-2.02-1.97-3.43-3.96-4.2-.17-.07-.33-.08-.49.02-.78.47-1.6.89-2.34,1.42-2.39,1.69-4.25,3.86-5.57,6.48-.08.16-.1.3-.04.46.24.63.54,1.22.95,1.75.98,1.28,2.26,2.09,3.82,2.44.81.18,1.64.18,2.46.04,1.08-.19,2.05-.6,2.9-1.28,1.67-1.32,2.5-3.07,2.56-5.19ZM16.87,29.83c-.08-.53-.12-1.07-.24-1.58-.29-1.25-.92-2.31-1.85-3.2-1.05-1-2.29-1.58-3.74-1.77-1.02-.13-2.01-.02-2.97.32-1.7.61-2.94,1.75-3.71,3.4-.19.4-.35.76-.09,1.24,1.83,3.37,4.42,5.94,7.84,7.66.12.06.3.07.42.03,2.57-.91,4.28-3.36,4.32-6.1ZM29.65,16.73c.83,0,1.63-.14,2.39-.45,1.73-.71,2.95-1.94,3.66-3.66.07-.18.19-.36.07-.59-.76-1.48-1.69-2.85-2.82-4.07-1.48-1.59-3.18-2.9-5.14-3.85-.11-.05-.29-.08-.39-.03-.53.25-1.08.48-1.54.82-1.61,1.18-2.52,2.77-2.69,4.77-.1,1.16.07,2.27.59,3.3,1.21,2.41,3.19,3.65,5.89,3.76Z"/>
        </g>
        <g>
          <path class="cls-1" d="M1.26,24.87v1.11c.18.13.3.3.38.51.02.04.04.08.06.11,0,0,0,0,0,0,.05.06.1.13.14.2.05.06.11.13.16.19.13.15.22.33.26.5h19.47l-.03-2.62H4.95c10.23-7.11,14.88-9.6,14.88-15.97,0-3.4-1.52-6.08-4.04-7.58-.11.1-.26.18-.44.22-1.12.24-2.72.19-3.9.69-.33.23-.69.42-.98.68-.01.01-.03.02-.04.04.21-.02.42-.03.63-.03,4.12,0,6.18,2.23,6.18,6.08,0,5.11-4.05,7.31-15.97,15.87Z"/>
          <g>
            <path class="cls-1" d="M26.33,37.96c.42-.1.83-.1,1.23-.08,0,0,0,0,0,0,.44-.89,1.34-1.02,2.21-.95.03,0,.07-.02.1-.02.01-.05.03-.1.05-.15.11-.25.28-.46.49-.64-.46.07-.94.1-1.45.1-4.48,0-7.24-2.86-7.24-7.47h-2.72c0,5.03,2.58,8.5,6.71,9.66.11-.21.3-.38.61-.45Z"/>
            <path class="cls-1" d="M27.91,22.44c5.81,0,8.14,2.59,8.14,6.77,0,.72-.07,1.39-.21,2.01.28-.6.69-1.11,1.12-1.65.1-.13.2-.26.29-.39.15-.36.35-.69.59-.99.23-.47.42-.96.56-1.47.01-.05.03-.1.05-.15-.94-4.02-4.22-6.5-10.24-6.5h-4.35l.9-6.44h12.45v-2.59h-14.61l-1.46,9.99,1.53,1.39h5.25Z"/>
          </g>
          <g>
            <path class="cls-1" d="M9.44,30.72h-1.16l-.26.72h-.41l1-2.57h.52l.99,2.57h-.42l-.26-.72ZM8.39,30.42h.94l-.12-.32c-.11-.29-.22-.62-.3-.89h-.11c-.09.27-.2.6-.3.89l-.12.32Z"/>
            <path class="cls-1" d="M11.28,30.16c-.16-.27-.34-.65-.47-.94h-.09c.03.37.04.89.04,1.25v.96h-.37v-2.57h.57l.66,1.11c.21.35.4.76.52,1.04h.08c-.02-.36-.04-.83-.04-1.19v-.96h.37v2.57h-.52l-.76-1.27Z"/>
            <path class="cls-1" d="M12.98,30.15c0-.8.47-1.33,1.27-1.33s1.27.53,1.27,1.33-.45,1.34-1.27,1.34-1.27-.54-1.27-1.34ZM15.13,30.15c0-.58-.28-.98-.88-.98s-.88.4-.88.98.27,1,.88,1,.88-.4.88-1Z"/>
            <path class="cls-1" d="M15.74,30.64l.37-.08c.07.4.31.61.75.61.41,0,.59-.16.59-.4s-.16-.37-.68-.46c-.7-.12-.93-.38-.93-.77,0-.44.32-.71.95-.71s.89.3.99.76l-.39.08c-.08-.34-.22-.52-.62-.52-.37,0-.54.14-.54.37,0,.21.12.36.68.46.74.14.93.41.93.77,0,.45-.29.75-.99.75-.74,0-1.04-.35-1.11-.85Z"/>
          </g>
        </g>
        <path class="cls-1" d="M20,2.18c9.82,0,17.82,7.99,17.82,17.82s-7.99,17.82-17.82,17.82S2.18,29.82,2.18,20,10.18,2.18,20,2.18M20,0C8.95,0,0,8.95,0,20s8.95,20,20,20,20-8.95,20-20S31.05,0,20,0h0Z"/>
      </g>
    </g>
  </g>
</svg>