<?xml version="1.0" encoding="UTF-8"?>
<svg id="Camada_2" data-name="Camada 2" xmlns="http://www.w3.org/2000/svg" viewBox="0 0 216.05 35.4">
  <defs>
    <style>
      .cls-1 {
        fill: #f0ede8;
      }
    </style>
  </defs>
  <g id="Camada_1-2" data-name="Camada 1">
    <g>
      <path class="cls-1" d="M8.71,2.51v30.38H2.51V2.51h6.2M10.38.84H.84v33.73h9.54V.84h0Z"/>
      <path class="cls-1" d="M52.96,2.51v7.31l-5.87,2.18v-2.27c0-1.24-.88-2.14-2.09-2.14h-16.12c-4.71,0-6.72,2.12-6.72,7.09v5.65c0,4.94,2.07,7.14,6.72,7.14h23.58v5.41h-24.41c-8.36,0-12.09-3.61-12.09-11.72v-6.95c0-8.1,3.73-11.72,12.09-11.72h24.92M53.28.84h-25.25c-10.05,0-13.76,5.24-13.76,13.39v6.95c0,8.15,3.71,13.39,13.76,13.39h26.09v-8.76h-25.25c-3.75,0-5.05-1.44-5.05-5.47v-5.65c0-4.12,1.34-5.42,5.05-5.42h16.12c.28,0,.42.14.42.46v4.54h.37l8.85-3.29V2.23c0-.93-.42-1.39-1.34-1.39h0Z"/>
      <path class="cls-1" d="M87.15,2.51c.11,0,.19,0,.25,0,.03.04.07.11.12.2l15.69,30.17h-25.15l-1.86-4.9h7.38c3.87,0,5.53.04,7.08.18l1.21.11.48-1.11.14-.32.33-.78-.43-.73-.26-.44c-.67-1.13-1.36-2.31-3.07-5.77l-5.33-10.66-.03-.06-.03-.06c-.31-.52-.93-1.14-2.08-1.14h-.56c-.87,0-1.6.4-2.04,1.14l-.03.06-.03.06-12.1,24.41h-7.42l15.84-30.2c.04-.08.07-.14.1-.18.04,0,.1,0,.17,0h11.63M87.15.84h-11.63c-1.07,0-1.34.28-1.76,1.11l-16.91,32.25v.37h11.03l12.56-25.34c.14-.23.32-.32.6-.32h.56c.32,0,.51.09.65.32l5.33,10.66c1.95,3.94,2.59,4.96,3.38,6.3l-.14.32c-1.58-.14-3.24-.19-7.23-.19h-9.45v.93l2.78,7.32h28.87v-.37L89.01,1.95c-.46-.83-.79-1.11-1.85-1.11h0Z"/>
      <path class="cls-1" d="M118.06,27.66v6.9h-9.54V2.23c0-.93.42-1.39,1.34-1.39h27.71c6.3,0,8.9,2.92,8.9,8.06v2.97c0,2.69-1.34,4.31-2.73,5.28,1.95.97,3.43,2.92,3.43,5.75v2.97c0,5.65-2.41,8.71-8.94,8.71h-17.19l-2.64-6.9h-.32ZM118.84,8.34c-.56,0-.79.28-.79.79v5.7h16.03c2.08,0,2.87-.74,2.87-2.69v-1.02c0-2.04-.79-2.78-2.87-2.78h-15.24ZM118.06,20.3v6.35h16.59c1.67,0,2.41-.69,2.41-2.69v-.97c0-1.99-.65-2.69-2.41-2.69h-16.59Z"/>
      <path class="cls-1" d="M148.54,25.76h17.84c3.57,0,5.05-1.44,5.05-5.28V.84h9.54v20.34c0,8.15-3.66,13.39-13.71,13.39h-18.72v-8.8Z"/>
      <path class="cls-1" d="M183.62,25.76h17.84c3.57,0,5.05-1.44,5.05-5.28V.84h9.54v20.34c0,8.15-3.66,13.39-13.71,13.39h-18.72v-8.8Z"/>
    </g>
  </g>
</svg>