<?xml version="1.0" encoding="UTF-8"?>
<svg id="Camada_2" data-name="Camada 2" xmlns="http://www.w3.org/2000/svg" viewBox="0 0 243.12 30.01">
  <defs>
    <style>
      .cls-1 {
        fill: #f0ede8;
      }
    </style>
  </defs>
  <g id="Camada_1-2" data-name="Camada 1">
    <g>
      <path class="cls-1" d="M25.22,3.75v.03c3.1,2.79,5.05,6.76,5.05,11.25,0,1.5-.22,2.96-.62,4.33.01,0,.02.02,0,.04v-.04s-.02.03-.02.05l-.02-.06c-.13-.01-.45.08-.42-.03.04-.12-.16-.16-.16-.16l-.28-.56s.01.13.03.25c.01.11.03.21.05.19.04-.04-.2.4-.2.4l-.32.4-.44-.04-.44-.04h-.6l-.08.28-.68.36h-.12c.12,0-.48-.12-.8-.2-.32-.08-.56-.08-.68-.12-.12-.04-.4-.08-.44-.28-.04-.2-.2-.04,0-.72.2-.68-.04-.24-.04-.24,0,0-.28.32-.64.32s-.28.32-.28.32c0,0-.04.48.12.56.16.08.04.28-.4.32-.44.04-.44,0-.44,0,0,0-.28,0-.44-.08-.16-.08-.2-.28-.28-.44-.08-.16-.28-.08-.44-.2-.16-.12-.16.16-.16.16,0,0-.28.4-.32.6-.04.2-.36.6-.36.6l-.16.48s-.32.24-.48.2c-.16-.04-.04.56,0,.6.04.04.04.44-.28.52-.32.08-.52.4-.52.52s-.32.24-.44.16c-.12-.08-.48.24-.6,0-.12-.24-.4.44-.4.44l.44.68s-.2.04-.32,0c-.12-.04-.6.48-.6.48,0,0-.48.08-.68-.04-.2-.12-.24-.16-.24-.16,0,0-.16-.28-.12-.44.04-.16-.24-.12-.24-.12,0,0-.12-.28-.04-.4.08-.12-.28-.2-.28-.44s.16-.28.28-.6c.12-.32-.28,0-.28,0l-.36-.32-.28-.32-.32-.48s-.4.08-.52.04c-.12-.04-.28-.12-.28-.24s-.16-.4-.16-.6-.32-.08-.32-.2-.08-.24-.2-.4c-.12-.16-.32.28-.32.28l-.2.28-.12.36s.28.12.44.12.04.36.16.36,0,.32,0,.32c0,0,.24.28.4.24.16-.04.16.32.16.32,0,0,.24.16.4.12.16-.04.32.2.52.12.2-.08.28.2.72.72.44.52-.16.24-.16.24,0,0-.12-.12-.48-.2-.36-.08-.16.16-.16.28v.36l-.28.32-.36.16s-.04-.16-.08-.36c-.04-.2-.24.36-.24.36,0,0,.16.44,0,.44s-.44.04-.56.04-.44-.44-.44-.56-.16-.28-.16-.28l.83.32s.56-.6.56-.76-.12-.16-.24-.24c-.12-.08-.2-.2-.2-.32s-.16-.28-.32-.52c-.16-.24-.32-.2-.4-.32-.08-.12-.28-.16-.48-.28-.2-.12-.36-.24-.4-.4-.04-.16-.28-.16-.4-.32-.12-.16-.28-.2-.28-.32s-.08-.2-.08-.36-.4.12-.56.08c-.16-.04-.4.44-.4.44l-.48.16-.44.04s-.16-.2-.2-.44c-.04-.24-.32-.04-.4-.16-.08-.12-.32.08-.32.08,0,0,.08.52.12.72.04.2-.28.24-.28.24,0,0-.28.16-.52,0-.24-.16-.12.12-.12.12,0,0-.24.2-.4.16-.16-.04-.12.44.08.64.2.2-.08.32-.08.32l-.12.52s-.32.32-.64.32-.48-.12-.56-.24c-.08-.12-.36-.16-.36-.16,0,0-.48-.2-.6-.4-.12-.2-.36-.04-.48-.24-.12-.2-.4-.44-.32-.64.08-.2-.04-.2-.16-.4-.12-.2-.04-.44,0-.6.04-.16.12-.32.04-.68-.08-.36.12-.52.24-.52s.28.2.44.2.28.08.48.16c.2.08.64.12.76.08.12-.04.32.04.48,0,.16-.04.08-.12.12-.36.04-.24,0-.2-.04-.36-.04-.16,0-.24.04-.36.04-.12-.16-.36-.24-.64-.08-.28-.24-.08-.32-.2-.08-.12-.32-.16-.44-.24-.12-.08,0-.2-.08-.32-.08-.12-.24-.24-.24-.24,0,0,.08-.16.12-.32l.4-.04s.36.04.52,0l.12-.08s.44-.08.6-.16c0,0,.52-.16.72-.28.2-.12,0,0,0-.16s.08-.12.16-.56c.08-.44,0-.16.08-.32.08-.16.2-.08.28-.2.08-.12.32-.04.32-.16s.24-.28.24-.28v-.2s.04-.12.04-.24.04-.16.04-.36.2-.12.24-.24c.04-.12,0,.24,0,.24l.4.28.04-.2c.04-.2-.12-.2,0-.32.12-.12,0,0,.08-.04.08-.04.4.12.52.04.12-.08.2,0,.36-.04.16-.04.4.04.52-.08.12-.12.24-.04.24-.2s.04-.36.12-.56c.08-.2-.04-.36-.2-.76-.16-.4-.08-.32-.16-.48-.08-.16.16-.28.28-.48.12-.2.2-.12.36-.36.16-.24,0,0,.16-.2.16-.2.16-.08.28-.12.12-.04.16.08.16.08l.16.68-.16.32-.24.24-.16.32v.48l.2.2s.36.4.48.36c.12-.04.12.04.24-.04.12-.08.24,0,.36-.12s.36.16.52.08c.16-.08.04.4,0,.6-.04.2.4.12.6.08.2-.04,0,0,.24-.16.24-.16.12-.08.28-.28.16-.2.36-.08.4-.2.04-.12.68-.12.68-.12l.28.32s0,.12.16.12.16.04.28.04.16-.12.16-.28.04-.28,0-.4c-.04-.12.2-.08.24-.24.04-.16.24.24.28.48.04.24.16.28.2.12.04-.16,0-.28,0-.4s-.08-.36-.08-.6v-.72c0-.24,0,0,.12-.32.12-.32.32-.24.44-.4.12-.16.24-.04.36-.04s.16.24.16.24l.28.6s.08.16.2.04c.12-.12.08-.28.08-.48s.2-.32.2-.32c0,0-.12-.52-.28-.6-.16-.08,0-.52.08-.68.08-.16,0,0,.08-.12.08-.12.12-.12.32-.16.2-.04.4-.04.48-.04s.32.2.32.2l.75-.04s.64-.04.87-.16c.24-.12,0,0-.04-.12-.04-.12-.12-.08-.2-.2-.08-.12-.44.04-.48-.12-.04-.16-.04-.24-.04-.24,0,0-.32.12-.44,0-.12-.12-.28-.2-.28-.2l-.36-.04-.44.12-.4.16-.32-.08s-.44,0-.56-.2c-.12-.2-.04-.12,0-.28.04-.16-.2-.28-.24-.44-.04-.16-.12-.68-.12-.68,0,0,0-.79.08-.91.08-.12.16-.08.16-.08,0,0,.2-.08.4-.28.2-.2.12-.2.24-.32.12-.12.12-.2.36-.28.24-.08.32-.28.32-.28,0,0,.2-.2.28-.4.08-.2-.12-.28-.12-.28,0,0-.4-.04-.64-.2-.24-.16-.16-.08-.36-.24-.2-.16-.36.08-.36.08,0,0-.08.52.08.72.16.2-.12.4-.32.48-.2.08-.4.4-.4.4,0,0-.36.32-.48.28-.12-.04-.32.48-.48.44-.16-.04-.6.16-.6.16,0,0-.04.2.08.28.12.08-.04.4-.2.4s-.12.68-.12.68c0,0,.24.36.36.44.12.08.16.4.16.4l.04.76s-.24.36-.36.32c-.12-.04-.28.16-.32.04-.04-.12-.16.52-.16.52l-.16.4-.12.56.48.16.08.44-.2.12s-.28.08-.44.04c-.16-.04-.48.12-.6.12s-.2.32-.2.32l-.52.08-.4.04s-.12-.28-.08-.48c.04-.2.16-.32.16-.32,0,0-.32-.99-.36-1.11-.04-.12-.24-.52-.24-.52,0,0-.12-.28-.16-.48-.04-.2-.2-.28-.2-.28h-.4l-.36.16-.36.36-.28.32-.44.04-.44-.24v-.32l-.08-.64s.16-.48.2-.64c.04-.16.2-.36.32-.44.12-.08.2-.32.2-.32l-.2-.36.24-.32v-.32s-.32-.4-.2-.44q.12-.04.48-.36c.36-.32,0,0,.12-.28.12-.28.36-.2.48-.28.12-.08.28-.16.28-.16l.44.2.44-.12s.24-.12.36-.24c.12-.12-.4-.08-.4-.08,0,0-.32-.12-.28-.28.04-.16.12-.2.28-.48.16-.28.2-.16.32-.36.12-.2.2-.28.28-.48.08-.2.2-.56.2-.56,0,0,.8-.68.88-.8.08-.12.2-.12.4-.28.2-.16.36-.12.36-.12,0,0,.4-.12.6-.16.2-.04.4-.08.56-.16.16-.08.32-.12.52-.2.2-.08.48,0,.64-.04.16-.04.72.08.72.08l.6.2.87.24s.28.32.4.36c.12.04.72.24.72.24l.4.32.56.2.6.48.52.36.56.44v.52h-.36l-.32-.2-.28-.36-.6-.28.24.32.28.56.2.44.24.28.2.32.44.12-.24-.28-.24-.36.28-.12.48.36.24-.68.43-.47s.78-.64.85-.71c-2.67-2.31-6.17-3.73-10-3.73C6.8,0,0,6.72,0,15s6.8,15.01,15.19,15.01,15.19-6.72,15.19-15.01c0-4.49-2.01-8.51-5.17-11.26ZM15.6,11.4l.6-.32s0,.12.12.2c.12.08.08.44.08.44l-.24.2s-.16.04-.32-.04c-.16-.08-.24-.12-.24-.12v-.36ZM12.31,12.67l.04-.16.28-.24.12-.08v.28c0,.12-.04.4-.04.4,0,0,.04.2.16.4.12.2-.24-.04-.24-.04,0,0-.28-.08-.32-.2-.04-.12,0-.36,0-.36ZM4.55,11.51c.08-.16.16.12.24.04.08-.08-.04-.32.04-.44.08-.12.08-.56.32-.95.12-.2.06-.24.05-.24,0,0,0,0,0,0,.02,0,.09,0,.31-.04.6-.12.28.16.48.24.2.08-.24.28-.16.2-.05.05-.2.2-.2.2,0,0,0,.32.12.4.12.08.04.12.24,0,.2-.12.32.2.32.2l-.16.16-.12.36-.08.44s.16-.08.36-.16c.2-.08,0,.32,0,.32,0,0-.04.28,0,.4.04.12.08.4.4.36.32-.04.12.24.12.24,0,0,.12.32.2.48.08.16.12.4.12.4,0,0,.04.44.16.4.12-.04.28.2.4.24.12.04-.16.44-.16.44l-.16.64-.2.12-.44.44-.32.04-.36-.08-.28.12-.36.16-.24.12-.48-.2.04-.16s-.04-.12.16-.36c.2-.24,0-.2.08-.36.08-.16.24-.12.04-.28-.2-.16-.32.04-.4-.16-.08-.2-.08-.12.08-.24.16-.12.24-.12.36-.16.12-.04,0-.16.04-.48.04-.32,0,0,.08-.36.08-.36,0,0,.12,0s.24.08.48.08-.08-.12-.2-.4c-.12-.28-.12-.12-.08-.24.04-.12,0-.12.16-.16.16-.04.12-.12.32-.32.2-.2-.28,0-.4,0s-.44.16-.44.16c0,0-.24-.08-.36-.28-.12-.2.16-.08.36-.2.2-.12.04-.24.04-.36s-.4-.08-.56-.2c-.16-.12-.16-.4-.08-.56ZM3.4,15.13c-.12-.04-.2.04-.24-.04-.04-.08-.12-.4-.16-.56-.04-.16.12-.28.24-.36.12-.08.08-.2,0-.48-.08-.28-.08-.2,0-.4.08-.2.16.16.32.12l.16-.04s-.12-.2,0-.4c.12-.2.24-.2.36-.2s.32.08.32.08v-.16c.12-.04.32.4.32.4,0,0-.2,0-.32-.04-.12-.04.04.28.04.28v.28l.08.48s-.24.16-.16.28c.08.12-.12.4-.12.4l-.24.36s-.48.04-.6,0ZM10.68,22.13l.04-.16.24.16v.36l-.28.04-.12-.12.12-.28ZM10.75,23.8l-.16.08h-.32l-.12-.16s-.04-.36-.04-.48.44-.2.44-.2c0,0,.14.08.33.13.04,0,.07.02.11.02l-.24.6ZM18.11,25.87l-.32.24s-.12-.04-.24-.08c-.12-.04-.12.04-.36-.2-.24-.24.24-.08.24-.08,0,0,.48-.08.6-.12l.16-.12c.16-.12.2.12.2.12l-.28.24Z"/>
      <path class="cls-1" d="M120.32,16.55c.51,3.66,3.31,5.09,7.78,5.09,2.49,0,5.34-.56,8.09-2.03v6.46c-2.95,1.17-6.31,1.68-9.72,1.68-8.75,0-15.41-5.14-15.41-13.89S117.01.02,125.26.02c9.82,0,13.38,6.97,13.38,14.85v1.68h-18.31ZM130.39,11.36c0-3.05-1.42-5.54-5.09-5.54-3.31,0-4.88,2.49-5.09,5.54h10.18Z"/>
      <path class="cls-1" d="M106.68,8.21c-1.68-1.02-3.36-1.48-5.54-1.48-3.97,0-7.02,2.75-7.02,7.33,0,4.22,3.56,6.97,7.53,6.97,2.09,0,4.17-.46,5.7-1.27l.2,6.82c-2.29.76-5.04,1.17-7.48,1.17-8.75,0-15.41-5.09-15.41-13.84S91.32.02,100.07.02c2.75,0,5.19.46,7.27,1.47l-.66,6.72Z"/>
      <path class="cls-1" d="M71.79.32c-3.76,0-7.27,1.53-9.41,5.09-1.42-3.46-4.53-5.09-8.29-5.09-4.17,0-7.83,1.68-9.67,5.49h-.1V.93h-8.34v26.5h9.16v-11.19c0-5.7,1.93-8.29,5.19-8.29,2.59,0,3.66,2.24,3.66,5.24v14.24h9.16v-11.19c0-5.7,1.93-8.29,5.19-8.29,2.59,0,3.66,2.24,3.66,5.24v14.24h9.16v-15.62c0-7.17-1.73-11.5-9.36-11.5Z"/>
      <g>
        <path class="cls-1" d="M155.12,2.25c6.13,0,9.24,2.23,9.24,6.57,0,2.92-1.64,4.89-4.75,5.73,3.51.66,5.4,2.81,5.4,6.02,0,4.82-3.43,7.01-10.41,7.01h-9.86V2.25h10.37ZM151.36,12.48h2.04c2.85,0,4.27-.95,4.27-2.92,0-1.79-1.35-2.74-3.94-2.74h-2.37v5.66ZM151.36,22.92h2.66c2.77,0,4.2-1.06,4.2-3.03s-1.31-2.92-3.91-2.92h-2.96v5.95Z"/>
        <path class="cls-1" d="M182.07,14.08c-.62-.26-1.28-.33-2.01-.33-3.03,0-4.64,1.97-4.64,5.84v8h-6.43V8.83h5.73v3.58c1.31-2.77,3.14-4.09,5.73-4.09.51,0,1.21.11,1.94.22l-.33,5.55Z"/>
        <path class="cls-1" d="M202.44,27.59h-5.59l-.15-2.92c-1.57,2.23-3.69,3.14-6.64,3.14-3.83,0-6.24-2.37-6.24-5.95,0-4.2,3.29-6.13,10.04-6.13h2.52v-.26c0-2.04-1.61-3.18-4.6-3.18-1.46,0-3.36.51-5.55,1.53l-.11-4.24c2.15-.91,4.6-1.31,7.41-1.31,6.21,0,8.91,3.03,8.91,9.49v9.82ZM189.96,21.64c0,1.28.95,2.19,2.45,2.19,2.26,0,3.98-1.64,3.98-4.24v-.55h-1.1c-3.61,0-5.33.69-5.33,2.59Z"/>
        <path class="cls-1" d="M220.08,13.83c-1.75-.99-3.54-1.5-5.11-1.5s-2.45.62-2.45,1.61c0,1.24,1.5,1.35,3.91,2.08,3.69,1.1,5.37,2.48,5.37,5.7,0,3.91-3.18,6.39-8.69,6.39-2.34,0-4.6-.36-6.72-1.06l.4-4.82c1.83.95,3.8,1.42,5.73,1.42s2.88-.51,2.88-1.53c0-1.35-1.46-1.53-4.02-2.34-3.5-1.13-5.26-2.41-5.26-5.26,0-3.83,3.1-6.21,8.84-6.21,1.83,0,3.76.33,5.73.99l-.62,4.53Z"/>
        <path class="cls-1" d="M231.72.21v5.22h-6.43V.21h6.43ZM231.72,8.83v18.77h-6.43V8.83h6.43Z"/>
        <path class="cls-1" d="M243.12.21v27.38h-6.43V.21h6.43Z"/>
      </g>
    </g>
  </g>
</svg>