<?xml version="1.0" encoding="UTF-8"?>
<svg id="Camada_2" data-name="Camada 2" xmlns="http://www.w3.org/2000/svg" viewBox="0 0 257.55 41.44">
  <defs>
    <style>
      .cls-1 {
        fill: #f0ede8;
      }
    </style>
  </defs>
  <g id="Camada_1-2" data-name="Camada 1">
    <g>
      <g>
        <path class="cls-1" d="M88.55,34.19c-1.36,0-2.58-.24-3.66-.71-1.08-.47-1.93-1.17-2.56-2.08-.63-.91-.94-2.02-.94-3.33s.31-2.41.94-3.29c.63-.89,1.5-1.55,2.62-2,1.12-.45,2.39-.67,3.83-.67h5.23s0-1.08,0-1.08c0-.9-.28-1.64-.85-2.21-.56-.58-1.46-.87-2.69-.87s-2.1.28-2.69.83c-.59.55-.98,1.26-1.15,2.14l-4.46-1.5c.31-.97.8-1.87,1.48-2.67.68-.81,1.59-1.46,2.73-1.96,1.14-.5,2.53-.75,4.18-.75,2.51,0,4.5.63,5.96,1.89,1.46,1.26,2.19,3.08,2.19,5.46v7.12c0,.77.36,1.15,1.08,1.15h1.54v4h-3.23c-.95,0-1.73-.23-2.35-.69-.62-.46-.92-1.08-.92-1.85v-.04s-.73,0-.73,0c-.1.31-.33.71-.69,1.21-.36.5-.92.94-1.69,1.33s-1.82.58-3.16.58ZM89.39,30.26c1.36,0,2.47-.38,3.33-1.14.86-.76,1.29-1.76,1.29-3.02v-.38s-4.89,0-4.89,0c-.9,0-1.6.19-2.12.58-.51.38-.77.92-.77,1.62s.27,1.26.81,1.69c.54.44,1.32.65,2.35.65Z"/>
        <path class="cls-1" d="M113.44,34.19c-1.85,0-3.52-.38-5.02-1.15-1.5-.77-2.69-1.89-3.56-3.35-.87-1.46-1.31-3.23-1.31-5.31v-.54c0-2.08.44-3.85,1.31-5.31.87-1.46,2.06-2.58,3.56-3.35s3.17-1.15,5.02-1.15,3.39.32,4.69.96c1.31.64,2.37,1.52,3.17,2.64s1.34,2.38,1.6,3.79l-4.69,1c-.1-.77-.33-1.46-.69-2.08-.36-.62-.87-1.1-1.52-1.46-.65-.36-1.47-.54-2.44-.54s-1.85.21-2.64.64c-.78.42-1.4,1.05-1.85,1.89-.45.83-.67,1.85-.67,3.06v.38c0,1.21.22,2.23.67,3.06.45.83,1.06,1.46,1.85,1.89.78.42,1.66.63,2.64.63,1.46,0,2.57-.38,3.33-1.14.76-.76,1.24-1.75,1.44-2.98l4.69,1.12c-.33,1.36-.9,2.6-1.71,3.71s-1.87,2-3.17,2.64c-1.31.64-2.87.96-4.69.96Z"/>
        <path class="cls-1" d="M135.72,34.19c-1.9,0-3.57-.4-5.02-1.21-1.45-.81-2.58-1.95-3.39-3.42-.81-1.47-1.21-3.21-1.21-5.21v-.46c0-2,.4-3.74,1.19-5.21.79-1.47,1.91-2.62,3.35-3.42,1.44-.81,3.1-1.21,5-1.21s3.5.42,4.89,1.25c1.39.83,2.46,1.99,3.23,3.46.77,1.48,1.15,3.19,1.15,5.14v1.65h-13.89c.05,1.31.54,2.37,1.46,3.19.92.82,2.05,1.23,3.39,1.23s2.36-.29,3-.89c.64-.59,1.13-1.24,1.46-1.96l3.96,2.08c-.36.67-.88,1.39-1.56,2.17-.68.78-1.58,1.45-2.71,2-1.13.55-2.57.83-4.31.83ZM131.07,21.91h8.93c-.1-1.1-.55-1.99-1.33-2.66-.78-.67-1.8-1-3.06-1s-2.35.33-3.12,1c-.77.67-1.24,1.55-1.42,2.66Z"/>
        <path class="cls-1" d="M149.08,34.19V7.25s16.93,0,16.93,0v4.62h-11.85s0,6.5,0,6.5h10.93v4.62h-10.93s0,11.2,0,11.2h-5.08Z"/>
        <path class="cls-1" d="M169.78,34.19V15.1h4.77v2.15s.69,0,.69,0c.28-.77.75-1.33,1.4-1.69.65-.36,1.42-.54,2.29-.54h2.31v4.31h-2.39c-1.23,0-2.25.33-3.04.98-.8.65-1.19,1.66-1.19,3.02v10.85h-4.85Z"/>
        <path class="cls-1" d="M190.48,34.19c-1.36,0-2.58-.24-3.66-.71-1.08-.47-1.93-1.17-2.56-2.08-.63-.91-.94-2.02-.94-3.33s.31-2.41.94-3.29c.63-.89,1.5-1.55,2.62-2,1.12-.45,2.39-.67,3.83-.67h5.23s0-1.08,0-1.08c0-.9-.28-1.64-.85-2.21-.56-.58-1.46-.87-2.69-.87s-2.1.28-2.69.83c-.59.55-.98,1.26-1.15,2.14l-4.46-1.5c.31-.97.8-1.87,1.48-2.67.68-.81,1.59-1.46,2.73-1.96,1.14-.5,2.53-.75,4.18-.75,2.51,0,4.5.63,5.96,1.89,1.46,1.26,2.19,3.08,2.19,5.46v7.12c0,.77.36,1.15,1.08,1.15h1.54v4h-3.23c-.95,0-1.73-.23-2.35-.69-.62-.46-.92-1.08-.92-1.85v-.04s-.73,0-.73,0c-.1.31-.33.71-.69,1.21-.36.5-.92.94-1.69,1.33-.77.38-1.82.58-3.16.58ZM191.33,30.27c1.36,0,2.47-.38,3.33-1.14.86-.76,1.29-1.76,1.29-3.02v-.38s-4.89,0-4.89,0c-.9,0-1.6.19-2.12.58-.51.38-.77.92-.77,1.62s.27,1.26.81,1.69c.54.44,1.32.65,2.35.65Z"/>
        <path class="cls-1" d="M206.8,34.19V15.1h4.77v2.08s.69,0,.69,0c.33-.64.89-1.2,1.65-1.67.77-.47,1.78-.71,3.04-.71,1.36,0,2.45.26,3.27.79.82.53,1.45,1.21,1.89,2.06h.69c.44-.82,1.05-1.5,1.85-2.04.79-.54,1.92-.81,3.39-.81,1.18,0,2.25.25,3.21.75s1.73,1.26,2.31,2.27c.58,1.01.87,2.29.87,3.83v12.54h-4.85v-12.2c0-1.05-.27-1.84-.81-2.37-.54-.53-1.3-.79-2.27-.79-1.1,0-1.96.35-2.56,1.06-.6.71-.9,1.71-.9,3.02v11.28h-4.85v-12.2c0-1.05-.27-1.84-.81-2.37-.54-.53-1.3-.79-2.27-.79-1.1,0-1.96.35-2.56,1.06-.6.71-.9,1.71-.9,3.02v11.28h-4.85Z"/>
        <path class="cls-1" d="M248.36,34.19c-1.9,0-3.57-.4-5.02-1.21-1.45-.81-2.58-1.95-3.39-3.42-.81-1.47-1.21-3.21-1.21-5.21v-.46c0-2,.4-3.74,1.19-5.21.79-1.47,1.91-2.62,3.35-3.42,1.44-.81,3.1-1.21,5-1.21s3.5.42,4.89,1.25c1.39.83,2.46,1.99,3.23,3.46.77,1.48,1.15,3.19,1.15,5.14v1.65h-13.89c.05,1.31.54,2.37,1.46,3.19.92.82,2.05,1.23,3.39,1.23s2.36-.29,3-.89c.64-.59,1.13-1.24,1.46-1.96l3.96,2.08c-.36.67-.88,1.39-1.56,2.17-.68.78-1.58,1.45-2.71,2-1.13.55-2.57.83-4.31.83ZM243.7,21.91h8.93c-.1-1.1-.55-1.99-1.33-2.66-.78-.67-1.8-1-3.06-1s-2.35.33-3.12,1c-.77.67-1.24,1.55-1.42,2.66Z"/>
        <path class="cls-1" d="M79.32,11.14c-.73-1.23-1.74-2.19-3.04-2.87-1.3-.68-2.79-1.02-4.48-1.02h-6s0,4.62,0,4.62h5.5c1.21,0,2.18.33,2.92,1,.74.67,1.12,1.58,1.12,2.73v.38c0,1.15-.37,2.07-1.12,2.73-.74.67-1.72,1-2.92,1h-5.5v-7.85s-5.08,0-5.08,0v22.32s5.08,0,5.08,0v-9.85h6c1.64,0,3.11-.34,4.41-1.02,1.3-.68,2.32-1.64,3.08-2.89.76-1.24,1.14-2.7,1.14-4.37v-.54c0-1.69-.37-3.16-1.1-4.39Z"/>
      </g>
      <path class="cls-1" d="M0,0h41.25s0,41.44,0,41.44H0S0,0,0,0ZM38.4,3.17H2.98s0,32.76,0,32.76l15.27-9.35c1.37-.83,1.78-2.31,2.55-3.59,1.1-1.83,2.29-2.79,4.05-3.94,4.46-2.92,9.12-5.54,13.56-8.5V3.17ZM38.4,38.47V14.13c-3.59,2.26-7.24,4.43-10.83,6.69-1.51.95-3.24,1.79-4.21,3.33-1.08,1.71-1.6,3.72-3.5,4.86l-15.17,9.45h33.71Z"/>
    </g>
  </g>
</svg>