<?xml version="1.0" encoding="UTF-8"?>
<svg id="Camada_2" data-name="Camada 2" xmlns="http://www.w3.org/2000/svg" viewBox="0 0 334.11 64.45">
  <defs>
    <style>
      .cls-1 {
        fill: none;
      }

      .cls-2 {
        fill: #f0ede8;
      }
    </style>
  </defs>
  <g id="Camada_1-2" data-name="Camada 1">
    <g>
      <g>
        <path class="cls-1" d="M21.01,5.62H1.32v10.37c0,7.75,7.29,14.04,16.25,14.04h19.7v-10.37c0-7.75-7.29-14.04-16.25-14.04Z"/>
        <path class="cls-1" d="M6.17,51.18v11.96h17.05c7.74,0,14.04-7.25,14.04-16.16v-11.96h-17.04c-7.75,0-14.05,7.25-14.05,16.16Z"/>
        <path class="cls-1" d="M72.85,13.53V1.32h-17.05c-7.74,0-14.04,7.4-14.04,16.5v12.21h17.04c7.75,0,14.05-7.4,14.05-16.5Z"/>
        <path class="cls-1" d="M61.46,35.02h-19.7v10.37c0,7.75,7.29,14.04,16.25,14.04h19.7v-10.37c0-7.75-7.29-14.04-16.25-14.04Z"/>
        <path class="cls-2" d="M4.86,51.18v13.27h18.36c8.47,0,15.36-7.84,15.36-17.48v-13.27h-18.36c-8.47,0-15.36,7.84-15.36,17.48ZM37.26,46.97c0,8.91-6.3,16.16-14.04,16.16H6.17v-11.96c0-8.91,6.3-16.16,14.05-16.16h17.04v11.96Z"/>
        <path class="cls-2" d="M74.17,13.53V0h-18.36c-8.47,0-15.36,7.99-15.36,17.82v13.53h18.36c8.47,0,15.36-7.99,15.36-17.82ZM41.76,17.82c0-9.1,6.3-16.5,14.04-16.5h17.05v12.21c0,9.1-6.3,16.5-14.05,16.5h-17.04v-12.21Z"/>
        <path class="cls-2" d="M21.01,4.3H0v11.68c0,8.47,7.88,15.36,17.56,15.36h21.01v-11.68c0-8.47-7.88-15.36-17.56-15.36ZM37.26,30.03h-19.7C8.6,30.03,1.32,23.73,1.32,15.98V5.62h19.7c8.96,0,16.25,6.3,16.25,14.04v10.37Z"/>
        <path class="cls-2" d="M61.46,33.7h-21.01v11.68c0,8.47,7.88,15.36,17.56,15.36h21.01v-11.68c0-8.47-7.88-15.36-17.56-15.36ZM77.71,59.43h-19.7c-8.96,0-16.25-6.3-16.25-14.04v-10.37h19.7c8.96,0,16.25,6.3,16.25,14.04v10.37Z"/>
      </g>
      <g>
        <path class="cls-2" d="M105.07,22.19c-4.82-2.45-7.27-4.19-7.27-7.86,0-4.08,2.97-6.45,7.94-6.45s6.97,2.34,6.97,2.34v2.49s-2.3-2.82-7.2-2.82c-3.6,0-5.3,1.56-5.3,3.97,0,2.56,2.04,3.75,6.19,5.82,4.93,2.45,7.53,4.34,7.53,7.9,0,3.75-2.71,6.71-8.31,6.71-5.23,0-7.94-2.67-7.94-2.67v-2.56s3.23,3.23,8.35,3.23c3.64,0,5.53-1.71,5.53-4.15s-2.15-3.75-6.49-5.93Z"/>
        <path class="cls-2" d="M119.05,34.06h-2.04l12.61-26.15h.93l12.8,26.15h-3.12l-3.38-7.12h-14.43l-3.38,7.12ZM123.24,25.19h12.76l-6.38-13.43-6.38,13.43Z"/>
        <path class="cls-2" d="M148.02,8.09h7.94c4.52,0,7.9,3.12,7.9,7.08,0,3.38-2.45,6.16-5.86,7.16,3.41,2.93,7.42,11.72,7.42,11.72h-2.86s-3.89-8.94-7.08-11.35h-4.64v11.35h-2.82V8.09ZM150.84,9.8v11.2h4.97c3.04,0,5.27-2.3,5.27-5.3,0-3.34-2.56-5.9-5.93-5.9h-4.3Z"/>
        <path class="cls-2" d="M169.98,34.06h-2.04l12.61-26.15h.93l12.8,26.15h-3.12l-3.38-7.12h-14.43l-3.38,7.12ZM174.17,25.19h12.76l-6.38-13.43-6.38,13.43Z"/>
        <path class="cls-2" d="M227.81,17.85c0-4.64-3.23-7.97-8.31-7.97-6.05,0-9.98,4.64-9.98,10.94,0,6.75,4.27,11.24,11.24,11.24,5.75,0,9.24-3.04,9.24-3.04v1.67s-3.52,3.6-10.2,3.6c-8.16,0-13.13-5.49-13.13-12.8,0-7.75,5.6-13.61,13.28-13.61,6.38,0,10.57,4.01,10.57,9.98h-2.71Z"/>
        <path class="cls-2" d="M248.61,7.87c7.34,0,12.8,5.56,12.8,12.87s-6.01,13.54-13.58,13.54-12.76-5.56-12.76-12.87,6.01-13.54,13.54-13.54ZM248.61,32.28c5.68,0,9.9-4.53,9.9-10.65,0-6.6-4.67-11.76-10.68-11.76s-9.9,4.53-9.9,10.65c0,6.6,4.64,11.76,10.68,11.76Z"/>
        <path class="cls-2" d="M273.09,22.19c-4.82-2.45-7.27-4.19-7.27-7.86,0-4.08,2.97-6.45,7.94-6.45s6.97,2.34,6.97,2.34v2.49s-2.3-2.82-7.2-2.82c-3.6,0-5.3,1.56-5.3,3.97,0,2.56,2.04,3.75,6.19,5.82,4.93,2.45,7.53,4.34,7.53,7.9,0,3.75-2.71,6.71-8.31,6.71-5.23,0-7.94-2.67-7.94-2.67v-2.56s3.23,3.23,8.35,3.23c3.64,0,5.53-1.71,5.53-4.15s-2.15-3.75-6.49-5.93Z"/>
        <path class="cls-2" d="M308.07,9.98l-10.2-.15v24.22h-2.82V9.84l-10.2.15v-1.89h23.22v1.89Z"/>
        <path class="cls-2" d="M309.82,34.06h-2.04l12.61-26.15h.93l12.8,26.15h-3.12l-3.38-7.12h-14.43l-3.38,7.12ZM314.01,25.19h12.76l-6.38-13.43-6.38,13.43Z"/>
      </g>
      <g>
        <path class="cls-2" d="M96.26,43.55h2.01c1.15,0,2.01.79,2.01,1.8,0,1.08-.98,1.91-2.22,1.91h-1.08v2.89h-.72v-6.6ZM96.98,43.99v2.85h1.25c.77,0,1.34-.58,1.34-1.35,0-.85-.66-1.5-1.51-1.5h-1.08Z"/>
        <path class="cls-2" d="M105.51,47.14c-1.23-.62-1.85-1.07-1.85-2,0-1.04.75-1.64,2.02-1.64s1.77.59,1.77.59v.63s-.58-.72-1.83-.72c-.91,0-1.35.4-1.35,1.01,0,.65.52.95,1.58,1.48,1.25.62,1.91,1.1,1.91,2.01,0,.95-.69,1.71-2.11,1.71-1.33,0-2.02-.68-2.02-.68v-.65s.82.82,2.12.82c.92,0,1.4-.43,1.4-1.06s-.55-.95-1.65-1.51Z"/>
        <path class="cls-2" d="M111.61,43.55h.72v6.6h-.72v-6.6Z"/>
        <path class="cls-2" d="M121.49,46.03c0-1.18-.82-2.03-2.11-2.03-1.54,0-2.54,1.18-2.54,2.78,0,1.72,1.08,2.86,2.86,2.86,1.46,0,2.35-.77,2.35-.77v.42s-.9.92-2.59.92c-2.07,0-3.34-1.4-3.34-3.25,0-1.97,1.42-3.46,3.38-3.46,1.62,0,2.69,1.02,2.69,2.54h-.69Z"/>
        <path class="cls-2" d="M129.08,43.5c1.87,0,3.25,1.41,3.25,3.27s-1.53,3.44-3.45,3.44-3.24-1.41-3.24-3.27,1.53-3.44,3.44-3.44ZM129.08,49.7c1.44,0,2.52-1.15,2.52-2.71,0-1.68-1.19-2.99-2.72-2.99s-2.52,1.15-2.52,2.71c0,1.68,1.18,2.99,2.72,2.99ZM129.6,41.49l.45.4-1.38,1.13-.21-.21,1.13-1.32Z"/>
        <path class="cls-2" d="M136.1,43.55h.72v6.17l3.04-.05v.48h-3.75v-6.6Z"/>
        <path class="cls-2" d="M146.16,43.5c1.87,0,3.25,1.41,3.25,3.27s-1.53,3.44-3.45,3.44-3.24-1.41-3.24-3.27,1.53-3.44,3.44-3.44ZM146.16,49.7c1.44,0,2.52-1.15,2.52-2.71,0-1.68-1.19-2.99-2.72-2.99s-2.52,1.15-2.52,2.71c0,1.68,1.18,2.99,2.72,2.99Z"/>
        <path class="cls-2" d="M158.12,45.84c0-1.07-.81-1.84-2.07-1.84-1.52,0-2.51,1.18-2.51,2.77,0,1.72,1.08,2.87,2.88,2.87.76,0,1.37-.21,1.78-.41v-1.92h-2.01l.08-.43h2.52v2.41s-.91.92-2.62.92c-2.08,0-3.36-1.4-3.36-3.26,0-1.96,1.41-3.45,3.36-3.45,1.58,0,2.64.93,2.64,2.35h-.69Z"/>
        <path class="cls-2" d="M162.7,50.15h-.52l3.21-6.65h.24l3.25,6.65h-.79l-.86-1.81h-3.67l-.86,1.81ZM163.77,47.9h3.24l-1.62-3.41-1.62,3.41Z"/>
        <path class="cls-2" d="M182.01,46.03c0-1.18-.82-2.03-2.11-2.03-1.54,0-2.54,1.18-2.54,2.78,0,1.72,1.08,2.86,2.86,2.86,1.46,0,2.35-.77,2.35-.77v.42s-.9.92-2.59.92c-2.07,0-3.34-1.4-3.34-3.25,0-1.97,1.42-3.46,3.38-3.46,1.62,0,2.69,1.02,2.69,2.54h-.69Z"/>
        <path class="cls-2" d="M186.54,43.55h.72v6.17l3.04-.05v.48h-3.75v-6.6Z"/>
        <path class="cls-2" d="M194.75,41.49l.45.4-1.38,1.13-.21-.21,1.13-1.32ZM193.77,43.55h.72v6.6h-.72v-6.6Z"/>
        <path class="cls-2" d="M198.65,43.51h.22l5.02,5.44v-5.39h.48v6.65h-.22l-5.02-5.43v5.38h-.48v-6.65Z"/>
        <path class="cls-2" d="M208.52,43.55h.72v6.6h-.72v-6.6Z"/>
        <path class="cls-2" d="M218.39,46.03c0-1.18-.82-2.03-2.11-2.03-1.54,0-2.54,1.18-2.54,2.78,0,1.72,1.08,2.86,2.86,2.86,1.46,0,2.35-.77,2.35-.77v.42s-.9.92-2.59.92c-2.07,0-3.34-1.4-3.34-3.25,0-1.97,1.42-3.46,3.38-3.46,1.62,0,2.69,1.02,2.69,2.54h-.69Z"/>
        <path class="cls-2" d="M222.72,50.15h-.52l3.21-6.65h.24l3.25,6.65h-.79l-.86-1.81h-3.67l-.86,1.81ZM223.79,47.9h3.24l-1.62-3.41-1.62,3.41Z"/>
        <path class="cls-2" d="M237.02,42.61h.4v8.49h-.4v-8.49Z"/>
        <path class="cls-2" d="M251.19,46.03c0-1.18-.82-2.03-2.11-2.03-1.54,0-2.54,1.18-2.54,2.78,0,1.72,1.08,2.86,2.86,2.86,1.46,0,2.35-.77,2.35-.77v.42s-.9.92-2.59.92c-2.07,0-3.34-1.4-3.34-3.25,0-1.97,1.42-3.46,3.38-3.46,1.62,0,2.69,1.02,2.69,2.54h-.69Z"/>
        <path class="cls-2" d="M255.72,43.55h2.02c1.15,0,2.01.79,2.01,1.8,0,.86-.62,1.57-1.49,1.82.87.74,1.89,2.98,1.89,2.98h-.73s-.99-2.27-1.8-2.89h-1.18v2.89h-.72v-6.6ZM256.44,43.99v2.85h1.26c.77,0,1.34-.58,1.34-1.35,0-.85-.65-1.5-1.51-1.5h-1.09Z"/>
        <path class="cls-2" d="M263.75,43.55h2.01c1.15,0,2.01.79,2.01,1.8,0,1.08-.98,1.91-2.22,1.91h-1.08v2.89h-.72v-6.6ZM264.46,43.99v2.85h1.25c.77,0,1.34-.58,1.34-1.35,0-.85-.66-1.5-1.51-1.5h-1.08Z"/>
        <path class="cls-2" d="M271.07,47.22h2.16v.4h-2.16v-.4Z"/>
        <path class="cls-2" d="M279.11,43.5c1.4,0,2.42,1.43,2.42,3.31s-1.11,3.4-2.52,3.4-2.43-1.43-2.43-3.31,1.12-3.4,2.53-3.4ZM279.09,49.73c1,0,1.74-1.17,1.74-2.78s-.78-2.97-1.81-2.97-1.74,1.16-1.74,2.78.78,2.97,1.81,2.97Z"/>
        <path class="cls-2" d="M285.38,46.82l-.25-.3.35-2.97h3.15v.57l-2.68-.07-.26,2.26c.3-.08.7-.17,1.15-.17,1.36,0,2.23.69,2.23,1.86s-.84,2.21-2.57,2.21c-1.1,0-1.66-.42-1.66-.42v-.55s.77.49,1.73.49c1.08,0,1.87-.61,1.87-1.61,0-.93-.66-1.49-1.8-1.49-.66,0-1.24.2-1.24.2Z"/>
        <path class="cls-2" d="M295.71,42.97l.36.17-3.98,8.54-.36-.17,3.98-8.54Z"/>
        <path class="cls-2" d="M298.7,43.55h4.45v.2l-2.67,6.4h-.75l2.76-6.06-3.79.05v-.58Z"/>
        <path class="cls-2" d="M310.49,50.15h-4.23v-.31s3.45-2.76,3.45-4.47c0-.74-.64-1.34-1.63-1.34s-1.66.53-1.66.53v-.43s.68-.63,1.88-.63c1.39,0,2.13.85,2.13,1.74,0,1.62-2.45,3.7-3.32,4.37l3.39-.05v.58Z"/>
        <path class="cls-2" d="M317.96,50.15h-4.23v-.31s3.45-2.76,3.45-4.47c0-.74-.64-1.34-1.63-1.34s-1.66.53-1.66.53v-.43s.68-.63,1.88-.63c1.39,0,2.13.85,2.13,1.74,0,1.62-2.45,3.7-3.32,4.37l3.38-.05v.58Z"/>
        <path class="cls-2" d="M321.12,43.55h4.45v.2l-2.67,6.4h-.75l2.76-6.06-3.79.05v-.58Z"/>
        <path class="cls-2" d="M327.65,48.22l3.25-4.67h.57v4.41l.97-.02v.47h-.97v1.74h-.69v-1.74h-3.13v-.2ZM330.8,47.97v-3.56l-2.5,3.59,2.5-.03Z"/>
      </g>
    </g>
  </g>
</svg>